SplineFontDB: 3.0
FontName: Zanashinar
FullName: Zanashinar
FamilyName: Zanashinar
Weight: Book
Copyright: Zanashinar (c) David Corbett, 2018.\nBabelStone Zanabazar (c) Andrew West, 2017-2018.
Version: 1.000
ItalicAngle: 0
UnderlinePosition: -200
UnderlineWidth: 200
Ascent: 1638
Descent: 410
InvalidEm: 0
sfntRevision: 0x000a0000
LayerCount: 2
Layer: 0 1 "Back" 1
Layer: 1 1 "Fore" 0
XUID: [1021 866 925171143 9548302]
StyleMap: 0x0040
FSType: 8
OS2Version: 5
OS2_WeightWidthSlopeOnly: 1
OS2_UseTypoMetrics: 1
CreationTime: 1509268789
ModificationTime: 1517889129
PfmFamily: 17
TTFWeight: 400
TTFWidth: 5
LineGap: 0
VLineGap: 0
Panose: 2 0 6 0 0 0 0 0 0 0
OS2TypoAscent: 1500
OS2TypoAOffset: 0
OS2TypoDescent: -400
OS2TypoDOffset: 0
OS2TypoLinegap: 205
OS2WinAscent: 3645
OS2WinAOffset: 0
OS2WinDescent: 4000
OS2WinDOffset: 0
HheadAscent: 3645
HheadAOffset: 0
HheadDescent: -4000
HheadDOffset: 0
OS2SubXSize: 1000
OS2SubYSize: 1000
OS2SubXOff: 0
OS2SubYOff: 200
OS2SupXSize: 1000
OS2SupYSize: 1000
OS2SupXOff: 0
OS2SupYOff: 1000
OS2StrikeYSize: 200
OS2StrikeYPos: 800
OS2CapHeight: 1500
OS2XHeight: 1000
OS2FamilyClass: 2048
OS2Vendor: '    '
OS2CodePages: 00000001.00000000
OS2UnicodeRanges: 00000001.02000000.00000040.00000000
Lookup: 1 0 0 "null" { } []
Lookup: 6 0 0 "'ccmp' lower form" { "'ccmp' lower form-1"  } ['ccmp' ('DFLT' <'dflt' > ) ]
Lookup: 1 0 0 "lower form" { "lower form-1" ("low") } []
Lookup: 6 0 0 "'ccmp' head form" { "'ccmp' head form-1"  } ['ccmp' ('DFLT' <'dflt' > ) ]
Lookup: 1 0 0 "head form" { "head form-1"  } []
Lookup: 6 0 0 "'ccmp' squished form" { "'ccmp' squished form-1"  } ['ccmp' ('DFLT' <'dflt' > ) ]
Lookup: 1 0 0 "squished form" { "squished form-1" ("squished") } []
Lookup: 6 8 0 "'ccmp' wide form" { "'ccmp' wide form-1"  } ['ccmp' ('DFLT' <'dflt' > ) ]
Lookup: 1 0 0 "wide form" { "wide form-1" ("wide") } []
Lookup: 4 0 1 "'rlig' subjoined consonant" { "'rlig' subjoined consonant-1"  } ['rlig' ('DFLT' <'dflt' > ) ]

StartChar: .notdef
Encoding: 1114112 -1 0
Width: 2000
GlyphClass: 2
Flags: W
LayerCount: 2
Fore
SplineSet
1500 200 m 1,0,-1
 1500 1300 l 1,1,-1
 500 1300 l 1,2,-1
 500 200 l 1,3,-1
 1500 200 l 1,0,-1
1700 1500 m 1,4,-1
 1700 0 l 1,5,-1
 300 0 l 1,6,-1
 300 1500 l 1,7,-1
 1700 1500 l 1,4,-1
EndSplineSet
EndChar

StartChar: exclam
Encoding: 33 33 4
Width: 600
GlyphClass: 2
Flags: W
LayerCount: 2
Fore
SplineSet
200 1500 m 1,0,-1
 400 1500 l 1,1,-1
 400 400 l 1,2,-1
 200 400 l 1,3,-1
 200 1500 l 1,0,-1
200 0 m 1,4,-1
 200 200 l 1,5,-1
 400 200 l 1,6,-1
 400 0 l 1,7,-1
 200 0 l 1,4,-1
EndSplineSet
EndChar

StartChar: quotedbl
Encoding: 34 34 5
Width: 900
GlyphClass: 2
Flags: W
LayerCount: 2
Fore
SplineSet
200 1500 m 1,0,-1
 400 1500 l 1,1,-1
 400 1200 l 1,2,-1
 200 1200 l 1,3,-1
 200 1500 l 1,0,-1
500 1500 m 1,4,-1
 700 1500 l 1,5,-1
 700 1200 l 1,6,-1
 500 1200 l 1,7,-1
 500 1500 l 1,4,-1
EndSplineSet
EndChar

StartChar: numbersign
Encoding: 35 35 6
Width: 1500
GlyphClass: 2
Flags: W
LayerCount: 2
Fore
SplineSet
950 450 m 1,0,-1
 850 250 l 1,1,-1
 650 250 l 1,2,-1
 750 450 l 1,3,-1
 550 450 l 1,4,-1
 450 250 l 1,5,-1
 250 250 l 1,6,-1
 350 450 l 1,7,-1
 200 450 l 1,8,-1
 200 650 l 1,9,-1
 400 650 l 1,10,-1
 500 850 l 1,11,-1
 300 850 l 1,12,-1
 300 1050 l 1,13,-1
 550 1050 l 1,14,-1
 650 1250 l 1,15,-1
 850 1250 l 1,16,-1
 750 1050 l 1,17,-1
 950 1050 l 1,18,-1
 1050 1250 l 1,19,-1
 1250 1250 l 1,20,-1
 1150 1050 l 1,21,-1
 1300 1050 l 1,22,-1
 1300 850 l 1,23,-1
 1100 850 l 1,24,-1
 1000 650 l 1,25,-1
 1200 650 l 1,26,-1
 1200 450 l 1,27,-1
 950 450 l 1,0,-1
800 650 m 1,28,-1
 900 850 l 1,29,-1
 700 850 l 1,30,-1
 600 650 l 1,31,-1
 800 650 l 1,28,-1
EndSplineSet
EndChar

StartChar: dollar
Encoding: 36 36 7
Width: 1200
GlyphClass: 2
Flags: W
LayerCount: 2
Fore
SplineSet
1000 1300 m 1,0,-1
 700 1300 l 1,1,-1
 700 850 l 1,2,-1
 800 850 l 2,3,4
 1000 850 1000 850 1000 650 c 2,5,-1
 1000 200 l 2,6,7
 1000 0 1000 0 800 0 c 2,8,-1
 700 0 l 1,9,-1
 700 -200 l 1,10,-1
 500 -200 l 1,11,-1
 500 0 l 1,12,-1
 200 0 l 1,13,-1
 200 200 l 1,14,-1
 500 200 l 1,15,-1
 500 650 l 1,16,-1
 400 650 l 2,17,18
 200 650 200 650 200 850 c 2,19,-1
 200 1300 l 2,20,21
 200 1500 200 1500 400 1500 c 2,22,-1
 500 1500 l 1,23,-1
 500 1700 l 1,24,-1
 700 1700 l 1,25,-1
 700 1500 l 1,26,-1
 1000 1500 l 1,27,-1
 1000 1300 l 1,0,-1
500 1300 m 1,28,-1
 400 1300 l 1,29,-1
 400 850 l 1,30,-1
 500 850 l 1,31,-1
 500 1300 l 1,28,-1
800 650 m 1,32,-1
 700 650 l 1,33,-1
 700 200 l 1,34,-1
 800 200 l 1,35,-1
 800 650 l 1,32,-1
EndSplineSet
EndChar

StartChar: percent
Encoding: 37 37 8
Width: 1200
GlyphClass: 2
Flags: W
LayerCount: 2
Fore
SplineSet
700 1500 m 1,0,-1
 900 1500 l 1,1,-1
 500 0 l 1,2,-1
 300 0 l 1,3,-1
 700 1500 l 1,0,-1
500 1350 m 256,5,6
 500 1200 500 1200 350 1200 c 256,7,8
 200 1200 200 1200 200 1350 c 256,9,10
 200 1500 200 1500 350 1500 c 256,11,4
 500 1500 500 1500 500 1350 c 256,5,6
400 1400 m 1,12,-1
 300 1400 l 1,13,-1
 300 1300 l 1,14,-1
 400 1300 l 1,15,-1
 400 1400 l 1,12,-1
900 200 m 1,16,-1
 800 200 l 1,17,-1
 800 100 l 1,18,-1
 900 100 l 1,19,-1
 900 200 l 1,16,-1
1000 150 m 256,21,22
 1000 0 1000 0 850 0 c 256,23,24
 700 0 700 0 700 150 c 256,25,26
 700 300 700 300 850 300 c 256,27,20
 1000 300 1000 300 1000 150 c 256,21,22
EndSplineSet
EndChar

StartChar: ampersand
Encoding: 38 38 9
Width: 1400
GlyphClass: 2
Flags: W
LayerCount: 2
Fore
SplineSet
200 1300 m 2,0,1
 200 1500 200 1500 400 1500 c 2,2,-1
 800 1500 l 2,3,4
 1000 1500 1000 1500 1000 1300 c 2,5,-1
 1000 850 l 1,6,-1
 900 750 l 1,7,-1
 1000 650 l 1,8,-1
 1000 200 l 1,9,-1
 1200 200 l 1,10,-1
 1200 0 l 1,11,-1
 1000 0 l 1,12,-1
 1000 -200 l 1,13,-1
 800 -200 l 1,14,-1
 800 0 l 1,15,-1
 400 0 l 2,16,17
 200 0 200 0 200 200 c 2,18,-1
 200 650 l 1,19,-1
 300 750 l 1,20,-1
 200 850 l 1,21,-1
 200 1300 l 2,0,1
400 1300 m 1,22,-1
 400 850 l 1,23,-1
 800 850 l 1,24,-1
 800 1300 l 1,25,-1
 400 1300 l 1,22,-1
800 650 m 1,26,-1
 400 650 l 1,27,-1
 400 200 l 1,28,-1
 800 200 l 1,29,-1
 800 650 l 1,26,-1
EndSplineSet
EndChar

StartChar: quotesingle
Encoding: 39 39 10
Width: 600
GlyphClass: 2
Flags: W
LayerCount: 2
Fore
SplineSet
200 1500 m 1,0,-1
 400 1500 l 1,1,-1
 400 1200 l 1,2,-1
 200 1200 l 1,3,-1
 200 1500 l 1,0,-1
EndSplineSet
EndChar

StartChar: parenleft
Encoding: 40 40 11
Width: 800
GlyphClass: 2
Flags: W
LayerCount: 2
Fore
SplineSet
400 1500 m 2,0,-1
 600 1500 l 1,1,-1
 600 1300 l 1,2,-1
 400 1300 l 1,3,-1
 400 200 l 1,4,-1
 600 200 l 1,5,-1
 600 0 l 1,6,-1
 400 0 l 2,7,8
 200 0 200 0 200 200 c 2,9,-1
 200 1300 l 2,10,11
 200 1500 200 1500 400 1500 c 2,0,-1
EndSplineSet
EndChar

StartChar: parenright
Encoding: 41 41 12
Width: 800
GlyphClass: 2
Flags: W
LayerCount: 2
Fore
SplineSet
600 1300 m 2,1,-1
 600 200 l 2,2,3
 600 0 600 0 400 0 c 2,4,-1
 200 0 l 1,5,-1
 200 200 l 1,6,-1
 400 200 l 1,7,-1
 400 1300 l 1,8,-1
 200 1300 l 1,9,-1
 200 1500 l 1,10,-1
 400 1500 l 2,11,0
 600 1500 600 1500 600 1300 c 2,1,-1
EndSplineSet
EndChar

StartChar: asterisk
Encoding: 42 42 13
Width: 1249
GlyphClass: 2
Flags: W
LayerCount: 2
Fore
SplineSet
524 992 m 1,0,-1
 524 1250 l 1,1,-1
 724 1250 l 1,2,-1
 724 992 l 1,3,-1
 907 1175 l 1,4,-1
 1049 1033 l 1,5,-1
 766 750 l 1,6,-1
 1049 467 l 1,7,-1
 907 326 l 1,8,-1
 724 509 l 1,9,-1
 724 250 l 1,10,-1
 524 250 l 1,11,-1
 524 509 l 1,12,-1
 341 326 l 1,13,-1
 200 467 l 1,14,-1
 483 750 l 1,15,-1
 200 1033 l 1,16,-1
 341 1175 l 1,17,-1
 524 992 l 1,0,-1
EndSplineSet
EndChar

StartChar: plus
Encoding: 43 43 14
Width: 1200
GlyphClass: 2
Flags: W
LayerCount: 2
Fore
SplineSet
500 1150 m 1,0,-1
 700 1150 l 1,1,-1
 700 850 l 1,2,-1
 1000 850 l 1,3,-1
 1000 650 l 1,4,-1
 700 650 l 1,5,-1
 700 350 l 1,6,-1
 500 350 l 1,7,-1
 500 650 l 1,8,-1
 200 650 l 1,9,-1
 200 850 l 1,10,-1
 500 850 l 1,11,-1
 500 1150 l 1,0,-1
EndSplineSet
EndChar

StartChar: comma
Encoding: 44 44 15
Width: 600
GlyphClass: 2
Flags: W
LayerCount: 2
Fore
SplineSet
200 0 m 1,0,-1
 200 200 l 1,1,-1
 400 200 l 1,2,-1
 400 -200 l 1,3,-1
 300 -200 l 1,4,-1
 300 0 l 1,5,-1
 200 0 l 1,0,-1
EndSplineSet
EndChar

StartChar: hyphen
Encoding: 45 45 16
Width: 1200
GlyphClass: 2
Flags: W
LayerCount: 2
Fore
SplineSet
1000 850 m 1,0,-1
 1000 650 l 1,1,-1
 200 650 l 1,2,-1
 200 850 l 1,3,-1
 1000 850 l 1,0,-1
EndSplineSet
EndChar

StartChar: period
Encoding: 46 46 17
Width: 600
GlyphClass: 2
Flags: W
LayerCount: 2
Fore
SplineSet
200 0 m 1,0,-1
 200 200 l 1,1,-1
 400 200 l 1,2,-1
 400 0 l 1,3,-1
 200 0 l 1,0,-1
EndSplineSet
EndChar

StartChar: slash
Encoding: 47 47 18
Width: 1000
GlyphClass: 2
Flags: W
LayerCount: 2
Fore
SplineSet
600 1500 m 1,0,-1
 800 1500 l 1,1,-1
 400 0 l 1,2,-1
 200 0 l 1,3,-1
 600 1500 l 1,0,-1
EndSplineSet
EndChar

StartChar: zero
Encoding: 48 48 19
Width: 1100
GlyphClass: 2
Flags: W
LayerCount: 2
Fore
SplineSet
700 0 m 2,1,-1
 400 0 l 2,2,3
 200 0 200 0 200 200 c 2,4,-1
 200 1300 l 2,5,6
 200 1500 200 1500 400 1500 c 2,7,-1
 700 1500 l 2,8,9
 900 1500 900 1500 900 1300 c 2,10,-1
 900 200 l 2,11,0
 900 0 900 0 700 0 c 2,1,-1
700 200 m 1,12,-1
 700 1300 l 1,13,-1
 400 1300 l 1,14,-1
 400 200 l 1,15,-1
 700 200 l 1,12,-1
EndSplineSet
EndChar

StartChar: one
Encoding: 49 49 20
Width: 800
GlyphClass: 2
Flags: W
LayerCount: 2
Fore
SplineSet
600 1300 m 2,1,-1
 600 0 l 1,2,-1
 400 0 l 1,3,-1
 400 1300 l 1,4,-1
 200 1300 l 1,5,-1
 200 1500 l 1,6,-1
 400 1500 l 2,7,0
 600 1500 600 1500 600 1300 c 2,1,-1
EndSplineSet
EndChar

StartChar: two
Encoding: 50 50 21
Width: 1200
GlyphClass: 2
Flags: W
LayerCount: 2
Fore
SplineSet
200 1500 m 1,0,-1
 800 1500 l 2,1,2
 1000 1500 1000 1500 1000 1300 c 2,3,-1
 1000 850 l 2,4,5
 1000 650 1000 650 800 650 c 2,6,-1
 400 650 l 1,7,-1
 400 200 l 1,8,-1
 1000 200 l 1,9,-1
 1000 0 l 1,10,-1
 400 0 l 2,11,12
 200 0 200 0 200 200 c 2,13,-1
 200 650 l 2,14,15
 200 850 200 850 400 850 c 2,16,-1
 800 850 l 1,17,-1
 800 1300 l 1,18,-1
 200 1300 l 1,19,-1
 200 1500 l 1,0,-1
EndSplineSet
EndChar

StartChar: three
Encoding: 51 51 22
Width: 1200
GlyphClass: 2
Flags: W
LayerCount: 2
Fore
SplineSet
1000 1300 m 2,0,-1
 1000 200 l 2,1,2
 1000 0 1000 0 800 0 c 2,3,-1
 200 0 l 1,4,-1
 200 200 l 1,5,-1
 800 200 l 1,6,-1
 800 650 l 1,7,-1
 200 650 l 1,8,-1
 200 850 l 1,9,-1
 800 850 l 1,10,-1
 800 1300 l 1,11,-1
 200 1300 l 1,12,-1
 200 1500 l 1,13,-1
 800 1500 l 2,14,15
 1000 1500 1000 1500 1000 1300 c 2,0,-1
EndSplineSet
EndChar

StartChar: four
Encoding: 52 52 23
Width: 1200
GlyphClass: 2
Flags: W
LayerCount: 2
Fore
SplineSet
200 1500 m 1,0,-1
 400 1500 l 1,1,-1
 400 550 l 1,2,-1
 600 550 l 1,3,-1
 600 900 l 1,4,-1
 800 900 l 1,5,-1
 800 550 l 1,6,-1
 1000 550 l 1,7,-1
 1000 350 l 1,8,-1
 800 350 l 1,9,-1
 800 0 l 1,10,-1
 600 0 l 1,11,-1
 600 350 l 1,12,-1
 400 350 l 2,13,14
 200 350 200 350 200 550 c 2,15,-1
 200 1500 l 1,0,-1
EndSplineSet
EndChar

StartChar: five
Encoding: 53 53 24
Width: 1200
GlyphClass: 2
Flags: W
LayerCount: 2
Fore
SplineSet
1000 1300 m 1,0,-1
 400 1300 l 1,1,-1
 400 850 l 1,2,-1
 800 850 l 2,3,4
 1000 850 1000 850 1000 650 c 2,5,-1
 1000 200 l 2,6,7
 1000 0 1000 0 800 0 c 2,8,-1
 200 0 l 1,9,-1
 200 200 l 1,10,-1
 800 200 l 1,11,-1
 800 650 l 1,12,-1
 400 650 l 2,13,14
 200 650 200 650 200 850 c 2,15,-1
 200 1300 l 2,16,17
 200 1500 200 1500 400 1500 c 2,18,-1
 1000 1500 l 1,19,-1
 1000 1300 l 1,0,-1
EndSplineSet
EndChar

StartChar: six
Encoding: 54 54 25
Width: 1200
GlyphClass: 2
Flags: W
LayerCount: 2
Fore
SplineSet
400 1500 m 2,1,-1
 1000 1500 l 1,2,-1
 1000 1300 l 1,3,-1
 400 1300 l 1,4,-1
 400 850 l 1,5,-1
 800 850 l 2,6,7
 1000 850 1000 850 1000 650 c 2,8,-1
 1000 250 l 2,9,10
 1000 0 1000 0 800 0 c 2,11,-1
 400 0 l 2,12,13
 200 0 200 0 200 200 c 2,14,-1
 200 1300 l 2,15,0
 200 1500 200 1500 400 1500 c 2,1,-1
800 650 m 1,16,-1
 400 650 l 1,17,-1
 400 200 l 1,18,-1
 800 200 l 1,19,-1
 800 650 l 1,16,-1
EndSplineSet
EndChar

StartChar: seven
Encoding: 55 55 26
Width: 1200
GlyphClass: 2
Flags: W
LayerCount: 2
Fore
SplineSet
1000 1300 m 2,1,-1
 1000 0 l 1,2,-1
 800 0 l 1,3,-1
 800 1300 l 1,4,-1
 200 1300 l 1,5,-1
 200 1500 l 1,6,-1
 800 1500 l 2,7,0
 1000 1500 1000 1500 1000 1300 c 2,1,-1
EndSplineSet
EndChar

StartChar: eight
Encoding: 56 56 27
Width: 1200
GlyphClass: 2
Flags: W
LayerCount: 2
Fore
SplineSet
200 1300 m 2,0,1
 200 1500 200 1500 400 1500 c 2,2,-1
 800 1500 l 2,3,4
 1000 1500 1000 1500 1000 1300 c 2,5,-1
 1000 850 l 1,6,-1
 900 750 l 1,7,-1
 1000 650 l 1,8,-1
 1000 200 l 2,9,10
 1000 0 1000 0 800 0 c 2,11,-1
 400 0 l 2,12,13
 200 0 200 0 200 200 c 2,14,-1
 200 650 l 1,15,-1
 300 750 l 1,16,-1
 200 850 l 1,17,-1
 200 1300 l 2,0,1
400 1300 m 1,18,-1
 400 850 l 1,19,-1
 800 850 l 1,20,-1
 800 1300 l 1,21,-1
 400 1300 l 1,18,-1
800 650 m 1,22,-1
 400 650 l 1,23,-1
 400 200 l 1,24,-1
 800 200 l 1,25,-1
 800 650 l 1,22,-1
EndSplineSet
EndChar

StartChar: nine
Encoding: 57 57 28
Width: 1200
GlyphClass: 2
Flags: W
LayerCount: 2
Fore
SplineSet
800 0 m 2,1,-1
 200 0 l 1,2,-1
 200 200 l 1,3,-1
 800 200 l 1,4,-1
 800 650 l 1,5,-1
 400 650 l 2,6,7
 200 650 200 650 200 850 c 2,8,-1
 200 1250 l 2,9,10
 200 1500 200 1500 400 1500 c 2,11,-1
 800 1500 l 2,12,13
 1000 1500 1000 1500 1000 1300 c 2,14,-1
 1000 200 l 2,15,0
 1000 0 1000 0 800 0 c 2,1,-1
400 850 m 1,16,-1
 800 850 l 1,17,-1
 800 1300 l 1,18,-1
 400 1300 l 1,19,-1
 400 850 l 1,16,-1
EndSplineSet
EndChar

StartChar: colon
Encoding: 58 58 29
Width: 600
GlyphClass: 2
Flags: W
LayerCount: 2
Fore
SplineSet
200 0 m 1,0,-1
 200 200 l 1,1,-1
 400 200 l 1,2,-1
 400 0 l 1,3,-1
 200 0 l 1,0,-1
200 600 m 1,4,-1
 200 800 l 1,5,-1
 400 800 l 1,6,-1
 400 600 l 1,7,-1
 200 600 l 1,4,-1
EndSplineSet
EndChar

StartChar: semicolon
Encoding: 59 59 30
Width: 600
GlyphClass: 2
Flags: W
LayerCount: 2
Fore
SplineSet
200 600 m 1,0,-1
 200 800 l 1,1,-1
 400 800 l 1,2,-1
 400 600 l 1,3,-1
 200 600 l 1,0,-1
200 0 m 1,4,-1
 200 200 l 1,5,-1
 400 200 l 1,6,-1
 400 -200 l 1,7,-1
 300 -200 l 1,8,-1
 300 0 l 1,9,-1
 200 0 l 1,4,-1
EndSplineSet
EndChar

StartChar: less
Encoding: 60 60 31
Width: 1000
GlyphClass: 2
Flags: W
LayerCount: 2
Fore
SplineSet
800 1250 m 1,0,-1
 800 1050 l 1,1,-1
 350 750 l 1,2,-1
 800 450 l 1,3,-1
 800 250 l 1,4,-1
 200 650 l 1,5,-1
 200 850 l 1,6,-1
 800 1250 l 1,0,-1
EndSplineSet
EndChar

StartChar: equal
Encoding: 61 61 32
Width: 1200
GlyphClass: 2
Flags: W
LayerCount: 2
Fore
SplineSet
1000 1050 m 1,0,-1
 1000 850 l 1,1,-1
 200 850 l 1,2,-1
 200 1050 l 1,3,-1
 1000 1050 l 1,0,-1
1000 650 m 1,4,-1
 1000 450 l 1,5,-1
 200 450 l 1,6,-1
 200 650 l 1,7,-1
 1000 650 l 1,4,-1
EndSplineSet
EndChar

StartChar: greater
Encoding: 62 62 33
Width: 1000
GlyphClass: 2
Flags: W
LayerCount: 2
Fore
SplineSet
800 850 m 1,0,-1
 800 650 l 1,1,-1
 200 250 l 1,2,-1
 200 450 l 1,3,-1
 650 750 l 1,4,-1
 200 1050 l 1,5,-1
 200 1250 l 1,6,-1
 800 850 l 1,0,-1
EndSplineSet
EndChar

StartChar: question
Encoding: 63 63 34
Width: 1000
GlyphClass: 2
Flags: W
LayerCount: 2
Fore
SplineSet
400 1500 m 2,1,-1
 600 1500 l 2,2,3
 800 1500 800 1500 800 1300 c 2,4,-1
 800 900 l 2,5,6
 800 700 800 700 600 700 c 1,7,-1
 600 400 l 1,8,-1
 400 400 l 1,9,-1
 400 700 l 2,10,11
 400 900 400 900 600 900 c 1,12,-1
 600 1300 l 1,13,-1
 400 1300 l 1,14,-1
 400 1100 l 1,15,-1
 200 1100 l 1,16,-1
 200 1300 l 2,17,0
 200 1500 200 1500 400 1500 c 2,1,-1
400 0 m 1,18,-1
 400 200 l 1,19,-1
 600 200 l 1,20,-1
 600 0 l 1,21,-1
 400 0 l 1,18,-1
EndSplineSet
EndChar

StartChar: at
Encoding: 64 64 35
Width: 1600
GlyphClass: 2
Flags: W
LayerCount: 2
Fore
SplineSet
500 575 m 2,1,-1
 500 875 l 2,2,3
 500 1075 500 1075 700 1075 c 2,4,-1
 900 1075 l 2,5,6
 1100 1075 1100 1075 1100 875 c 2,7,-1
 1100 375 l 1,8,-1
 1200 375 l 1,9,-1
 1200 1175 l 1,10,-1
 400 1175 l 1,11,-1
 400 275 l 1,12,-1
 700 275 l 1,13,-1
 700 75 l 1,14,-1
 500 75 l 2,15,16
 200 75 200 75 200 275 c 2,17,-1
 200 1175 l 2,18,19
 200 1375 200 1375 500 1375 c 2,20,-1
 1100 1375 l 2,21,22
 1400 1375 1400 1375 1400 1175 c 2,23,-1
 1400 375 l 2,24,25
 1400 175 1400 175 1200 175 c 2,26,-1
 1100 175 l 2,27,28
 900 175 900 175 900 375 c 1,29,-1
 700 375 l 2,30,0
 500 375 500 375 500 575 c 2,1,-1
700 875 m 1,31,-1
 700 575 l 1,32,-1
 900 575 l 1,33,-1
 900 875 l 1,34,-1
 700 875 l 1,31,-1
EndSplineSet
EndChar

StartChar: A
Encoding: 65 65 36
Width: 1200
GlyphClass: 2
Flags: W
LayerCount: 2
Fore
SplineSet
400 1500 m 2,1,-1
 800 1500 l 2,2,3
 1000 1500 1000 1500 1000 1300 c 2,4,-1
 1000 0 l 1,5,-1
 800 0 l 1,6,-1
 800 650 l 1,7,-1
 400 650 l 1,8,-1
 400 0 l 1,9,-1
 200 0 l 1,10,-1
 200 1300 l 2,11,0
 200 1500 200 1500 400 1500 c 2,1,-1
800 1300 m 1,12,-1
 400 1300 l 1,13,-1
 400 850 l 1,14,-1
 800 850 l 1,15,-1
 800 1300 l 1,12,-1
EndSplineSet
EndChar

StartChar: B
Encoding: 66 66 37
Width: 1200
GlyphClass: 2
Flags: W
LayerCount: 2
Fore
SplineSet
200 1500 m 1,0,-1
 800 1500 l 2,1,2
 1000 1500 1000 1500 1000 1300 c 2,3,-1
 1000 850 l 1,4,-1
 900 750 l 1,5,-1
 1000 650 l 1,6,-1
 1000 200 l 2,7,8
 1000 0 1000 0 800 0 c 2,9,-1
 200 0 l 1,10,-1
 200 1500 l 1,0,-1
800 1300 m 1,11,-1
 400 1300 l 1,12,-1
 400 850 l 1,13,-1
 800 850 l 1,14,-1
 800 1300 l 1,11,-1
800 650 m 1,15,-1
 400 650 l 1,16,-1
 400 200 l 1,17,-1
 800 200 l 1,18,-1
 800 650 l 1,15,-1
EndSplineSet
EndChar

StartChar: C
Encoding: 67 67 38
Width: 1200
GlyphClass: 2
Flags: W
LayerCount: 2
Fore
SplineSet
800 0 m 2,1,-1
 400 0 l 2,2,3
 200 0 200 0 200 200 c 2,4,-1
 200 1300 l 2,5,6
 200 1500 200 1500 400 1500 c 2,7,-1
 800 1500 l 2,8,9
 1000 1500 1000 1500 1000 1300 c 2,10,-1
 1000 1000 l 1,11,-1
 800 1000 l 1,12,-1
 800 1300 l 1,13,-1
 400 1300 l 1,14,-1
 400 200 l 1,15,-1
 800 200 l 1,16,-1
 800 500 l 1,17,-1
 1000 500 l 1,18,-1
 1000 200 l 2,19,0
 1000 0 1000 0 800 0 c 2,1,-1
EndSplineSet
EndChar

StartChar: D
Encoding: 68 68 39
Width: 1200
GlyphClass: 2
Flags: W
LayerCount: 2
Fore
SplineSet
200 0 m 1,0,-1
 200 1500 l 1,1,-1
 800 1500 l 2,2,3
 1000 1500 1000 1500 1000 1300 c 2,4,-1
 1000 200 l 2,5,6
 1000 0 1000 0 800 0 c 2,7,-1
 200 0 l 1,0,-1
800 200 m 1,8,-1
 800 1300 l 1,9,-1
 400 1300 l 1,10,-1
 400 200 l 1,11,-1
 800 200 l 1,8,-1
EndSplineSet
EndChar

StartChar: E
Encoding: 69 69 40
Width: 1200
GlyphClass: 2
Flags: W
LayerCount: 2
Fore
SplineSet
400 1500 m 2,1,-1
 1000 1500 l 1,2,-1
 1000 1300 l 1,3,-1
 400 1300 l 1,4,-1
 400 850 l 1,5,-1
 1000 850 l 1,6,-1
 1000 650 l 1,7,-1
 400 650 l 1,8,-1
 400 200 l 1,9,-1
 1000 200 l 1,10,-1
 1000 0 l 1,11,-1
 400 0 l 2,12,13
 200 0 200 0 200 200 c 2,14,-1
 200 1300 l 2,15,0
 200 1500 200 1500 400 1500 c 2,1,-1
EndSplineSet
EndChar

StartChar: F
Encoding: 70 70 41
Width: 1200
GlyphClass: 2
Flags: W
LayerCount: 2
Fore
SplineSet
400 1500 m 2,1,-1
 1000 1500 l 1,2,-1
 1000 1300 l 1,3,-1
 400 1300 l 1,4,-1
 400 850 l 1,5,-1
 1000 850 l 1,6,-1
 1000 650 l 1,7,-1
 400 650 l 1,8,-1
 400 0 l 1,9,-1
 200 0 l 1,10,-1
 200 1300 l 2,11,0
 200 1500 200 1500 400 1500 c 2,1,-1
EndSplineSet
EndChar

StartChar: G
Encoding: 71 71 42
Width: 1200
GlyphClass: 2
Flags: W
LayerCount: 2
Fore
SplineSet
800 0 m 2,1,-1
 400 0 l 2,2,3
 200 0 200 0 200 200 c 2,4,-1
 200 1300 l 2,5,6
 200 1500 200 1500 400 1500 c 2,7,-1
 800 1500 l 2,8,9
 1000 1500 1000 1500 1000 1300 c 2,10,-1
 1000 1000 l 1,11,-1
 800 1000 l 1,12,-1
 800 1300 l 1,13,-1
 400 1300 l 1,14,-1
 400 200 l 1,15,-1
 800 200 l 1,16,-1
 800 450 l 1,17,-1
 600 450 l 1,18,-1
 600 650 l 1,19,-1
 800 650 l 2,20,21
 1000 650 1000 650 1000 450 c 2,22,-1
 1000 200 l 2,23,0
 1000 0 1000 0 800 0 c 2,1,-1
EndSplineSet
EndChar

StartChar: H
Encoding: 72 72 43
Width: 1200
GlyphClass: 2
Flags: W
LayerCount: 2
Fore
SplineSet
200 1500 m 1,0,-1
 400 1500 l 1,1,-1
 400 850 l 1,2,-1
 800 850 l 1,3,-1
 800 1500 l 1,4,-1
 1000 1500 l 1,5,-1
 1000 0 l 1,6,-1
 800 0 l 1,7,-1
 800 650 l 1,8,-1
 400 650 l 1,9,-1
 400 0 l 1,10,-1
 200 0 l 1,11,-1
 200 1500 l 1,0,-1
EndSplineSet
EndChar

StartChar: I
Encoding: 73 73 44
Width: 600
GlyphClass: 2
Flags: W
LayerCount: 2
Fore
SplineSet
200 1500 m 1,0,-1
 400 1500 l 1,1,-1
 400 0 l 1,2,-1
 200 0 l 1,3,-1
 200 1500 l 1,0,-1
EndSplineSet
EndChar

StartChar: J
Encoding: 74 74 45
Width: 1200
GlyphClass: 2
Flags: W
LayerCount: 2
Fore
SplineSet
800 1500 m 1,0,-1
 1000 1500 l 1,1,-1
 1000 200 l 2,2,3
 1000 0 1000 0 800 0 c 2,4,-1
 400 0 l 2,5,6
 200 0 200 0 200 200 c 2,7,-1
 200 450 l 1,8,-1
 400 450 l 1,9,-1
 400 200 l 1,10,-1
 800 200 l 1,11,-1
 800 1500 l 1,0,-1
EndSplineSet
EndChar

StartChar: K
Encoding: 75 75 46
Width: 1200
GlyphClass: 2
Flags: W
LayerCount: 2
Fore
SplineSet
200 1500 m 1,0,-1
 400 1500 l 1,1,-1
 400 850 l 1,2,-1
 600 850 l 1,3,-1
 800 1100 l 1,4,-1
 800 1500 l 1,5,-1
 1000 1500 l 1,6,-1
 1000 1000 l 1,7,-1
 800 750 l 1,8,-1
 1000 500 l 1,9,-1
 1000 0 l 1,10,-1
 800 0 l 1,11,-1
 800 400 l 1,12,-1
 600 650 l 1,13,-1
 400 650 l 1,14,-1
 400 0 l 1,15,-1
 200 0 l 1,16,-1
 200 1500 l 1,0,-1
EndSplineSet
EndChar

StartChar: L
Encoding: 76 76 47
Width: 1200
GlyphClass: 2
Flags: W
LayerCount: 2
Fore
SplineSet
200 1500 m 1,0,-1
 400 1500 l 1,1,-1
 400 200 l 1,2,-1
 1000 200 l 1,3,-1
 1000 0 l 1,4,-1
 400 0 l 2,5,6
 200 0 200 0 200 200 c 2,7,-1
 200 1500 l 1,0,-1
EndSplineSet
EndChar

StartChar: M
Encoding: 77 77 48
Width: 1600
GlyphClass: 2
Flags: W
LayerCount: 2
Fore
SplineSet
700 1300 m 1,0,-1
 400 1300 l 1,1,-1
 400 0 l 1,2,-1
 200 0 l 1,3,-1
 200 1300 l 2,4,5
 200 1500 200 1500 400 1500 c 2,6,-1
 700 1500 l 1,7,-1
 800 1400 l 1,8,-1
 900 1500 l 1,9,-1
 1200 1500 l 2,10,11
 1400 1500 1400 1500 1400 1300 c 2,12,-1
 1400 0 l 1,13,-1
 1200 0 l 1,14,-1
 1200 1300 l 1,15,-1
 900 1300 l 1,16,-1
 900 0 l 1,17,-1
 700 0 l 1,18,-1
 700 1300 l 1,0,-1
EndSplineSet
EndChar

StartChar: N
Encoding: 78 78 49
Width: 1400
GlyphClass: 2
Flags: W
LayerCount: 2
Fore
SplineSet
400 1300 m 1,0,-1
 400 0 l 1,1,-1
 200 0 l 1,2,-1
 200 1400 l 2,3,4
 200 1500 200 1500 300 1500 c 2,5,-1
 550 1500 l 1,6,-1
 1000 200 l 1,7,-1
 1000 1500 l 1,8,-1
 1200 1500 l 1,9,-1
 1200 100 l 2,10,11
 1200 0 1200 0 1100 0 c 2,12,-1
 850 0 l 1,13,-1
 400 1300 l 1,0,-1
EndSplineSet
EndChar

StartChar: O
Encoding: 79 79 50
Width: 1200
GlyphClass: 2
Flags: W
LayerCount: 2
Fore
SplineSet
800 0 m 2,1,-1
 400 0 l 2,2,3
 200 0 200 0 200 200 c 2,4,-1
 200 1300 l 2,5,6
 200 1500 200 1500 400 1500 c 2,7,-1
 800 1500 l 2,8,9
 1000 1500 1000 1500 1000 1300 c 2,10,-1
 1000 200 l 2,11,0
 1000 0 1000 0 800 0 c 2,1,-1
800 200 m 1,12,-1
 800 1300 l 1,13,-1
 400 1300 l 1,14,-1
 400 200 l 1,15,-1
 800 200 l 1,12,-1
EndSplineSet
EndChar

StartChar: P
Encoding: 80 80 51
Width: 1200
GlyphClass: 2
Flags: W
LayerCount: 2
Fore
SplineSet
400 1500 m 2,1,-1
 800 1500 l 2,2,3
 1000 1500 1000 1500 1000 1300 c 2,4,-1
 1000 850 l 2,5,6
 1000 650 1000 650 800 650 c 2,7,-1
 400 650 l 1,8,-1
 400 0 l 1,9,-1
 200 0 l 1,10,-1
 200 1300 l 2,11,0
 200 1500 200 1500 400 1500 c 2,1,-1
800 1300 m 1,12,-1
 400 1300 l 1,13,-1
 400 850 l 1,14,-1
 800 850 l 1,15,-1
 800 1300 l 1,12,-1
EndSplineSet
EndChar

StartChar: Q
Encoding: 81 81 52
Width: 1400
GlyphClass: 2
Flags: W
LayerCount: 2
Fore
SplineSet
800 0 m 2,1,-1
 400 0 l 2,2,3
 200 0 200 0 200 200 c 2,4,-1
 200 1300 l 2,5,6
 200 1500 200 1500 400 1500 c 2,7,-1
 800 1500 l 2,8,9
 1000 1500 1000 1500 1000 1300 c 2,10,-1
 1000 550 l 1,11,-1
 1200 500 l 1,12,-1
 1200 300 l 1,13,-1
 1000 350 l 1,14,-1
 1000 200 l 2,15,0
 1000 0 1000 0 800 0 c 2,1,-1
800 200 m 1,16,-1
 800 400 l 1,17,-1
 600 450 l 1,18,-1
 600 650 l 1,19,-1
 800 600 l 1,20,-1
 800 1300 l 1,21,-1
 400 1300 l 1,22,-1
 400 200 l 1,23,-1
 800 200 l 1,16,-1
EndSplineSet
EndChar

StartChar: R
Encoding: 82 82 53
Width: 1200
GlyphClass: 2
Flags: W
LayerCount: 2
Fore
SplineSet
400 1500 m 2,1,-1
 800 1500 l 2,2,3
 1000 1500 1000 1500 1000 1300 c 2,4,-1
 1000 850 l 1,5,-1
 900 750 l 1,6,-1
 1000 650 l 1,7,-1
 1000 0 l 1,8,-1
 800 0 l 1,9,-1
 800 650 l 1,10,-1
 400 650 l 1,11,-1
 400 0 l 1,12,-1
 200 0 l 1,13,-1
 200 1300 l 2,14,0
 200 1500 200 1500 400 1500 c 2,1,-1
800 1300 m 1,15,-1
 400 1300 l 1,16,-1
 400 850 l 1,17,-1
 800 850 l 1,18,-1
 800 1300 l 1,15,-1
EndSplineSet
EndChar

StartChar: S
Encoding: 83 83 54
Width: 1200
GlyphClass: 2
Flags: W
LayerCount: 2
Fore
SplineSet
200 400 m 1,0,-1
 400 400 l 1,1,-1
 400 200 l 1,2,-1
 800 200 l 1,3,-1
 800 650 l 1,4,-1
 400 650 l 2,5,6
 200 650 200 650 200 850 c 2,7,-1
 200 1300 l 2,8,9
 200 1500 200 1500 400 1500 c 2,10,-1
 800 1500 l 2,11,12
 1000 1500 1000 1500 1000 1300 c 2,13,-1
 1000 1100 l 1,14,-1
 800 1100 l 1,15,-1
 800 1300 l 1,16,-1
 400 1300 l 1,17,-1
 400 850 l 1,18,-1
 800 850 l 2,19,20
 1000 850 1000 850 1000 650 c 2,21,-1
 1000 200 l 2,22,23
 1000 0 1000 0 800 0 c 2,24,-1
 400 0 l 2,25,26
 200 0 200 0 200 200 c 2,27,-1
 200 400 l 1,0,-1
EndSplineSet
EndChar

StartChar: T
Encoding: 84 84 55
Width: 1200
GlyphClass: 2
Flags: W
LayerCount: 2
Fore
SplineSet
200 1500 m 1,0,-1
 1000 1500 l 1,1,-1
 1000 1300 l 1,2,-1
 700 1300 l 1,3,-1
 700 0 l 1,4,-1
 500 0 l 1,5,-1
 500 1300 l 1,6,-1
 200 1300 l 1,7,-1
 200 1500 l 1,0,-1
EndSplineSet
EndChar

StartChar: U
Encoding: 85 85 56
Width: 1200
GlyphClass: 2
Flags: W
LayerCount: 2
Fore
SplineSet
800 1500 m 1,0,-1
 1000 1500 l 1,1,-1
 1000 200 l 2,2,3
 1000 0 1000 0 800 0 c 2,4,-1
 400 0 l 2,5,6
 200 0 200 0 200 200 c 2,7,-1
 200 1500 l 1,8,-1
 400 1500 l 1,9,-1
 400 200 l 1,10,-1
 800 200 l 1,11,-1
 800 1500 l 1,0,-1
EndSplineSet
EndChar

StartChar: V
Encoding: 86 86 57
Width: 1200
GlyphClass: 2
Flags: W
LayerCount: 2
Fore
SplineSet
800 1500 m 1,0,-1
 1000 1500 l 1,1,-1
 1000 300 l 1,2,-1
 700 0 l 1,3,-1
 500 0 l 1,4,-1
 200 300 l 1,5,-1
 200 1500 l 1,6,-1
 400 1500 l 1,7,-1
 400 400 l 1,8,-1
 600 200 l 1,9,-1
 800 400 l 1,10,-1
 800 1500 l 1,0,-1
EndSplineSet
EndChar

StartChar: W
Encoding: 87 87 58
Width: 1600
GlyphClass: 2
Flags: W
LayerCount: 2
Fore
SplineSet
700 1500 m 1,0,-1
 900 1500 l 1,1,-1
 900 200 l 1,2,-1
 1200 200 l 1,3,-1
 1200 1500 l 1,4,-1
 1400 1500 l 1,5,-1
 1400 200 l 2,6,7
 1400 0 1400 0 1200 0 c 2,8,-1
 900 0 l 1,9,-1
 800 100 l 1,10,-1
 700 0 l 1,11,-1
 400 0 l 2,12,13
 200 0 200 0 200 200 c 2,14,-1
 200 1500 l 1,15,-1
 400 1500 l 1,16,-1
 400 200 l 1,17,-1
 700 200 l 1,18,-1
 700 1500 l 1,0,-1
EndSplineSet
EndChar

StartChar: X
Encoding: 88 88 59
Width: 1200
GlyphClass: 2
Flags: W
LayerCount: 2
Fore
SplineSet
200 1500 m 1,0,-1
 400 1500 l 1,1,-1
 400 1050 l 1,2,-1
 600 850 l 1,3,-1
 800 1050 l 1,4,-1
 800 1500 l 1,5,-1
 1000 1500 l 1,6,-1
 1000 950 l 1,7,-1
 800 750 l 1,8,-1
 1000 550 l 1,9,-1
 1000 0 l 1,10,-1
 800 0 l 1,11,-1
 800 450 l 1,12,-1
 600 650 l 1,13,-1
 400 450 l 1,14,-1
 400 0 l 1,15,-1
 200 0 l 1,16,-1
 200 550 l 1,17,-1
 400 750 l 1,18,-1
 200 950 l 1,19,-1
 200 1500 l 1,0,-1
EndSplineSet
EndChar

StartChar: Y
Encoding: 89 89 60
Width: 1200
GlyphClass: 2
Flags: W
LayerCount: 2
Fore
SplineSet
200 1500 m 1,0,-1
 400 1500 l 1,1,-1
 400 1150 l 1,2,-1
 600 950 l 1,3,-1
 800 1150 l 1,4,-1
 800 1500 l 1,5,-1
 1000 1500 l 1,6,-1
 1000 1050 l 1,7,-1
 700 750 l 1,8,-1
 700 0 l 1,9,-1
 500 0 l 1,10,-1
 500 750 l 1,11,-1
 200 1050 l 1,12,-1
 200 1500 l 1,0,-1
EndSplineSet
EndChar

StartChar: Z
Encoding: 90 90 61
Width: 1200
GlyphClass: 2
Flags: W
LayerCount: 2
Fore
SplineSet
200 1500 m 1,0,-1
 900 1500 l 2,1,2
 1000 1500 1000 1500 1000 1400 c 2,3,-1
 1000 1300 l 1,4,-1
 450 200 l 1,5,-1
 1000 200 l 1,6,-1
 1000 0 l 1,7,-1
 300 0 l 2,8,9
 200 0 200 0 200 100 c 2,10,-1
 200 200 l 1,11,-1
 750 1300 l 1,12,-1
 200 1300 l 1,13,-1
 200 1500 l 1,0,-1
EndSplineSet
EndChar

StartChar: bracketleft
Encoding: 91 91 62
Width: 800
GlyphClass: 2
Flags: W
LayerCount: 2
Fore
SplineSet
200 1500 m 1,0,-1
 600 1500 l 1,1,-1
 600 1300 l 1,2,-1
 400 1300 l 1,3,-1
 400 200 l 1,4,-1
 600 200 l 1,5,-1
 600 0 l 1,6,-1
 200 0 l 1,7,-1
 200 1500 l 1,0,-1
EndSplineSet
EndChar

StartChar: backslash
Encoding: 92 92 63
Width: 1000
GlyphClass: 2
Flags: W
LayerCount: 2
Fore
SplineSet
800 0 m 1,0,-1
 600 0 l 1,1,-1
 200 1500 l 1,2,-1
 400 1500 l 1,3,-1
 800 0 l 1,0,-1
EndSplineSet
EndChar

StartChar: bracketright
Encoding: 93 93 64
Width: 800
GlyphClass: 2
Flags: W
LayerCount: 2
Fore
SplineSet
600 0 m 1,0,-1
 200 0 l 1,1,-1
 200 200 l 1,2,-1
 400 200 l 1,3,-1
 400 1300 l 1,4,-1
 200 1300 l 1,5,-1
 200 1500 l 1,6,-1
 600 1500 l 1,7,-1
 600 0 l 1,0,-1
EndSplineSet
EndChar

StartChar: asciicircum
Encoding: 94 94 65
Width: 1000
GlyphClass: 2
Flags: W
LayerCount: 2
Fore
SplineSet
400 1500 m 1,0,-1
 600 1500 l 1,1,-1
 800 1200 l 1,2,-1
 600 1200 l 1,3,-1
 500 1350 l 1,4,-1
 400 1200 l 1,5,-1
 200 1200 l 1,6,-1
 400 1500 l 1,0,-1
EndSplineSet
EndChar

StartChar: underscore
Encoding: 95 95 66
Width: 1600
GlyphClass: 2
Flags: W
LayerCount: 2
Fore
SplineSet
1400 0 m 1,0,-1
 1400 -200 l 1,1,-1
 200 -200 l 1,2,-1
 200 0 l 1,3,-1
 1400 0 l 1,0,-1
EndSplineSet
EndChar

StartChar: grave
Encoding: 96 96 67
Width: 800
GlyphClass: 2
Flags: W
LayerCount: 2
Fore
SplineSet
200 1500 m 1,0,-1
 400 1500 l 1,1,-1
 600 1200 l 1,2,-1
 400 1200 l 1,3,-1
 200 1500 l 1,0,-1
EndSplineSet
EndChar

StartChar: a
Encoding: 97 97 68
Width: 1200
GlyphClass: 2
Flags: W
LayerCount: 2
Fore
SplineSet
1000 0 m 1,0,-1
 400 0 l 2,1,2
 200 0 200 0 200 200 c 2,3,-1
 200 400 l 2,4,5
 200 600 200 600 400 600 c 2,6,-1
 800 600 l 1,7,-1
 800 800 l 1,8,-1
 200 800 l 1,9,-1
 200 1000 l 1,10,-1
 800 1000 l 2,11,12
 1000 1000 1000 1000 1000 800 c 2,13,-1
 1000 0 l 1,0,-1
400 200 m 1,14,-1
 800 200 l 1,15,-1
 800 400 l 1,16,-1
 400 400 l 1,17,-1
 400 200 l 1,14,-1
EndSplineSet
EndChar

StartChar: b
Encoding: 98 98 69
Width: 1200
GlyphClass: 2
Flags: W
LayerCount: 2
Fore
SplineSet
200 1500 m 1,0,-1
 400 1500 l 1,1,-1
 400 1000 l 1,2,-1
 800 1000 l 2,3,4
 1000 1000 1000 1000 1000 800 c 2,5,-1
 1000 250 l 2,6,7
 1000 0 1000 0 800 0 c 2,8,-1
 400 0 l 2,9,10
 200 0 200 0 200 200 c 2,11,-1
 200 1500 l 1,0,-1
800 800 m 1,12,-1
 400 800 l 1,13,-1
 400 200 l 1,14,-1
 800 200 l 1,15,-1
 800 800 l 1,12,-1
EndSplineSet
EndChar

StartChar: c
Encoding: 99 99 70
Width: 1200
GlyphClass: 2
Flags: W
LayerCount: 2
Fore
SplineSet
800 0 m 2,1,-1
 400 0 l 2,2,3
 200 0 200 0 200 200 c 2,4,-1
 200 800 l 2,5,6
 200 1000 200 1000 400 1000 c 2,7,-1
 800 1000 l 2,8,9
 1000 1000 1000 1000 1000 800 c 2,10,-1
 1000 600 l 1,11,-1
 800 600 l 1,12,-1
 800 800 l 1,13,-1
 400 800 l 1,14,-1
 400 200 l 1,15,-1
 800 200 l 1,16,-1
 800 400 l 1,17,-1
 1000 400 l 1,18,-1
 1000 200 l 2,19,0
 1000 0 1000 0 800 0 c 2,1,-1
EndSplineSet
EndChar

StartChar: d
Encoding: 100 100 71
Width: 1200
GlyphClass: 2
Flags: W
LayerCount: 2
Fore
SplineSet
1000 200 m 2,0,1
 1000 0 1000 0 800 0 c 2,2,-1
 400 0 l 2,3,4
 200 0 200 0 200 250 c 2,5,-1
 200 800 l 2,6,7
 200 1000 200 1000 400 1000 c 2,8,-1
 800 1000 l 1,9,-1
 800 1500 l 1,10,-1
 1000 1500 l 1,11,-1
 1000 200 l 2,0,1
400 200 m 1,12,-1
 800 200 l 1,13,-1
 800 800 l 1,14,-1
 400 800 l 1,15,-1
 400 200 l 1,12,-1
EndSplineSet
EndChar

StartChar: e
Encoding: 101 101 72
Width: 1200
GlyphClass: 2
Flags: W
LayerCount: 2
Fore
SplineSet
400 1000 m 2,1,-1
 800 1000 l 2,2,3
 1000 1000 1000 1000 1000 800 c 2,4,-1
 1000 600 l 2,5,6
 1000 400 1000 400 800 400 c 2,7,-1
 400 400 l 1,8,-1
 400 200 l 1,9,-1
 1000 200 l 1,10,-1
 1000 0 l 1,11,-1
 400 0 l 2,12,13
 200 0 200 0 200 200 c 2,14,-1
 200 800 l 2,15,0
 200 1000 200 1000 400 1000 c 2,1,-1
800 800 m 1,16,-1
 400 800 l 1,17,-1
 400 600 l 1,18,-1
 800 600 l 1,19,-1
 800 800 l 1,16,-1
EndSplineSet
EndChar

StartChar: f
Encoding: 102 102 73
Width: 1200
GlyphClass: 2
Flags: W
LayerCount: 2
Fore
SplineSet
1000 1500 m 1,0,-1
 1000 1300 l 1,1,-1
 600 1300 l 1,2,-1
 600 1050 l 1,3,-1
 800 1050 l 1,4,-1
 800 850 l 1,5,-1
 600 850 l 1,6,-1
 600 0 l 1,7,-1
 400 0 l 1,8,-1
 400 850 l 1,9,-1
 200 850 l 1,10,-1
 200 1050 l 1,11,-1
 400 1050 l 1,12,-1
 400 1300 l 2,13,14
 400 1500 400 1500 600 1500 c 2,15,-1
 1000 1500 l 1,0,-1
EndSplineSet
EndChar

StartChar: g
Encoding: 103 103 74
Width: 1200
GlyphClass: 2
Flags: W
LayerCount: 2
Fore
SplineSet
800 -400 m 2,1,-1
 200 -400 l 1,2,-1
 200 -200 l 1,3,-1
 800 -200 l 1,4,-1
 800 0 l 1,5,-1
 400 0 l 2,6,7
 200 0 200 0 200 200 c 2,8,-1
 200 750 l 2,9,10
 200 1000 200 1000 400 1000 c 2,11,-1
 800 1000 l 2,12,13
 1000 1000 1000 1000 1000 800 c 2,14,-1
 1000 -200 l 2,15,0
 1000 -400 1000 -400 800 -400 c 2,1,-1
400 200 m 1,16,-1
 800 200 l 1,17,-1
 800 800 l 1,18,-1
 400 800 l 1,19,-1
 400 200 l 1,16,-1
EndSplineSet
EndChar

StartChar: h
Encoding: 104 104 75
Width: 1200
GlyphClass: 2
Flags: W
LayerCount: 2
Fore
SplineSet
200 1500 m 1,0,-1
 400 1500 l 1,1,-1
 400 1000 l 1,2,-1
 800 1000 l 2,3,4
 1000 1000 1000 1000 1000 800 c 2,5,-1
 1000 0 l 1,6,-1
 800 0 l 1,7,-1
 800 800 l 1,8,-1
 400 800 l 1,9,-1
 400 0 l 1,10,-1
 200 0 l 1,11,-1
 200 1500 l 1,0,-1
EndSplineSet
EndChar

StartChar: i
Encoding: 105 105 76
Width: 600
GlyphClass: 2
Flags: W
LayerCount: 2
Fore
SplineSet
200 1000 m 1,0,-1
 400 1000 l 1,1,-1
 400 0 l 1,2,-1
 200 0 l 1,3,-1
 200 1000 l 1,0,-1
200 1100 m 1,4,-1
 200 1300 l 1,5,-1
 400 1300 l 1,6,-1
 400 1100 l 1,7,-1
 200 1100 l 1,4,-1
EndSplineSet
EndChar

StartChar: j
Encoding: 106 106 77
Width: 1000
GlyphClass: 2
Flags: W
LayerCount: 2
Fore
SplineSet
600 1000 m 1,0,-1
 800 1000 l 1,1,-1
 800 -200 l 2,2,3
 800 -400 800 -400 600 -400 c 2,4,-1
 200 -400 l 1,5,-1
 200 -200 l 1,6,-1
 600 -200 l 1,7,-1
 600 1000 l 1,0,-1
600 1100 m 1,8,-1
 600 1300 l 1,9,-1
 800 1300 l 1,10,-1
 800 1100 l 1,11,-1
 600 1100 l 1,8,-1
EndSplineSet
EndChar

StartChar: k
Encoding: 107 107 78
Width: 1200
GlyphClass: 2
Flags: W
LayerCount: 2
Fore
SplineSet
200 1500 m 1,0,-1
 400 1500 l 1,1,-1
 400 600 l 1,2,-1
 600 600 l 1,3,-1
 800 800 l 1,4,-1
 800 1000 l 1,5,-1
 1000 1000 l 1,6,-1
 1000 700 l 1,7,-1
 800 500 l 1,8,-1
 1000 300 l 1,9,-1
 1000 0 l 1,10,-1
 800 0 l 1,11,-1
 800 200 l 1,12,-1
 600 400 l 1,13,-1
 400 400 l 1,14,-1
 400 0 l 1,15,-1
 200 0 l 1,16,-1
 200 1500 l 1,0,-1
EndSplineSet
EndChar

StartChar: l
Encoding: 108 108 79
Width: 600
GlyphClass: 2
Flags: W
LayerCount: 2
Fore
SplineSet
200 1500 m 1,0,-1
 400 1500 l 1,1,-1
 400 0 l 1,2,-1
 200 0 l 1,3,-1
 200 1500 l 1,0,-1
EndSplineSet
EndChar

StartChar: m
Encoding: 109 109 80
Width: 1600
GlyphClass: 2
Flags: W
LayerCount: 2
Fore
SplineSet
700 800 m 1,0,-1
 400 800 l 1,1,-1
 400 0 l 1,2,-1
 200 0 l 1,3,-1
 200 800 l 2,4,5
 200 1000 200 1000 400 1000 c 2,6,-1
 700 1000 l 1,7,-1
 800 900 l 1,8,-1
 900 1000 l 1,9,-1
 1200 1000 l 2,10,11
 1400 1000 1400 1000 1400 800 c 2,12,-1
 1400 0 l 1,13,-1
 1200 0 l 1,14,-1
 1200 800 l 1,15,-1
 900 800 l 1,16,-1
 900 0 l 1,17,-1
 700 0 l 1,18,-1
 700 800 l 1,0,-1
EndSplineSet
EndChar

StartChar: n
Encoding: 110 110 81
Width: 1200
GlyphClass: 2
Flags: W
LayerCount: 2
Fore
SplineSet
800 800 m 1,0,-1
 400 800 l 1,1,-1
 400 0 l 1,2,-1
 200 0 l 1,3,-1
 200 800 l 2,4,5
 200 1000 200 1000 400 1000 c 2,6,-1
 800 1000 l 2,7,8
 1000 1000 1000 1000 1000 800 c 2,9,-1
 1000 0 l 1,10,-1
 800 0 l 1,11,-1
 800 800 l 1,0,-1
EndSplineSet
EndChar

StartChar: o
Encoding: 111 111 82
Width: 1200
GlyphClass: 2
Flags: W
LayerCount: 2
Fore
SplineSet
800 0 m 2,1,-1
 400 0 l 2,2,3
 200 0 200 0 200 200 c 2,4,-1
 200 800 l 2,5,6
 200 1000 200 1000 400 1000 c 2,7,-1
 800 1000 l 2,8,9
 1000 1000 1000 1000 1000 800 c 2,10,-1
 1000 200 l 2,11,0
 1000 0 1000 0 800 0 c 2,1,-1
800 200 m 1,12,-1
 800 800 l 1,13,-1
 400 800 l 1,14,-1
 400 200 l 1,15,-1
 800 200 l 1,12,-1
EndSplineSet
EndChar

StartChar: p
Encoding: 112 112 83
Width: 1200
GlyphClass: 2
Flags: W
LayerCount: 2
Fore
SplineSet
200 800 m 2,0,1
 200 1000 200 1000 400 1000 c 2,2,-1
 800 1000 l 2,3,4
 1000 1000 1000 1000 1000 750 c 2,5,-1
 1000 200 l 2,6,7
 1000 0 1000 0 800 0 c 2,8,-1
 400 0 l 1,9,-1
 400 -400 l 1,10,-1
 200 -400 l 1,11,-1
 200 800 l 2,0,1
800 800 m 1,12,-1
 400 800 l 1,13,-1
 400 200 l 1,14,-1
 800 200 l 1,15,-1
 800 800 l 1,12,-1
EndSplineSet
EndChar

StartChar: q
Encoding: 113 113 84
Width: 1400
GlyphClass: 2
Flags: W
LayerCount: 2
Fore
SplineSet
1200 -400 m 1,0,-1
 1000 -400 l 2,1,2
 800 -400 800 -400 800 -200 c 2,3,-1
 800 0 l 1,4,-1
 400 0 l 2,5,6
 200 0 200 0 200 200 c 2,7,-1
 200 750 l 2,8,9
 200 1000 200 1000 400 1000 c 2,10,-1
 800 1000 l 2,11,12
 1000 1000 1000 1000 1000 800 c 2,13,-1
 1000 -200 l 1,14,-1
 1200 -200 l 1,15,-1
 1200 -400 l 1,0,-1
400 200 m 1,16,-1
 800 200 l 1,17,-1
 800 800 l 1,18,-1
 400 800 l 1,19,-1
 400 200 l 1,16,-1
EndSplineSet
EndChar

StartChar: r
Encoding: 114 114 85
Width: 1000
GlyphClass: 2
Flags: W
LayerCount: 2
Fore
SplineSet
400 1000 m 2,1,-1
 800 1000 l 1,2,-1
 800 800 l 1,3,-1
 400 800 l 1,4,-1
 400 0 l 1,5,-1
 200 0 l 1,6,-1
 200 800 l 2,7,0
 200 1000 200 1000 400 1000 c 2,1,-1
EndSplineSet
EndChar

StartChar: s
Encoding: 115 115 86
Width: 1200
GlyphClass: 2
Flags: W
LayerCount: 2
Fore
SplineSet
200 300 m 1,0,-1
 400 300 l 1,1,-1
 400 200 l 1,2,-1
 800 200 l 1,3,-1
 800 400 l 1,4,-1
 400 400 l 2,5,6
 200 400 200 400 200 605 c 2,7,-1
 200 810 l 2,8,9
 200 1000 200 1000 400 1000 c 2,10,-1
 800 1000 l 2,11,12
 1000 1000 1000 1000 1000 850 c 2,13,-1
 1000 700 l 1,14,-1
 800 700 l 1,15,-1
 800 800 l 1,16,-1
 400 800 l 1,17,-1
 400 600 l 1,18,-1
 800 600 l 2,19,20
 1000 600 1000 600 1000 400 c 2,21,-1
 1000 200 l 2,22,23
 1000 0 1000 0 800 0 c 2,24,-1
 400 0 l 2,25,26
 200 0 200 0 200 200 c 2,27,-1
 200 300 l 1,0,-1
EndSplineSet
EndChar

StartChar: t
Encoding: 116 116 87
Width: 1200
GlyphClass: 2
Flags: W
LayerCount: 2
Fore
SplineSet
600 0 m 2,0,1
 400 0 400 0 400 200 c 2,2,-1
 400 850 l 1,3,-1
 200 850 l 1,4,-1
 200 1050 l 1,5,-1
 400 1050 l 1,6,-1
 400 1500 l 1,7,-1
 600 1500 l 1,8,-1
 600 1050 l 1,9,-1
 800 1050 l 1,10,-1
 800 850 l 1,11,-1
 600 850 l 1,12,-1
 600 200 l 1,13,-1
 1000 200 l 1,14,-1
 1000 0 l 1,15,-1
 600 0 l 2,0,1
EndSplineSet
EndChar

StartChar: u
Encoding: 117 117 88
Width: 1200
GlyphClass: 2
Flags: W
LayerCount: 2
Fore
SplineSet
800 1000 m 1,0,-1
 1000 1000 l 1,1,-1
 1000 200 l 2,2,3
 1000 0 1000 0 800 0 c 2,4,-1
 400 0 l 2,5,6
 200 0 200 0 200 200 c 2,7,-1
 200 1000 l 1,8,-1
 400 1000 l 1,9,-1
 400 200 l 1,10,-1
 800 200 l 1,11,-1
 800 1000 l 1,0,-1
EndSplineSet
EndChar

StartChar: v
Encoding: 118 118 89
Width: 1200
GlyphClass: 2
Flags: W
LayerCount: 2
Fore
SplineSet
800 1000 m 1,0,-1
 1000 1000 l 1,1,-1
 1000 300 l 1,2,-1
 700 0 l 1,3,-1
 500 0 l 1,4,-1
 200 300 l 1,5,-1
 200 1000 l 1,6,-1
 400 1000 l 1,7,-1
 400 400 l 1,8,-1
 600 200 l 1,9,-1
 800 400 l 1,10,-1
 800 1000 l 1,0,-1
EndSplineSet
EndChar

StartChar: w
Encoding: 119 119 90
Width: 1600
GlyphClass: 2
Flags: W
LayerCount: 2
Fore
SplineSet
700 1000 m 1,0,-1
 900 1000 l 1,1,-1
 900 200 l 1,2,-1
 1200 200 l 1,3,-1
 1200 1000 l 1,4,-1
 1400 1000 l 1,5,-1
 1400 200 l 2,6,7
 1400 0 1400 0 1200 0 c 2,8,-1
 900 0 l 1,9,-1
 800 100 l 1,10,-1
 700 0 l 1,11,-1
 400 0 l 2,12,13
 200 0 200 0 200 200 c 2,14,-1
 200 1000 l 1,15,-1
 400 1000 l 1,16,-1
 400 200 l 1,17,-1
 700 200 l 1,18,-1
 700 1000 l 1,0,-1
EndSplineSet
EndChar

StartChar: x
Encoding: 120 120 91
Width: 1200
GlyphClass: 2
Flags: W
LayerCount: 2
Fore
SplineSet
200 1000 m 1,0,-1
 400 1000 l 1,1,-1
 400 800 l 1,2,-1
 600 600 l 1,3,-1
 800 800 l 1,4,-1
 800 1000 l 1,5,-1
 1000 1000 l 1,6,-1
 1000 700 l 1,7,-1
 800 500 l 1,8,-1
 1000 300 l 1,9,-1
 1000 0 l 1,10,-1
 800 0 l 1,11,-1
 800 200 l 1,12,-1
 600 400 l 1,13,-1
 400 200 l 1,14,-1
 400 0 l 1,15,-1
 200 0 l 1,16,-1
 200 300 l 1,17,-1
 400 500 l 1,18,-1
 200 700 l 1,19,-1
 200 1000 l 1,0,-1
EndSplineSet
EndChar

StartChar: y
Encoding: 121 121 92
Width: 1200
GlyphClass: 2
Flags: W
LayerCount: 2
Fore
SplineSet
200 1000 m 1,0,-1
 400 1000 l 1,1,-1
 400 200 l 1,2,-1
 800 200 l 1,3,-1
 800 1000 l 1,4,-1
 1000 1000 l 1,5,-1
 1000 -200 l 2,6,7
 1000 -400 1000 -400 800 -400 c 2,8,-1
 200 -400 l 1,9,-1
 200 -200 l 1,10,-1
 800 -200 l 1,11,-1
 800 0 l 1,12,-1
 400 0 l 2,13,14
 200 0 200 0 200 200 c 2,15,-1
 200 1000 l 1,0,-1
EndSplineSet
EndChar

StartChar: z
Encoding: 122 122 93
Width: 1200
GlyphClass: 2
Flags: W
LayerCount: 2
Fore
SplineSet
200 1000 m 1,0,-1
 900 1000 l 2,1,2
 1000 1000 1000 1000 1000 900 c 2,3,-1
 1000 800 l 1,4,-1
 500 200 l 1,5,-1
 1000 200 l 1,6,-1
 1000 0 l 1,7,-1
 300 0 l 2,8,9
 200 0 200 0 200 100 c 2,10,-1
 200 200 l 1,11,-1
 700 800 l 1,12,-1
 200 800 l 1,13,-1
 200 1000 l 1,0,-1
EndSplineSet
EndChar

StartChar: braceleft
Encoding: 123 123 94
Width: 900
GlyphClass: 2
Flags: W
LayerCount: 2
Fore
SplineSet
500 1500 m 2,0,-1
 700 1500 l 1,1,-1
 700 1300 l 1,2,-1
 500 1300 l 1,3,-1
 500 850 l 1,4,-1
 400 750 l 1,5,-1
 500 650 l 1,6,-1
 500 200 l 1,7,-1
 700 200 l 1,8,-1
 700 0 l 1,9,-1
 500 0 l 2,10,11
 300 0 300 0 300 200 c 2,12,-1
 300 650 l 1,13,-1
 200 750 l 1,14,-1
 300 850 l 1,15,-1
 300 1300 l 2,16,17
 300 1500 300 1500 500 1500 c 2,0,-1
EndSplineSet
EndChar

StartChar: bar
Encoding: 124 124 95
Width: 600
GlyphClass: 2
Flags: W
LayerCount: 2
Fore
SplineSet
200 1500 m 1,0,-1
 400 1500 l 1,1,-1
 400 0 l 1,2,-1
 200 0 l 1,3,-1
 200 1500 l 1,0,-1
EndSplineSet
EndChar

StartChar: braceright
Encoding: 125 125 96
Width: 900
GlyphClass: 2
Flags: W
LayerCount: 2
Fore
SplineSet
600 1300 m 2,1,-1
 600 850 l 1,2,-1
 700 750 l 1,3,-1
 600 650 l 1,4,-1
 600 200 l 2,5,6
 600 0 600 0 400 0 c 2,7,-1
 200 0 l 1,8,-1
 200 200 l 1,9,-1
 400 200 l 1,10,-1
 400 650 l 1,11,-1
 500 750 l 1,12,-1
 400 850 l 1,13,-1
 400 1300 l 1,14,-1
 200 1300 l 1,15,-1
 200 1500 l 1,16,-1
 400 1500 l 2,17,0
 600 1500 600 1500 600 1300 c 2,1,-1
EndSplineSet
EndChar

StartChar: asciitilde
Encoding: 126 126 97
Width: 1200
GlyphClass: 2
Flags: W
LayerCount: 2
Fore
SplineSet
1000 900 m 1,0,-1
 950 750 l 2,1,2
 900 600 900 600 800 600 c 256,3,4
 700 600 700 600 575 675 c 2,5,-1
 450 750 l 1,6,-1
 400 600 l 1,7,-1
 200 600 l 1,8,-1
 250 750 l 2,9,10
 300 900 300 900 400 900 c 256,11,12
 500 900 500 900 625 825 c 2,13,-1
 750 750 l 1,14,-1
 800 900 l 1,15,-1
 1000 900 l 1,0,-1
EndSplineSet
EndChar

StartChar: uni0FD5
Encoding: 4053 4053 99
Width: 1800
GlyphClass: 2
Flags: W
LayerCount: 2
Fore
SplineSet
1000 700 m 1,0,-1
 1000 100 l 1,1,-1
 200 100 l 1,2,-1
 200 300 l 1,3,-1
 800 300 l 1,4,-1
 800 700 l 1,5,-1
 200 700 l 1,6,-1
 200 1500 l 1,7,-1
 400 1500 l 1,8,-1
 400 900 l 1,9,-1
 800 900 l 1,10,-1
 800 1500 l 1,11,-1
 1600 1500 l 1,12,-1
 1600 1300 l 1,13,-1
 1000 1300 l 1,14,-1
 1000 900 l 1,15,-1
 1600 900 l 1,16,-1
 1600 100 l 1,17,-1
 1400 100 l 1,18,-1
 1400 700 l 1,19,-1
 1000 700 l 1,0,-1
EndSplineSet
EndChar

StartChar: uni0FD6
Encoding: 4054 4054 100
Width: 1800
GlyphClass: 2
Flags: W
LayerCount: 2
Fore
SplineSet
800 700 m 1,0,-1
 400 700 l 1,1,-1
 400 100 l 1,2,-1
 200 100 l 1,3,-1
 200 900 l 1,4,-1
 800 900 l 1,5,-1
 800 1300 l 1,6,-1
 200 1300 l 1,7,-1
 200 1500 l 1,8,-1
 1000 1500 l 1,9,-1
 1000 900 l 1,10,-1
 1400 900 l 1,11,-1
 1400 1500 l 1,12,-1
 1600 1500 l 1,13,-1
 1600 700 l 1,14,-1
 1000 700 l 1,15,-1
 1000 300 l 1,16,-1
 1600 300 l 1,17,-1
 1600 100 l 1,18,-1
 800 100 l 1,19,-1
 800 700 l 1,0,-1
EndSplineSet
EndChar

StartChar: uni0FD7
Encoding: 4055 4055 101
Width: 1800
GlyphClass: 2
Flags: W
LayerCount: 2
Fore
SplineSet
1000 700 m 1,0,-1
 1000 100 l 1,1,-1
 200 100 l 1,2,-1
 200 300 l 1,3,-1
 800 300 l 1,4,-1
 800 700 l 1,5,-1
 200 700 l 1,6,-1
 200 1500 l 1,7,-1
 400 1500 l 1,8,-1
 400 900 l 1,9,-1
 800 900 l 1,10,-1
 800 1500 l 1,11,-1
 1600 1500 l 1,12,-1
 1600 1300 l 1,13,-1
 1000 1300 l 1,14,-1
 1000 900 l 1,15,-1
 1600 900 l 1,16,-1
 1600 100 l 1,17,-1
 1400 100 l 1,18,-1
 1400 700 l 1,19,-1
 1000 700 l 1,0,-1
1300 400 m 1,20,-1
 1100 400 l 1,21,-1
 1100 600 l 1,22,-1
 1300 600 l 1,23,-1
 1300 400 l 1,20,-1
1300 1000 m 1,24,-1
 1100 1000 l 1,25,-1
 1100 1200 l 1,26,-1
 1300 1200 l 1,27,-1
 1300 1000 l 1,24,-1
700 1000 m 1,28,-1
 500 1000 l 1,29,-1
 500 1200 l 1,30,-1
 700 1200 l 1,31,-1
 700 1000 l 1,28,-1
700 400 m 1,32,-1
 500 400 l 1,33,-1
 500 600 l 1,34,-1
 700 600 l 1,35,-1
 700 400 l 1,32,-1
EndSplineSet
EndChar

StartChar: uni0FD8
Encoding: 4056 4056 102
Width: 1800
GlyphClass: 2
Flags: W
LayerCount: 2
Fore
SplineSet
800 700 m 1,0,-1
 400 700 l 1,1,-1
 400 100 l 1,2,-1
 200 100 l 1,3,-1
 200 900 l 1,4,-1
 800 900 l 1,5,-1
 800 1300 l 1,6,-1
 200 1300 l 1,7,-1
 200 1500 l 1,8,-1
 1000 1500 l 1,9,-1
 1000 900 l 1,10,-1
 1400 900 l 1,11,-1
 1400 1500 l 1,12,-1
 1600 1500 l 1,13,-1
 1600 700 l 1,14,-1
 1000 700 l 1,15,-1
 1000 300 l 1,16,-1
 1600 300 l 1,17,-1
 1600 100 l 1,18,-1
 800 100 l 1,19,-1
 800 700 l 1,0,-1
1300 400 m 1,20,-1
 1100 400 l 1,21,-1
 1100 600 l 1,22,-1
 1300 600 l 1,23,-1
 1300 400 l 1,20,-1
1300 1000 m 1,24,-1
 1100 1000 l 1,25,-1
 1100 1200 l 1,26,-1
 1300 1200 l 1,27,-1
 1300 1000 l 1,24,-1
700 1000 m 1,28,-1
 500 1000 l 1,29,-1
 500 1200 l 1,30,-1
 700 1200 l 1,31,-1
 700 1000 l 1,28,-1
700 400 m 1,32,-1
 500 400 l 1,33,-1
 500 600 l 1,34,-1
 700 600 l 1,35,-1
 700 400 l 1,32,-1
EndSplineSet
EndChar

StartChar: uni0FD9
Encoding: 4057 4057 103
Width: 1800
GlyphClass: 2
Flags: W
LayerCount: 2
Fore
SplineSet
200 1550 m 1,0,-1
 300 1450 l 1,1,-1
 200 1350 l 1,2,-1
 100 1450 l 1,3,-1
 200 1550 l 1,0,-1
400 1350 m 1,4,-1
 500 1250 l 1,5,-1
 400 1150 l 1,6,-1
 300 1250 l 1,7,-1
 400 1350 l 1,4,-1
600 1150 m 1,8,-1
 700 1050 l 1,9,-1
 600 950 l 1,10,-1
 500 1050 l 1,11,-1
 600 1150 l 1,8,-1
800 950 m 1,12,-1
 900 850 l 1,13,-1
 800 750 l 1,14,-1
 700 850 l 1,15,-1
 800 950 l 1,12,-1
1000 750 m 1,16,-1
 1100 650 l 1,17,-1
 1000 550 l 1,18,-1
 900 650 l 1,19,-1
 1000 750 l 1,16,-1
1200 550 m 1,20,-1
 1300 450 l 1,21,-1
 1200 350 l 1,22,-1
 1100 450 l 1,23,-1
 1200 550 l 1,20,-1
1400 350 m 1,24,-1
 1500 250 l 1,25,-1
 1400 150 l 1,26,-1
 1300 250 l 1,27,-1
 1400 350 l 1,24,-1
1600 150 m 1,28,-1
 1700 50 l 1,29,-1
 1600 -50 l 1,30,-1
 1500 50 l 1,31,-1
 1600 150 l 1,28,-1
EndSplineSet
EndChar

StartChar: uni0FDA
Encoding: 4058 4058 104
Width: 1800
GlyphClass: 2
Flags: W
LayerCount: 2
Fore
SplineSet
1600 1550 m 1,0,-1
 1700 1450 l 1,1,-1
 1600 1350 l 1,2,-1
 1500 1450 l 1,3,-1
 1600 1550 l 1,0,-1
1400 1350 m 1,4,-1
 1500 1250 l 1,5,-1
 1400 1150 l 1,6,-1
 1300 1250 l 1,7,-1
 1400 1350 l 1,4,-1
1200 1150 m 1,8,-1
 1300 1050 l 1,9,-1
 1200 950 l 1,10,-1
 1100 1050 l 1,11,-1
 1200 1150 l 1,8,-1
1000 950 m 1,12,-1
 1100 850 l 1,13,-1
 1000 750 l 1,14,-1
 900 850 l 1,15,-1
 1000 950 l 1,12,-1
800 750 m 1,16,-1
 900 650 l 1,17,-1
 800 550 l 1,18,-1
 700 650 l 1,19,-1
 800 750 l 1,16,-1
600 550 m 1,20,-1
 700 450 l 1,21,-1
 600 350 l 1,22,-1
 500 450 l 1,23,-1
 600 550 l 1,20,-1
400 350 m 1,24,-1
 500 250 l 1,25,-1
 400 150 l 1,26,-1
 300 250 l 1,27,-1
 400 350 l 1,24,-1
200 150 m 1,28,-1
 300 50 l 1,29,-1
 200 -50 l 1,30,-1
 100 50 l 1,31,-1
 200 150 l 1,28,-1
EndSplineSet
EndChar

StartChar: uni200D
Encoding: 8205 8205 115
Width: 1100
GlyphClass: 2
Flags: W
LayerCount: 2
Fore
SplineSet
450 979 m 1,0,-1
 200 800 l 1,1,-1
 200 1000 l 1,2,-1
 410 1150 l 1,3,-1
 200 1300 l 1,4,-1
 200 1500 l 1,5,-1
 550 1250 l 1,6,-1
 900 1500 l 1,7,-1
 900 1300 l 1,8,-1
 690 1150 l 1,9,-1
 900 1000 l 1,10,-1
 900 800 l 1,11,-1
 650 979 l 1,12,-1
 650 0 l 1,13,-1
 450 0 l 1,14,-1
 450 979 l 1,0,-1
EndSplineSet
EndChar

StartChar: uni25CC
Encoding: 9676 9676 116
Width: 1800
GlyphClass: 2
Flags: W
LayerCount: 2
Fore
SplineSet
309 925 m 1,0,-1
 225 953 l 1,1,2
 249 1049 249 1049 296 1133 c 1,3,-1
 372 1086 l 1,4,5
 330 1011 330 1011 309 925 c 1,0,-1
471 1219 m 1,6,-1
 414 1289 l 1,7,8
 483 1361 483 1361 561 1408 c 1,9,-1
 603 1326 l 1,10,11
 533 1283 533 1283 471 1219 c 1,6,-1
900 1500 m 1,13,-1
 900 1406 l 1,14,15
 817 1406 817 1406 742 1386 c 1,16,-1
 726 1478 l 1,17,12
 809 1500 809 1500 900 1500 c 1,13,-1
1058 1386 m 1,18,-1
 1074 1478 l 1,19,20
 1161 1455 1161 1455 1239 1408 c 1,21,-1
 1198 1326 l 1,22,23
 1132 1365 1132 1365 1058 1386 c 1,18,-1
1329 1219 m 1,24,-1
 1387 1289 l 1,25,26
 1391 1285 1391 1285 1395 1281 c 0,27,28
 1459 1211 1459 1211 1504 1133 c 1,29,-1
 1428 1086 l 1,30,31
 1389 1154 1389 1154 1333 1214 c 1,32,-1
 1329 1219 l 1,24,-1
1492 925 m 1,34,-1
 1576 953 l 1,35,36
 1600 857 1600 857 1600 750 c 1,37,-1
 1513 750 l 1,38,33
 1513 843 1513 843 1492 925 c 1,34,-1
1492 575 m 1,39,-1
 1576 547 l 1,40,41
 1551 451 1551 451 1504 367 c 1,42,-1
 1428 414 l 1,43,44
 1471 489 1471 489 1492 575 c 1,39,-1
1329 281 m 1,45,-1
 1387 211 l 1,46,47
 1317 139 1317 139 1239 92 c 1,48,-1
 1198 174 l 1,49,50
 1268 217 1268 217 1329 281 c 1,45,-1
900 0 m 1,52,-1
 900 94 l 1,53,54
 983 94 983 94 1058 114 c 1,55,-1
 1074 22 l 1,56,51
 991 0 991 0 900 0 c 1,52,-1
742 114 m 1,57,-1
 726 22 l 1,58,59
 639 45 639 45 561 92 c 1,60,-1
 603 174 l 1,61,62
 668 135 668 135 742 114 c 1,57,-1
471 281 m 1,63,-1
 414 211 l 1,64,65
 409 215 409 215 405 219 c 0,66,67
 341 289 341 289 296 367 c 1,68,-1
 372 414 l 1,69,70
 411 346 411 346 467 286 c 1,71,-1
 471 281 l 1,63,-1
309 575 m 1,73,-1
 225 547 l 1,74,75
 200 643 200 643 200 750 c 1,76,-1
 288 750 l 1,77,72
 288 657 288 657 309 575 c 1,73,-1
EndSplineSet
EndChar

StartChar: u11A00
Encoding: 72192 72192 117
Width: 2400
GlyphClass: 2
Flags: W
AnchorPoint: "vowel-below" 2200 0 basechar 0
AnchorPoint: "vowel-length" 2700 -350 basechar 0
LayerCount: 2
Fore
SplineSet
200 1500 m 1,0,-1
 400 1500 l 1,1,-1
 400 200 l 1,2,-1
 800 200 l 1,3,-1
 800 1500 l 1,4,-1
 1600 1500 l 1,5,-1
 1600 200 l 1,6,-1
 2000 200 l 1,7,-1
 2000 1500 l 1,8,-1
 2200 1500 l 1,9,-1
 2200 0 l 1,10,-1
 1400 0 l 1,11,-1
 1400 1300 l 1,12,-1
 1000 1300 l 1,13,-1
 1000 0 l 1,14,-1
 200 0 l 1,15,-1
 200 1500 l 1,0,-1
EndSplineSet
EndChar

StartChar: u11A01
Encoding: 72193 72193 118
Width: 0
GlyphClass: 4
Flags: W
AnchorPoint: "above" -200 1400 mark 0
AnchorPoint: "above-mkmk" -200 1400 mark 0
LayerCount: 2
Fore
SplineSet
-900 2100 m 256,1,2
 -400 2100 -400 2100 -200 1500 c 1,3,4
 -600 1850 -600 1850 -900 1850 c 256,5,6
 -1200 1850 -1200 1850 -1600 1600 c 1,7,0
 -1400 2100 -1400 2100 -900 2100 c 256,1,2
EndSplineSet
Substitution2: "wide form-1" u11A01.wide
EndChar

StartChar: u11A02
Encoding: 72194 72194 119
Width: 0
GlyphClass: 4
Flags: W
AnchorPoint: "vowel-below-mkmk" -200 0 mark 0
AnchorPoint: "vowel-below" -200 0 mark 0
LayerCount: 2
Fore
SplineSet
-1600 -100 m 1,1,2
 -1200 -350 -1200 -350 -900 -350 c 256,3,4
 -600 -350 -600 -350 -200 0 c 1,5,6
 -400 -600 -400 -600 -900 -600 c 256,7,0
 -1400 -600 -1400 -600 -1600 -100 c 1,1,2
EndSplineSet
Substitution2: "wide form-1" u11A02.wide
EndChar

StartChar: u11A03
Encoding: 72195 72195 120
Width: 0
GlyphClass: 4
Flags: W
AnchorPoint: "vowel-below-mkmk" -200 0 mark 0
AnchorPoint: "vowel-below" -200 0 mark 0
LayerCount: 2
Fore
SplineSet
-1600 -500 m 1,0,-1
 -1600 -300 l 1,1,-1
 -300 -300 l 1,2,-1
 -300 0 l 1,3,-1
 -200 0 l 1,4,-1
 -200 -500 l 1,5,-1
 -1600 -500 l 1,0,-1
EndSplineSet
Substitution2: "wide form-1" u11A03.wide
EndChar

StartChar: u11A04
Encoding: 72196 72196 121
Width: 0
GlyphClass: 4
Flags: W
AnchorPoint: "above" -200 1400 mark 0
AnchorPoint: "above-mkmk" -200 1400 mark 0
LayerCount: 2
Fore
SplineSet
-1600 2000 m 1,0,-1
 -200 2000 l 1,1,-1
 -200 1400 l 1,2,-1
 -300 1400 l 1,3,-1
 -300 1800 l 1,4,-1
 -1600 1800 l 1,5,-1
 -1600 2000 l 1,0,-1
EndSplineSet
EndChar

StartChar: u11A05
Encoding: 72197 72197 122
Width: 0
GlyphClass: 4
Flags: W
AnchorPoint: "above" -200 1400 mark 0
AnchorPoint: "above-mkmk" -200 1400 mark 0
LayerCount: 2
Fore
SplineSet
-950 1800 m 1,0,-1
 -1600 1800 l 1,1,-1
 -1600 2000 l 1,2,-1
 -200 2000 l 1,3,-1
 -200 1800 l 1,4,-1
 -850 1800 l 1,5,-1
 -850 1400 l 1,6,-1
 -950 1400 l 1,7,-1
 -950 1800 l 1,0,-1
EndSplineSet
EndChar

StartChar: u11A06
Encoding: 72198 72198 123
Width: 0
GlyphClass: 4
Flags: W
AnchorPoint: "above" -200 1400 mark 0
AnchorPoint: "above-mkmk" -200 1400 mark 0
LayerCount: 2
Fore
SplineSet
-1050 1800 m 1,0,-1
 -1600 1800 l 1,1,-1
 -1600 2000 l 1,2,-1
 -1050 2000 l 1,3,-1
 -900 1700 l 1,4,-1
 -750 2000 l 1,5,-1
 -200 2000 l 1,6,-1
 -200 1800 l 1,7,-1
 -750 1800 l 1,8,-1
 -900 1500 l 1,9,-1
 -1050 1800 l 1,0,-1
EndSplineSet
EndChar

StartChar: u11A07
Encoding: 72199 72199 124
Width: 0
GlyphClass: 4
Flags: W
LayerCount: 2
Fore
SplineSet
200 2000 m 1,0,-1
 200 1800 l 1,1,-1
 -200 1800 l 1,2,-1
 -200 1400 l 1,3,-1
 -300 1400 l 1,4,-1
 -300 2000 l 1,5,-1
 200 2000 l 1,0,-1
EndSplineSet
EndChar

StartChar: u11A08
Encoding: 72200 72200 125
Width: 0
GlyphClass: 4
Flags: W
LayerCount: 2
Fore
SplineSet
-2000 2000 m 1,0,-1
 -1500 2000 l 1,1,-1
 -1500 1400 l 1,2,-1
 -1600 1400 l 1,3,-1
 -1600 1800 l 1,4,-1
 -2000 1800 l 1,5,-1
 -2000 2000 l 1,0,-1
EndSplineSet
EndChar

StartChar: u11A09
Encoding: 72201 72201 126
Width: 0
GlyphClass: 4
Flags: W
LayerCount: 2
Fore
SplineSet
-200 1600 m 1,1,2
 -600 1850 -600 1850 -900 1850 c 256,3,4
 -1200 1850 -1200 1850 -1600 1500 c 1,5,6
 -1400 2100 -1400 2100 -900 2100 c 256,7,0
 -400 2100 -400 2100 -200 1600 c 1,1,2
EndSplineSet
EndChar

StartChar: u11A0A
Encoding: 72202 72202 127
Width: 0
GlyphClass: 4
Flags: W
AnchorPoint: "vowel-length" 200 -350 mark 0
AnchorPoint: "vowel-length-sub" 200 -350 mark 0
LayerCount: 2
Fore
SplineSet
-300 200 m 1,0,-1
 200 -350 l 1,1,-1
 -500 0 l 1,2,-1
 -300 200 l 1,0,-1
EndSplineSet
EndChar

StartChar: u11A0B
Encoding: 72203 72203 128
Width: 1800
GlyphClass: 2
Flags: W
AnchorPoint: "vowel-below" 1600 0 basechar 0
AnchorPoint: "vowel-length" 2100 -350 basechar 0
LayerCount: 2
Fore
SplineSet
200 800 m 1,0,-1
 400 800 l 1,1,-1
 400 200 l 1,2,-1
 800 200 l 1,3,-1
 800 1300 l 1,4,-1
 200 1300 l 1,5,-1
 200 1500 l 1,6,-1
 1600 1500 l 1,7,-1
 1600 0 l 1,8,-1
 1400 0 l 1,9,-1
 1400 1300 l 1,10,-1
 1000 1300 l 1,11,-1
 1000 0 l 1,12,-1
 200 0 l 1,13,-1
 200 800 l 1,0,-1
EndSplineSet
Substitution2: "squished form-1" u11A0B.squished
EndChar

StartChar: u11A0C
Encoding: 72204 72204 129
Width: 1800
GlyphClass: 2
Flags: W
AnchorPoint: "vowel-below" 1600 0 basechar 0
AnchorPoint: "vowel-length" 2100 -350 basechar 0
LayerCount: 2
Fore
SplineSet
1400 1300 m 1,0,-1
 1000 1300 l 1,1,-1
 1000 200 l 1,2,-1
 1400 200 l 1,3,-1
 1400 1300 l 1,0,-1
1600 1500 m 1,4,-1
 1600 0 l 1,5,-1
 800 0 l 1,6,-1
 800 1300 l 1,7,-1
 400 1300 l 1,8,-1
 400 0 l 1,9,-1
 200 0 l 1,10,-1
 200 1500 l 1,11,-1
 1600 1500 l 1,4,-1
EndSplineSet
EndChar

StartChar: u11A0D
Encoding: 72205 72205 130
Width: 1800
GlyphClass: 2
Flags: W
AnchorPoint: "vowel-below" 1600 0 basechar 0
AnchorPoint: "vowel-length" 2100 -350 basechar 0
LayerCount: 2
Fore
SplineSet
400 1300 m 1,0,-1
 400 200 l 1,1,-1
 800 200 l 1,2,-1
 800 1300 l 1,3,-1
 400 1300 l 1,0,-1
200 1500 m 1,4,-1
 1600 1500 l 1,5,-1
 1600 0 l 1,6,-1
 1400 0 l 1,7,-1
 1400 1300 l 1,8,-1
 1000 1300 l 1,9,-1
 1000 0 l 1,10,-1
 200 0 l 1,11,-1
 200 1500 l 1,4,-1
EndSplineSet
Substitution2: "squished form-1" u11A0D.squished
EndChar

StartChar: u11A0E
Encoding: 72206 72206 131
Width: 1800
GlyphClass: 2
Flags: W
AnchorPoint: "vowel-below" 1600 0 basechar 0
AnchorPoint: "vowel-length" 2100 -350 basechar 0
LayerCount: 2
Fore
SplineSet
1000 0 m 1,0,-1
 200 0 l 1,1,-1
 200 800 l 1,2,-1
 800 800 l 1,3,-1
 800 1300 l 1,4,-1
 200 1300 l 1,5,-1
 200 1500 l 1,6,-1
 1600 1500 l 1,7,-1
 1600 0 l 1,8,-1
 1400 0 l 1,9,-1
 1400 1300 l 1,10,-1
 1000 1300 l 1,11,-1
 1000 0 l 1,0,-1
400 600 m 1,12,-1
 400 200 l 1,13,-1
 800 200 l 1,14,-1
 800 600 l 1,15,-1
 400 600 l 1,12,-1
EndSplineSet
EndChar

StartChar: u11A0F
Encoding: 72207 72207 132
Width: 1800
GlyphClass: 2
Flags: W
AnchorPoint: "vowel-below" 1600 0 basechar 0
AnchorPoint: "vowel-length" 2100 -350 basechar 0
LayerCount: 2
Fore
SplineSet
1400 850 m 1,0,-1
 1400 1300 l 1,1,-1
 200 1300 l 1,2,-1
 200 1500 l 1,3,-1
 1600 1500 l 1,4,-1
 1600 650 l 1,5,-1
 400 650 l 1,6,-1
 400 200 l 1,7,-1
 1600 200 l 1,8,-1
 1600 0 l 1,9,-1
 200 0 l 1,10,-1
 200 850 l 1,11,-1
 1400 850 l 1,0,-1
EndSplineSet
Substitution2: "squished form-1" u11A0F.squished
EndChar

StartChar: u11A10
Encoding: 72208 72208 133
Width: 1800
GlyphClass: 2
Flags: W
AnchorPoint: "vowel-below" 1600 0 basechar 0
AnchorPoint: "vowel-length" 2100 -350 basechar 0
LayerCount: 2
Fore
SplineSet
1600 1500 m 1,0,-1
 1600 0 l 1,1,-1
 200 0 l 1,2,-1
 200 200 l 1,3,-1
 800 200 l 1,4,-1
 800 1300 l 1,5,-1
 200 1300 l 1,6,-1
 200 1500 l 1,7,-1
 1600 1500 l 1,0,-1
1000 200 m 1,8,-1
 1400 200 l 1,9,-1
 1400 1300 l 1,10,-1
 1000 1300 l 1,11,-1
 1000 200 l 1,8,-1
EndSplineSet
Substitution2: "squished form-1" u11A10.squished
EndChar

StartChar: u11A11
Encoding: 72209 72209 134
Width: 1800
GlyphClass: 2
Flags: W
AnchorPoint: "vowel-below" 1600 0 basechar 0
AnchorPoint: "vowel-length" 2100 -350 basechar 0
LayerCount: 2
Fore
SplineSet
1000 200 m 1,0,-1
 1400 200 l 1,1,-1
 1400 1300 l 1,2,-1
 1000 1300 l 1,3,-1
 1000 200 l 1,0,-1
1600 1500 m 1,4,-1
 1600 0 l 1,5,-1
 200 0 l 1,6,-1
 200 1500 l 1,7,-1
 1600 1500 l 1,4,-1
400 200 m 1,8,-1
 800 200 l 1,9,-1
 800 1300 l 1,10,-1
 400 1300 l 1,11,-1
 400 200 l 1,8,-1
EndSplineSet
EndChar

StartChar: u11A12
Encoding: 72210 72210 135
Width: 1800
GlyphClass: 2
Flags: W
AnchorPoint: "vowel-below" 1600 0 basechar 0
AnchorPoint: "vowel-length" 2100 -350 basechar 0
LayerCount: 2
Fore
SplineSet
200 1500 m 1,0,-1
 1600 1500 l 1,1,-1
 1600 1300 l 1,2,-1
 400 1300 l 1,3,-1
 400 850 l 1,4,-1
 1600 850 l 1,5,-1
 1600 650 l 1,6,-1
 400 650 l 1,7,-1
 400 200 l 1,8,-1
 1600 200 l 1,9,-1
 1600 0 l 1,10,-1
 200 0 l 1,11,-1
 200 1500 l 1,0,-1
EndSplineSet
Substitution2: "squished form-1" u11A12.squished
EndChar

StartChar: u11A13
Encoding: 72211 72211 136
Width: 1800
GlyphClass: 2
Flags: W
AnchorPoint: "vowel-below" 1600 0 basechar 0
AnchorPoint: "vowel-length" 2100 -350 basechar 0
LayerCount: 2
Fore
SplineSet
1400 650 m 1,0,-1
 400 650 l 1,1,-1
 400 200 l 1,2,-1
 1000 200 l 1,3,-1
 1000 0 l 1,4,-1
 200 0 l 1,5,-1
 200 850 l 1,6,-1
 1400 850 l 1,7,-1
 1400 1300 l 1,8,-1
 200 1300 l 1,9,-1
 200 1500 l 1,10,-1
 1600 1500 l 1,11,-1
 1600 0 l 1,12,-1
 1400 0 l 1,13,-1
 1400 650 l 1,0,-1
EndSplineSet
Substitution2: "squished form-1" u11A13.squished
EndChar

StartChar: u11A14
Encoding: 72212 72212 137
Width: 1800
GlyphClass: 2
Flags: W
AnchorPoint: "vowel-below" 1600 0 basechar 0
AnchorPoint: "vowel-length" 2000 -350 basechar 0
LayerCount: 2
Fore
SplineSet
400 850 m 1,0,-1
 400 0 l 1,1,-1
 200 0 l 1,2,-1
 200 1500 l 1,3,-1
 1600 1500 l 1,4,-1
 1600 1300 l 1,5,-1
 400 1300 l 1,6,-1
 400 1050 l 1,7,-1
 1600 850 l 1,8,-1
 850 0 l 1,9,-1
 600 0 l 1,10,-1
 1200 690 l 1,11,-1
 400 850 l 1,0,-1
EndSplineSet
EndChar

StartChar: u11A15
Encoding: 72213 72213 138
Width: 1800
GlyphClass: 2
Flags: W
AnchorPoint: "vowel-below" 1600 0 basechar 0
AnchorPoint: "vowel-length" 2020 -350 basechar 0
LayerCount: 2
Fore
SplineSet
900 633 m 1,0,-1
 500 200 l 1,1,-1
 1300 200 l 1,2,-1
 900 633 l 1,0,-1
792 750 m 1,3,-1
 100 1500 l 1,4,-1
 1700 1500 l 1,5,-1
 1008 750 l 1,6,-1
 1700 0 l 1,7,-1
 100 0 l 1,8,-1
 792 750 l 1,3,-1
500 1300 m 1,9,-1
 900 867 l 1,10,-1
 1300 1300 l 1,11,-1
 500 1300 l 1,9,-1
EndSplineSet
EndChar

StartChar: u11A16
Encoding: 72214 72214 139
Width: 1800
GlyphClass: 2
Flags: W
AnchorPoint: "vowel-below" 1600 0 basechar 0
AnchorPoint: "vowel-length" 1950 -350 basechar 0
LayerCount: 2
Fore
SplineSet
650 1300 m 1,0,-1
 1600 0 l 1,1,-1
 200 0 l 1,2,-1
 200 200 l 1,3,-1
 1150 200 l 1,4,-1
 200 1500 l 1,5,-1
 1600 1500 l 1,6,-1
 1600 1300 l 1,7,-1
 650 1300 l 1,0,-1
EndSplineSet
EndChar

StartChar: u11A17
Encoding: 72215 72215 140
Width: 1800
GlyphClass: 2
Flags: W
AnchorPoint: "vowel-below" 1600 0 basechar 0
AnchorPoint: "vowel-length" 1950 -350 basechar 0
LayerCount: 2
Fore
SplineSet
1400 1300 m 1,0,-1
 650 1300 l 1,1,-1
 1600 0 l 1,2,-1
 200 0 l 1,3,-1
 200 200 l 1,4,-1
 1150 200 l 1,5,-1
 200 1500 l 1,6,-1
 1600 1500 l 1,7,-1
 1600 800 l 1,8,-1
 1400 800 l 1,9,-1
 1400 1300 l 1,0,-1
EndSplineSet
EndChar

StartChar: u11A18
Encoding: 72216 72216 141
Width: 1800
GlyphClass: 2
Flags: W
AnchorPoint: "vowel-below" 1600 0 basechar 0
AnchorPoint: "vowel-length" 2100 -350 basechar 0
LayerCount: 2
Fore
SplineSet
1400 200 m 1,0,-1
 1400 1000 l 1,1,-1
 600 600 l 1,2,-1
 1400 200 l 1,0,-1
1400 0 m 1,3,-1
 200 600 l 1,4,-1
 1400 1200 l 1,5,-1
 1400 1300 l 1,6,-1
 200 1300 l 1,7,-1
 200 1500 l 1,8,-1
 1600 1500 l 1,9,-1
 1600 0 l 1,10,-1
 1400 0 l 1,3,-1
EndSplineSet
EndChar

StartChar: u11A19
Encoding: 72217 72217 142
Width: 1800
GlyphClass: 2
Flags: W
AnchorPoint: "vowel-below" 1600 0 basechar 0
AnchorPoint: "vowel-length" 2100 -350 basechar 0
LayerCount: 2
Fore
SplineSet
400 650 m 1,0,-1
 400 0 l 1,1,-1
 200 0 l 1,2,-1
 200 1500 l 1,3,-1
 1600 1500 l 1,4,-1
 1600 1300 l 1,5,-1
 400 1300 l 1,6,-1
 400 850 l 1,7,-1
 1600 850 l 1,8,-1
 1600 0 l 1,9,-1
 1400 0 l 1,10,-1
 1400 650 l 1,11,-1
 400 650 l 1,0,-1
EndSplineSet
Substitution2: "squished form-1" u11A19.squished
EndChar

StartChar: u11A1A
Encoding: 72218 72218 143
Width: 1800
GlyphClass: 2
Flags: W
AnchorPoint: "vowel-below" 1600 0 basechar 0
AnchorPoint: "vowel-length" 2100 -350 basechar 0
LayerCount: 2
Fore
SplineSet
400 1300 m 1,0,-1
 400 850 l 1,1,-1
 1400 850 l 1,2,-1
 1400 1300 l 1,3,-1
 400 1300 l 1,0,-1
1400 650 m 1,4,-1
 400 650 l 1,5,-1
 400 200 l 1,6,-1
 1400 200 l 1,7,-1
 1400 650 l 1,4,-1
200 1500 m 1,8,-1
 1600 1500 l 1,9,-1
 1600 0 l 1,10,-1
 200 0 l 1,11,-1
 200 1500 l 1,8,-1
EndSplineSet
EndChar

StartChar: u11A1B
Encoding: 72219 72219 144
Width: 1800
GlyphClass: 2
Flags: W
AnchorPoint: "vowel-below" 1600 0 basechar 0
AnchorPoint: "vowel-length" 2100 -350 basechar 0
LayerCount: 2
Fore
SplineSet
400 850 m 1,0,-1
 1600 850 l 1,1,-1
 1600 0 l 1,2,-1
 200 0 l 1,3,-1
 200 200 l 1,4,-1
 1400 200 l 1,5,-1
 1400 650 l 1,6,-1
 200 650 l 1,7,-1
 200 1500 l 1,8,-1
 1600 1500 l 1,9,-1
 1600 1300 l 1,10,-1
 400 1300 l 1,11,-1
 400 850 l 1,0,-1
EndSplineSet
Substitution2: "squished form-1" u11A1B.squished
EndChar

StartChar: u11A1C
Encoding: 72220 72220 145
Width: 1800
GlyphClass: 2
Flags: W
AnchorPoint: "vowel-below" 1600 0 basechar 0
AnchorPoint: "vowel-length" 2100 -350 basechar 0
LayerCount: 2
Fore
SplineSet
400 700 m 1,0,-1
 400 0 l 1,1,-1
 200 0 l 1,2,-1
 200 1500 l 1,3,-1
 1600 1500 l 1,4,-1
 1600 1300 l 1,5,-1
 400 1300 l 1,6,-1
 400 900 l 1,7,-1
 1600 900 l 1,8,-1
 1600 800 l 1,9,10
 1403 678 1403 678 1096 500 c 0,11,12
 812 334 812 334 1099 211 c 1,13,14
 1327 99 1327 99 1600 0 c 1,15,-1
 1400 0 l 1,16,17
 1009 71 1009 71 803 150 c 1,18,19
 518 334 518 334 824 528 c 0,20,21
 994 632 994 632 1150 700 c 1,22,-1
 400 700 l 1,0,-1
EndSplineSet
EndChar

StartChar: u11A1D
Encoding: 72221 72221 146
Width: 1800
GlyphClass: 2
Flags: W
AnchorPoint: "vowel-below" 1600 0 basechar 0
AnchorPoint: "vowel-length" 2100 -350 basechar 0
LayerCount: 2
Fore
SplineSet
200 0 m 1,0,-1
 200 850 l 1,1,-1
 1400 850 l 1,2,-1
 1400 1300 l 1,3,-1
 200 1300 l 1,4,-1
 200 1500 l 1,5,-1
 1600 1500 l 1,6,-1
 1600 0 l 1,7,-1
 1400 0 l 1,8,-1
 1400 650 l 1,9,-1
 1000 650 l 1,10,-1
 1000 0 l 1,11,-1
 200 0 l 1,0,-1
800 650 m 1,12,-1
 400 650 l 1,13,-1
 400 200 l 1,14,-1
 800 200 l 1,15,-1
 800 650 l 1,12,-1
EndSplineSet
Substitution2: "squished form-1" u11A1D.squished
EndChar

StartChar: u11A1E
Encoding: 72222 72222 147
Width: 1800
GlyphClass: 2
Flags: W
AnchorPoint: "vowel-below" 1600 0 basechar 0
AnchorPoint: "vowel-length" 2100 -350 basechar 0
LayerCount: 2
Fore
SplineSet
1600 1500 m 1,0,-1
 1600 0 l 1,1,-1
 200 0 l 1,2,-1
 200 1500 l 1,3,-1
 400 1500 l 1,4,-1
 400 200 l 1,5,-1
 1400 200 l 1,6,-1
 1400 1500 l 1,7,-1
 1600 1500 l 1,0,-1
EndSplineSet
Substitution2: "squished form-1" u11A1E.squished
EndChar

StartChar: u11A1F
Encoding: 72223 72223 148
Width: 1800
GlyphClass: 2
Flags: W
AnchorPoint: "vowel-below" 1600 0 basechar 0
AnchorPoint: "vowel-length" 2100 -350 basechar 0
LayerCount: 2
Fore
SplineSet
1400 200 m 1,0,-1
 1400 1300 l 1,1,-1
 1000 1300 l 1,2,-1
 1000 200 l 1,3,-1
 1400 200 l 1,0,-1
1600 0 m 1,4,-1
 200 0 l 1,5,-1
 200 1500 l 1,6,-1
 400 1500 l 1,7,-1
 400 200 l 1,8,-1
 800 200 l 1,9,-1
 800 1500 l 1,10,-1
 1600 1500 l 1,11,-1
 1600 0 l 1,4,-1
EndSplineSet
EndChar

StartChar: u11A20
Encoding: 72224 72224 149
Width: 1800
GlyphClass: 2
Flags: W
AnchorPoint: "vowel-below" 1600 0 basechar 0
AnchorPoint: "vowel-length" 2100 -350 basechar 0
LayerCount: 2
Fore
SplineSet
1400 200 m 1,0,-1
 1400 1300 l 1,1,-1
 400 1300 l 1,2,-1
 400 200 l 1,3,-1
 1400 200 l 1,0,-1
1600 1500 m 1,4,-1
 1600 0 l 1,5,-1
 200 0 l 1,6,-1
 200 1500 l 1,7,-1
 1600 1500 l 1,4,-1
EndSplineSet
Substitution2: "squished form-1" u11A20.squished
EndChar

StartChar: u11A21
Encoding: 72225 72225 150
Width: 1800
GlyphClass: 2
Flags: W
AnchorPoint: "vowel-below" 1600 0 basechar 0
AnchorPoint: "vowel-length" 2100 -350 basechar 0
LayerCount: 2
Fore
SplineSet
1400 200 m 1,0,-1
 1400 1300 l 1,1,-1
 550 1300 l 1,2,3
 687 1148 687 1148 748 995 c 0,4,5
 828 796 828 796 778 596 c 0,6,7
 728 398 728 398 550 200 c 1,8,-1
 1400 200 l 1,0,-1
1600 1500 m 1,9,-1
 1600 0 l 1,10,-1
 200 0 l 1,11,12
 902 750 902 750 200 1500 c 1,13,-1
 1600 1500 l 1,9,-1
EndSplineSet
EndChar

StartChar: u11A22
Encoding: 72226 72226 151
Width: 1800
GlyphClass: 2
Flags: W
AnchorPoint: "vowel-below" 1600 0 basechar 0
AnchorPoint: "vowel-length" 2100 -350 basechar 0
LayerCount: 2
Fore
SplineSet
400 200 m 1,0,-1
 800 200 l 1,1,-1
 800 1300 l 1,2,-1
 400 1300 l 1,3,-1
 400 200 l 1,0,-1
200 0 m 1,4,-1
 200 1500 l 1,5,-1
 1000 1500 l 1,6,-1
 1000 200 l 1,7,-1
 1400 200 l 1,8,-1
 1400 1500 l 1,9,-1
 1600 1500 l 1,10,-1
 1600 0 l 1,11,-1
 200 0 l 1,4,-1
EndSplineSet
Substitution2: "squished form-1" u11A22.squished
EndChar

StartChar: u11A23
Encoding: 72227 72227 152
Width: 1800
GlyphClass: 2
Flags: W
AnchorPoint: "vowel-below" 1600 0 basechar 0
AnchorPoint: "vowel-length" 2100 -350 basechar 0
LayerCount: 2
Fore
SplineSet
1000 200 m 1,0,-1
 1400 200 l 1,1,-1
 1400 1300 l 1,2,-1
 1000 1300 l 1,3,-1
 1000 200 l 1,0,-1
1600 1500 m 1,4,-1
 1600 0 l 1,5,-1
 200 0 l 1,6,-1
 200 200 l 1,7,-1
 800 200 l 1,8,-1
 800 1300 l 1,9,-1
 200 1300 l 1,10,-1
 200 1500 l 1,11,-1
 1489 1500 l 1,12,-1
 1631 1800 l 2,13,14
 1656 1853 1656 1853 1703 1825 c 1,15,16
 1842 1719 1842 1719 2003 1833 c 1,17,18
 2055 1849 2055 1849 2055 1790 c 0,19,20
 2055 1667 2055 1667 1978 1599 c 1,21,22
 1846 1519 1846 1519 1654 1613 c 1,23,-1
 1600 1500 l 1,4,-1
EndSplineSet
Substitution2: "squished form-1" u11A23.squished
EndChar

StartChar: u11A24
Encoding: 72228 72228 153
Width: 1800
GlyphClass: 2
Flags: W
AnchorPoint: "vowel-below" 1600 0 basechar 0
AnchorPoint: "vowel-length" 2100 -350 basechar 0
LayerCount: 2
Fore
SplineSet
1000 200 m 1,0,-1
 1400 200 l 1,1,-1
 1400 1300 l 1,2,-1
 1000 1300 l 1,3,-1
 1000 200 l 1,0,-1
400 200 m 1,4,-1
 800 200 l 1,5,-1
 800 1300 l 1,6,-1
 400 1300 l 1,7,-1
 400 200 l 1,4,-1
1600 1500 m 1,8,-1
 1600 0 l 1,9,-1
 200 0 l 1,10,-1
 200 1500 l 1,11,-1
 1489 1500 l 1,12,-1
 1631 1800 l 2,13,14
 1656 1853 1656 1853 1703 1825 c 1,15,16
 1842 1719 1842 1719 2003 1833 c 1,17,18
 2055 1849 2055 1849 2055 1790 c 0,19,20
 2055 1667 2055 1667 1978 1599 c 1,21,22
 1846 1519 1846 1519 1654 1613 c 1,23,-1
 1600 1500 l 1,8,-1
EndSplineSet
EndChar

StartChar: u11A25
Encoding: 72229 72229 154
Width: 1800
GlyphClass: 2
Flags: W
AnchorPoint: "vowel-below" 1600 0 basechar 0
AnchorPoint: "vowel-length" 2100 -350 basechar 0
LayerCount: 2
Fore
SplineSet
1504 1300 m 1,0,-1
 400 1300 l 1,1,-1
 400 850 l 1,2,-1
 1600 850 l 1,3,-1
 1600 650 l 1,4,-1
 400 650 l 1,5,-1
 400 200 l 1,6,-1
 1600 200 l 1,7,-1
 1600 0 l 1,8,-1
 200 0 l 1,9,-1
 200 1500 l 1,10,-1
 1489 1500 l 1,11,-1
 1631 1800 l 2,12,13
 1656 1853 1656 1853 1703 1825 c 1,14,15
 1842 1719 1842 1719 2003 1833 c 1,16,17
 2055 1849 2055 1849 2055 1790 c 0,18,19
 2055 1667 2055 1667 1978 1599 c 1,20,21
 1846 1519 1846 1519 1654 1613 c 1,22,-1
 1504 1300 l 1,0,-1
EndSplineSet
Substitution2: "squished form-1" u11A25.squished
EndChar

StartChar: u11A26
Encoding: 72230 72230 155
Width: 1800
GlyphClass: 2
Flags: W
AnchorPoint: "vowel-below" 1600 0 basechar 0
AnchorPoint: "vowel-length" 2100 -350 basechar 0
LayerCount: 2
Fore
SplineSet
949 650 m 1,0,-1
 400 650 l 1,1,-1
 400 200 l 1,2,-1
 1600 200 l 1,3,-1
 1600 0 l 1,4,-1
 200 0 l 1,5,-1
 200 1500 l 1,6,-1
 1489 1500 l 1,7,-1
 1631 1800 l 2,8,9
 1656 1853 1656 1853 1703 1825 c 1,10,11
 1842 1719 1842 1719 2003 1833 c 1,12,13
 2055 1849 2055 1849 2055 1790 c 0,14,15
 2055 1667 2055 1667 1978 1599 c 1,16,17
 1846 1519 1846 1519 1654 1613 c 1,18,-1
 1504 1300 l 1,19,-1
 400 1300 l 1,20,-1
 400 850 l 1,21,-1
 949 850 l 1,22,23
 972 932 972 932 1038 998 c 0,24,25
 1140 1100 1140 1100 1285 1100 c 256,26,27
 1430 1100 1430 1100 1532 997 c 0,28,29
 1575 955 1575 955 1600 905 c 1,30,-1
 1450 809 l 1,31,32
 1437 845 1437 845 1409 874 c 0,33,34
 1357 925 1357 925 1285 925 c 256,35,36
 1213 925 1213 925 1161.5 873.5 c 128,-1,37
 1110 822 1110 822 1110 750 c 256,38,39
 1110 678 1110 678 1161.5 626.5 c 128,-1,40
 1213 575 1213 575 1285 575 c 256,41,42
 1357 575 1357 575 1409 626 c 0,43,44
 1437 654 1437 654 1449 688 c 1,45,-1
 1601 597 l 1,46,47
 1575 546 1575 546 1532 503 c 0,48,49
 1430 400 1430 400 1285 400 c 256,50,51
 1140 400 1140 400 1038 503 c 0,52,53
 972 568 972 568 949 650 c 1,0,-1
EndSplineSet
EndChar

StartChar: u11A27
Encoding: 72231 72231 156
Width: 1800
GlyphClass: 2
Flags: W
AnchorPoint: "vowel-below" 1600 0 basechar 0
AnchorPoint: "vowel-length" 2100 -350 basechar 0
LayerCount: 2
Fore
SplineSet
1400 200 m 1,0,-1
 1400 650 l 1,1,-1
 1200 650 l 2,2,3
 900 650 900 650 900 425 c 256,4,5
 900 200 900 200 1200 200 c 2,6,-1
 1400 200 l 1,0,-1
1600 1500 m 1,7,-1
 1600 0 l 1,8,-1
 1200 0 l 2,9,10
 700 0 700 0 700 425 c 256,11,12
 700 850 700 850 1200 850 c 2,13,-1
 1400 850 l 1,14,-1
 1400 1300 l 1,15,-1
 400 1300 l 1,16,-1
 400 0 l 1,17,-1
 200 0 l 1,18,-1
 200 1500 l 1,19,-1
 1600 1500 l 1,7,-1
EndSplineSet
EndChar

StartChar: u11A28
Encoding: 72232 72232 157
Width: 1800
GlyphClass: 2
Flags: W
AnchorPoint: "vowel-below" 1600 0 basechar 0
AnchorPoint: "vowel-length" 2100 -350 basechar 0
LayerCount: 2
Fore
SplineSet
1600 1500 m 1,0,-1
 1600 0 l 1,1,-1
 200 0 l 1,2,-1
 200 200 l 1,3,-1
 1400 200 l 1,4,-1
 1400 650 l 1,5,-1
 200 650 l 1,6,-1
 200 850 l 1,7,-1
 1400 850 l 1,8,-1
 1400 1300 l 1,9,-1
 200 1300 l 1,10,-1
 200 1500 l 1,11,-1
 1600 1500 l 1,0,-1
EndSplineSet
EndChar

StartChar: u11A29
Encoding: 72233 72233 158
Width: 1800
GlyphClass: 2
Flags: W
AnchorPoint: "vowel-below" 1600 0 basechar 0
AnchorPoint: "vowel-length" 2100 -350 basechar 0
LayerCount: 2
Fore
SplineSet
1600 1500 m 1,0,-1
 1600 650 l 1,1,-1
 1000 650 l 1,2,-1
 1000 200 l 1,3,-1
 1600 200 l 1,4,-1
 1600 0 l 1,5,-1
 800 0 l 1,6,-1
 800 850 l 1,7,-1
 1400 850 l 1,8,-1
 1400 1300 l 1,9,-1
 400 1300 l 1,10,-1
 400 0 l 1,11,-1
 200 0 l 1,12,-1
 200 1500 l 1,13,-1
 1600 1500 l 1,0,-1
EndSplineSet
EndChar

StartChar: u11A2A
Encoding: 72234 72234 159
Width: 1800
GlyphClass: 2
Flags: W
AnchorPoint: "vowel-below" 1600 0 basechar 0
AnchorPoint: "vowel-length" 2100 -350 basechar 0
LayerCount: 2
Fore
SplineSet
1000 1500 m 1,0,-1
 1000 200 l 1,1,-1
 1400 200 l 1,2,-1
 1400 1500 l 1,3,-1
 1600 1500 l 1,4,-1
 1600 0 l 1,5,-1
 200 0 l 1,6,-1
 200 1500 l 1,7,-1
 400 1500 l 1,8,-1
 400 200 l 1,9,-1
 800 200 l 1,10,-1
 800 1500 l 1,11,-1
 1000 1500 l 1,0,-1
EndSplineSet
EndChar

StartChar: u11A2B
Encoding: 72235 72235 160
Width: 1800
GlyphClass: 2
Flags: W
AnchorPoint: "vowel-below" 1600 0 basechar 0
AnchorPoint: "vowel-length" 2100 -350 basechar 0
LayerCount: 2
Fore
SplineSet
1000 850 m 1,0,-1
 1600 850 l 1,1,-1
 1600 0 l 1,2,-1
 1400 0 l 1,3,-1
 1400 650 l 1,4,-1
 400 650 l 1,5,-1
 400 0 l 1,6,-1
 200 0 l 1,7,-1
 200 850 l 1,8,-1
 800 850 l 1,9,-1
 800 1300 l 1,10,-1
 200 1300 l 1,11,-1
 200 1500 l 1,12,-1
 1600 1500 l 1,13,-1
 1600 1300 l 1,14,-1
 1000 1300 l 1,15,-1
 1000 850 l 1,0,-1
EndSplineSet
EndChar

StartChar: u11A2C
Encoding: 72236 72236 161
Width: 1800
GlyphClass: 2
Flags: W
AnchorPoint: "vowel-below" 1600 0 basechar 0
AnchorPoint: "vowel-length" 2100 -350 basechar 0
LayerCount: 2
Fore
SplineSet
1000 1500 m 1,0,-1
 1000 200 l 1,1,-1
 1400 200 l 1,2,-1
 1400 1500 l 1,3,-1
 1600 1500 l 1,4,-1
 1600 0 l 1,5,-1
 800 0 l 1,6,-1
 800 1300 l 1,7,-1
 400 1300 l 1,8,-1
 400 0 l 1,9,-1
 200 0 l 1,10,-1
 200 1500 l 1,11,-1
 1000 1500 l 1,0,-1
EndSplineSet
Substitution2: "head form-1" u11A2C_u11A47
EndChar

StartChar: u11A2D
Encoding: 72237 72237 162
Width: 1800
GlyphClass: 2
Flags: W
AnchorPoint: "vowel-below" 1600 0 basechar 0
AnchorPoint: "vowel-length" 2100 -350 basechar 0
LayerCount: 2
Fore
SplineSet
1000 225 m 256,0,1
 1104 225 1104 225 1177 298 c 128,-1,2
 1250 371 1250 371 1250 475 c 256,3,4
 1250 579 1250 579 1177 652 c 128,-1,5
 1104 725 1104 725 1000 725 c 256,6,7
 896 725 896 725 823 652 c 128,-1,8
 750 579 750 579 750 475 c 256,9,10
 750 371 750 371 823 298 c 128,-1,11
 896 225 896 225 1000 225 c 256,0,1
1100 890 m 1,12,13
 1223 863 1223 863 1318 768 c 0,14,15
 1450 636 1450 636 1450 450 c 256,16,17
 1450 264 1450 264 1318 132 c 128,-1,18
 1186 0 1186 0 1000 0 c 256,19,20
 814 0 814 0 682 132 c 128,-1,21
 550 264 550 264 550 450 c 256,22,23
 550 636 550 636 682 768 c 0,24,25
 777 863 777 863 900 890 c 1,26,-1
 900 1300 l 1,27,-1
 400 1300 l 1,28,-1
 400 0 l 1,29,-1
 200 0 l 1,30,-1
 200 1500 l 1,31,-1
 1600 1500 l 1,32,-1
 1600 1300 l 1,33,-1
 1100 1300 l 1,34,-1
 1100 890 l 1,12,13
EndSplineSet
EndChar

StartChar: u11A2E
Encoding: 72238 72238 163
Width: 1800
GlyphClass: 2
Flags: W
AnchorPoint: "vowel-below" 1600 0 basechar 0
AnchorPoint: "vowel-length" 2100 -350 basechar 0
LayerCount: 2
Fore
SplineSet
1400 1300 m 1,0,-1
 1000 1300 l 1,1,-1
 1000 200 l 1,2,-1
 1400 200 l 1,3,-1
 1400 1300 l 1,0,-1
800 850 m 1,4,-1
 800 1500 l 1,5,-1
 1600 1500 l 1,6,-1
 1600 0 l 1,7,-1
 800 0 l 1,8,-1
 800 650 l 1,9,-1
 400 650 l 1,10,-1
 400 0 l 1,11,-1
 200 0 l 1,12,-1
 200 1500 l 1,13,-1
 400 1500 l 1,14,-1
 400 850 l 1,15,-1
 800 850 l 1,4,-1
EndSplineSet
EndChar

StartChar: u11A2F
Encoding: 72239 72239 164
Width: 1800
GlyphClass: 2
Flags: W
AnchorPoint: "vowel-below" 1600 0 basechar 0
AnchorPoint: "vowel-length" 2100 -350 basechar 0
LayerCount: 2
Fore
SplineSet
400 1300 m 1,0,-1
 400 200 l 1,1,-1
 800 200 l 1,2,-1
 800 1300 l 1,3,-1
 400 1300 l 1,0,-1
1000 850 m 1,4,-1
 1400 850 l 1,5,-1
 1400 1500 l 1,6,-1
 1600 1500 l 1,7,-1
 1600 0 l 1,8,-1
 1400 0 l 1,9,-1
 1400 650 l 1,10,-1
 1000 650 l 1,11,-1
 1000 0 l 1,12,-1
 200 0 l 1,13,-1
 200 1500 l 1,14,-1
 1000 1500 l 1,15,-1
 1000 850 l 1,4,-1
EndSplineSet
EndChar

StartChar: u11A30
Encoding: 72240 72240 165
Width: 1800
GlyphClass: 2
Flags: W
AnchorPoint: "vowel-below" 1600 0 basechar 0
AnchorPoint: "vowel-length" 2100 -350 basechar 0
LayerCount: 2
Fore
SplineSet
400 1500 m 1,0,-1
 1400 300 l 1,1,-1
 1400 1500 l 1,2,-1
 1600 1500 l 1,3,-1
 1600 0 l 1,4,-1
 1400 0 l 1,5,-1
 400 1200 l 1,6,-1
 400 0 l 1,7,-1
 200 0 l 1,8,-1
 200 1500 l 1,9,-1
 400 1500 l 1,0,-1
EndSplineSet
Substitution2: "head form-1" u11A30_u11A47
EndChar

StartChar: u11A31
Encoding: 72241 72241 166
Width: 1800
GlyphClass: 2
Flags: W
AnchorPoint: "vowel-below" 1600 0 basechar 0
AnchorPoint: "vowel-length" 2100 -350 basechar 0
LayerCount: 2
Fore
SplineSet
1600 850 m 1,0,-1
 1600 0 l 1,1,-1
 1400 0 l 1,2,-1
 1400 650 l 1,3,-1
 1000 650 l 1,4,-1
 1000 0 l 1,5,-1
 200 0 l 1,6,-1
 200 1500 l 1,7,-1
 1600 1500 l 1,8,-1
 1600 1300 l 1,9,-1
 400 1300 l 1,10,-1
 400 200 l 1,11,-1
 800 200 l 1,12,-1
 800 850 l 1,13,-1
 1600 850 l 1,0,-1
EndSplineSet
Substitution2: "squished form-1" u11A31.squished
EndChar

StartChar: u11A32
Encoding: 72242 72242 167
Width: 1800
GlyphClass: 2
Flags: W
AnchorPoint: "vowel-below" 1600 0 basechar 0
AnchorPoint: "vowel-length" 2100 -350 basechar 0
LayerCount: 2
Fore
SplineSet
400 650 m 1,0,-1
 400 200 l 1,1,-1
 1000 200 l 1,2,-1
 1000 0 l 1,3,-1
 200 0 l 1,4,-1
 200 850 l 1,5,-1
 800 850 l 1,6,-1
 800 1300 l 1,7,-1
 200 1300 l 1,8,-1
 200 1500 l 1,9,-1
 1600 1500 l 1,10,-1
 1600 0 l 1,11,-1
 1400 0 l 1,12,-1
 1400 1300 l 1,13,-1
 1000 1300 l 1,14,-1
 1000 650 l 1,15,-1
 400 650 l 1,0,-1
EndSplineSet
EndChar

StartChar: u11A33
Encoding: 72243 72243 168
Width: 0
GlyphClass: 4
Flags: W
AnchorPoint: "vowel-below-mkmk" -200 0 mark 0
AnchorPoint: "vowel-below" -200 0 mark 0
LayerCount: 2
Fore
SplineSet
-900 -188 m 1,0,-1
 -688 -400 l 1,1,-1
 -900 -612 l 1,2,-1
 -1112 -400 l 1,3,-1
 -900 -188 l 1,0,-1
EndSplineSet
Substitution2: "wide form-1" u11A33.wide
EndChar

StartChar: u11A34
Encoding: 72244 72244 169
Width: 0
GlyphClass: 4
Flags: W
AnchorPoint: "vowel-below-mkmk" -200 0 mark 0
AnchorPoint: "vowel-below" -200 0 mark 0
LayerCount: 2
Fore
SplineSet
-239 -617 m 0,1,2
 -200 -653 -200 -653 -200 -699 c 1,3,4
 -226 -752 -226 -752 -293 -729 c 1,5,6
 -674 -496 -674 -496 -1100 -446 c 0,7,8
 -1318 -424 -1318 -424 -1463 -468 c 0,9,10
 -1565 -500 -1565 -500 -1600 -412 c 1,11,12
 -1600 -294 -1600 -294 -1523 -258 c 0,13,14
 -1349 -180 -1349 -180 -1097 -207 c 0,15,0
 -594 -260 -594 -260 -239 -617 c 0,1,2
EndSplineSet
Substitution2: "wide form-1" u11A34.wide
EndChar

StartChar: u11A35
Encoding: 72245 72245 170
Width: 0
GlyphClass: 4
Flags: W
AnchorPoint: "above" -200 1400 mark 0
LayerCount: 2
Fore
SplineSet
-1600 2100 m 1,1,2
 -1200 1900 -1200 1900 -900 1900 c 256,3,4
 -600 1900 -600 1900 -200 2100 c 1,5,6
 -400 1700 -400 1700 -900 1700 c 256,7,0
 -1400 1700 -1400 1700 -1600 2100 c 1,1,2
-900 2000 m 256,8,9
 -1004 2000 -1004 2000 -1077 2073 c 128,-1,10
 -1150 2146 -1150 2146 -1150 2250 c 256,11,12
 -1150 2354 -1150 2354 -1077 2427 c 128,-1,13
 -1004 2500 -1004 2500 -900 2500 c 256,14,15
 -796 2500 -796 2500 -723 2427 c 128,-1,16
 -650 2354 -650 2354 -650 2250 c 256,17,18
 -650 2146 -650 2146 -723 2073 c 128,-1,19
 -796 2000 -796 2000 -900 2000 c 256,8,9
-900 2100 m 256,20,21
 -838 2100 -838 2100 -794 2144 c 128,-1,22
 -750 2188 -750 2188 -750 2250 c 256,23,24
 -750 2312 -750 2312 -794 2356 c 128,-1,25
 -838 2400 -838 2400 -900 2400 c 256,26,27
 -962 2400 -962 2400 -1006 2356 c 128,-1,28
 -1050 2312 -1050 2312 -1050 2250 c 256,29,30
 -1050 2188 -1050 2188 -1006 2144 c 128,-1,31
 -962 2100 -962 2100 -900 2100 c 256,20,21
EndSplineSet
Substitution2: "wide form-1" u11A35.wide
EndChar

StartChar: u11A36
Encoding: 72246 72246 171
Width: 0
GlyphClass: 4
Flags: W
AnchorPoint: "above" -200 1400 mark 0
LayerCount: 2
Fore
SplineSet
-1600 2100 m 1,1,2
 -1200 1900 -1200 1900 -900 1900 c 256,3,4
 -600 1900 -600 1900 -200 2100 c 1,5,6
 -400 1700 -400 1700 -900 1700 c 256,7,0
 -1400 1700 -1400 1700 -1600 2100 c 1,1,2
-900 2000 m 256,8,9
 -1004 2000 -1004 2000 -1077 2073 c 128,-1,10
 -1150 2146 -1150 2146 -1150 2250 c 256,11,12
 -1150 2354 -1150 2354 -1077 2427 c 128,-1,13
 -1004 2500 -1004 2500 -900 2500 c 256,14,15
 -796 2500 -796 2500 -723 2427 c 128,-1,16
 -650 2354 -650 2354 -650 2250 c 256,17,18
 -650 2146 -650 2146 -723 2073 c 128,-1,19
 -796 2000 -796 2000 -900 2000 c 256,8,9
-900 2100 m 256,20,21
 -838 2100 -838 2100 -794 2144 c 128,-1,22
 -750 2188 -750 2188 -750 2250 c 256,23,24
 -750 2312 -750 2312 -794 2356 c 128,-1,25
 -838 2400 -838 2400 -900 2400 c 256,26,27
 -962 2400 -962 2400 -1006 2356 c 128,-1,28
 -1050 2312 -1050 2312 -1050 2250 c 256,29,30
 -1050 2188 -1050 2188 -1006 2144 c 128,-1,31
 -962 2100 -962 2100 -900 2100 c 256,20,21
-650 2800 m 1,33,34
 -650 2696 -650 2696 -723 2623 c 128,-1,35
 -796 2550 -796 2550 -900 2550 c 256,36,37
 -1004 2550 -1004 2550 -1077 2623 c 128,-1,38
 -1150 2696 -1150 2696 -1144 2804 c 1,39,40
 -1134 2886 -1134 2886 -1031 2951 c 1,41,42
 -1068 2875 -1068 2875 -1066 2800 c 1,43,44
 -1050 2726 -1050 2726 -1006 2688 c 128,-1,45
 -962 2650 -962 2650 -900 2650 c 256,46,47
 -838 2650 -838 2650 -794 2694 c 128,-1,48
 -750 2738 -750 2738 -750 2800 c 256,49,50
 -750 2862 -750 2862 -794 2906 c 1,51,52
 -860 2952 -860 2952 -923 3002 c 1,53,54
 -998 3075 -998 3075 -998 3161 c 1,55,56
 -1002 3198 -1002 3198 -997 3244 c 1,57,58
 -975 3192 -975 3192 -950 3145 c 0,59,60
 -920 3096 -920 3096 -880 3061 c 1,61,62
 -841 3037 -841 3037 -808 3020 c 0,63,64
 -769 2998 -769 2998 -723 2969 c 0,65,32
 -640 2908 -640 2908 -650 2800 c 1,33,34
EndSplineSet
Substitution2: "wide form-1" u11A36.wide
EndChar

StartChar: u11A37
Encoding: 72247 72247 172
Width: 0
GlyphClass: 4
Flags: W
AnchorPoint: "above" -200 1400 mark 0
LayerCount: 2
Fore
SplineSet
-1600 2100 m 1,0,1
 -1200 1900 -1200 1900 -900 1900 c 256,2,3
 -600 1900 -600 1900 -200 2100 c 1,4,5
 -400 1700 -400 1700 -900 1700 c 256,6,7
 -1400 1700 -1400 1700 -1600 2100 c 1,0,1
-650 2250 m 1,9,10
 -650 2146 -650 2146 -723 2073 c 128,-1,11
 -796 2000 -796 2000 -900 2000 c 256,12,13
 -1004 2000 -1004 2000 -1077 2073 c 128,-1,14
 -1150 2146 -1150 2146 -1144 2254 c 1,15,16
 -1134 2336 -1134 2336 -1031 2401 c 1,17,18
 -1068 2325 -1068 2325 -1066 2250 c 1,19,20
 -1050 2176 -1050 2176 -1006 2138 c 128,-1,21
 -962 2100 -962 2100 -900 2100 c 256,22,23
 -838 2100 -838 2100 -794 2144 c 128,-1,24
 -750 2188 -750 2188 -750 2250 c 256,25,26
 -750 2312 -750 2312 -794 2356 c 1,27,28
 -860 2402 -860 2402 -923 2452 c 1,29,30
 -998 2525 -998 2525 -998 2611 c 1,31,32
 -1002 2648 -1002 2648 -997 2694 c 1,33,34
 -975 2642 -975 2642 -950 2595 c 0,35,36
 -920 2546 -920 2546 -880 2511 c 1,37,38
 -841 2487 -841 2487 -808 2470 c 0,39,40
 -769 2448 -769 2448 -723 2419 c 0,41,8
 -640 2358 -640 2358 -650 2250 c 1,9,10
EndSplineSet
Substitution2: "wide form-1" u11A37.wide
EndChar

StartChar: u11A38
Encoding: 72248 72248 173
Width: 0
GlyphClass: 4
Flags: W
AnchorPoint: "above" -200 1400 mark 0
LayerCount: 2
Fore
SplineSet
-900 1700 m 256,0,1
 -1004 1700 -1004 1700 -1077 1773 c 128,-1,2
 -1150 1846 -1150 1846 -1150 1950 c 256,3,4
 -1150 2054 -1150 2054 -1077 2127 c 128,-1,5
 -1004 2200 -1004 2200 -900 2200 c 256,6,7
 -796 2200 -796 2200 -723 2127 c 128,-1,8
 -650 2054 -650 2054 -650 1950 c 256,9,10
 -650 1846 -650 1846 -723 1773 c 128,-1,11
 -796 1700 -796 1700 -900 1700 c 256,0,1
-900 1800 m 256,12,13
 -838 1800 -838 1800 -794 1844 c 128,-1,14
 -750 1888 -750 1888 -750 1950 c 256,15,16
 -750 2012 -750 2012 -794 2056 c 128,-1,17
 -838 2100 -838 2100 -900 2100 c 256,18,19
 -962 2100 -962 2100 -1006 2056 c 128,-1,20
 -1050 2012 -1050 2012 -1050 1950 c 256,21,22
 -1050 1888 -1050 1888 -1006 1844 c 128,-1,23
 -962 1800 -962 1800 -900 1800 c 256,12,13
EndSplineSet
Substitution2: "wide form-1" u11A38.wide
EndChar

StartChar: u11A39
Encoding: 72249 72249 174
Width: 900
GlyphClass: 2
Flags: W
LayerCount: 2
Fore
SplineSet
450 850 m 256,0,1
 346 850 346 850 273 923 c 128,-1,2
 200 996 200 996 200 1100 c 256,3,4
 200 1204 200 1204 273 1277 c 128,-1,5
 346 1350 346 1350 450 1350 c 256,6,7
 554 1350 554 1350 627 1277 c 128,-1,8
 700 1204 700 1204 700 1100 c 256,9,10
 700 996 700 996 627 923 c 128,-1,11
 554 850 554 850 450 850 c 256,0,1
450 950 m 256,12,13
 512 950 512 950 556 994 c 128,-1,14
 600 1038 600 1038 600 1100 c 256,15,16
 600 1162 600 1162 556 1206 c 128,-1,17
 512 1250 512 1250 450 1250 c 256,18,19
 388 1250 388 1250 344 1206 c 128,-1,20
 300 1162 300 1162 300 1100 c 256,21,22
 300 1038 300 1038 344 994 c 128,-1,23
 388 950 388 950 450 950 c 256,12,13
450 150 m 256,24,25
 346 150 346 150 273 223 c 128,-1,26
 200 296 200 296 200 400 c 256,27,28
 200 504 200 504 273 577 c 128,-1,29
 346 650 346 650 450 650 c 256,30,31
 554 650 554 650 627 577 c 128,-1,32
 700 504 700 504 700 400 c 256,33,34
 700 296 700 296 627 223 c 128,-1,35
 554 150 554 150 450 150 c 256,24,25
450 250 m 256,36,37
 512 250 512 250 556 294 c 128,-1,38
 600 338 600 338 600 400 c 256,39,40
 600 462 600 462 556 506 c 128,-1,41
 512 550 512 550 450 550 c 256,42,43
 388 550 388 550 344 506 c 128,-1,44
 300 462 300 462 300 400 c 256,45,46
 300 338 300 338 344 294 c 128,-1,47
 388 250 388 250 450 250 c 256,36,37
EndSplineSet
EndChar

StartChar: u11A3A
Encoding: 72250 72250 175
Width: 1800
GlyphClass: 2
Flags: W
AnchorPoint: "vowel-length" 2100 850 basechar 0
LayerCount: 2
Fore
SplineSet
800 1300 m 1,0,-1
 200 1300 l 1,1,-1
 200 1500 l 1,2,-1
 1600 1500 l 1,3,-1
 1600 1300 l 1,4,-1
 1000 1300 l 1,5,-1
 1000 900 l 1,6,-1
 800 900 l 1,7,-1
 800 1300 l 1,0,-1
EndSplineSet
EndChar

StartChar: u11A3B
Encoding: 72251 72251 176
Width: 0
GlyphClass: 4
Flags: W
AnchorPoint: "vowel-below-mkmk" -200 -500 basemark 0
AnchorPoint: "vowel-below-mkmk" -200 0 mark 0
AnchorPoint: "vowel-below" -200 0 mark 0
LayerCount: 2
Fore
SplineSet
-900 -250 m 1,0,1
 -1006 -500 -1006 -500 -1250 -500 c 0,2,3
 -1500 -500 -1500 -500 -1600 -100 c 1,4,5
 -1400 -350 -1400 -350 -1250 -350 c 256,6,7
 -1100 -350 -1100 -350 -900 -100 c 1,8,9
 -700 -350 -700 -350 -550 -350 c 256,10,11
 -400 -350 -400 -350 -200 -100 c 1,12,13
 -300 -500 -300 -500 -550 -500 c 0,14,15
 -794 -500 -794 -500 -900 -250 c 1,0,1
EndSplineSet
EndChar

StartChar: u11A3C
Encoding: 72252 72252 177
Width: 0
GlyphClass: 4
Flags: W
AnchorPoint: "vowel-below-mkmk" -200 -600 basemark 0
AnchorPoint: "vowel-below-mkmk" -200 0 mark 0
AnchorPoint: "vowel-below" -200 0 mark 0
LayerCount: 2
Fore
SplineSet
-1600 -600 m 1,0,-1
 -1600 -400 l 1,1,2
 -1000 -200 -1000 -200 -400 -400 c 1,3,-1
 -400 0 l 1,4,-1
 -200 0 l 1,5,-1
 -200 -600 l 1,6,-1
 -400 -600 l 1,7,8
 -1000 -400 -1000 -400 -1600 -600 c 1,0,-1
EndSplineSet
EndChar

StartChar: u11A3D
Encoding: 72253 72253 178
Width: 0
GlyphClass: 4
Flags: W
AnchorPoint: "vowel-below-mkmk" -200 -600 basemark 0
AnchorPoint: "vowel-below-mkmk" -200 0 mark 0
AnchorPoint: "vowel-below" -200 0 mark 0
LayerCount: 2
Fore
SplineSet
-400 0 m 1,1,-1
 -200 0 l 1,2,3
 -200 -600 -200 -600 -800 -400 c 128,-1,4
 -1400 -200 -1400 -200 -1400 -600 c 1,5,-1
 -1600 -600 l 1,6,7
 -1600 0 -1600 0 -1000 -200 c 128,-1,0
 -400 -400 -400 -400 -400 0 c 1,1,-1
EndSplineSet
EndChar

StartChar: u11A3E
Encoding: 72254 72254 179
Width: 0
GlyphClass: 4
Flags: W
AnchorPoint: "vowel-below-mkmk" -200 -733 basemark 0
AnchorPoint: "vowel-below-mkmk" -200 0 mark 0
AnchorPoint: "vowel-below" -200 0 mark 0
LayerCount: 2
Fore
SplineSet
-400 -467 m 1,0,-1
 -400 -267 l 1,1,-1
 -800 -367 l 1,2,-1
 -400 -467 l 1,0,-1
-200 0 m 1,3,-1
 -200 -733 l 1,4,-1
 -1300 -367 l 1,5,-1
 -200 0 l 1,3,-1
EndSplineSet
Substitution2: "lower form-1" u11A3E.low
EndChar

StartChar: u11A3F
Encoding: 72255 72255 180
Width: 1800
GlyphClass: 2
Flags: W
LayerCount: 2
Fore
SplineSet
1400 200 m 1,0,-1
 1400 1300 l 1,1,-1
 1000 1300 l 1,2,-1
 1000 600 l 1,3,-1
 800 600 l 1,4,-1
 800 1500 l 1,5,-1
 1600 1500 l 1,6,-1
 1600 0 l 1,7,-1
 200 0 l 1,8,-1
 200 1500 l 1,9,-1
 400 1500 l 1,10,-1
 400 200 l 1,11,-1
 1400 200 l 1,0,-1
EndSplineSet
EndChar

StartChar: u11A40
Encoding: 72256 72256 181
Width: 1800
GlyphClass: 2
Flags: W
LayerCount: 2
Fore
SplineSet
1400 200 m 1,0,-1
 1400 1300 l 1,1,-1
 1000 1300 l 1,2,-1
 1000 600 l 1,3,-1
 800 600 l 1,4,-1
 800 1500 l 1,5,-1
 1600 1500 l 1,6,-1
 1600 0 l 1,7,-1
 200 0 l 1,8,-1
 200 200 l 1,9,-1
 1400 200 l 1,0,-1
EndSplineSet
EndChar

StartChar: u11A41
Encoding: 72257 72257 182
Width: 600
GlyphClass: 2
Flags: W
LayerCount: 2
Fore
SplineSet
200 1200 m 1,0,-1
 200 1500 l 1,1,-1
 400 1500 l 1,2,-1
 400 1200 l 1,3,-1
 200 1200 l 1,0,-1
EndSplineSet
EndChar

StartChar: u11A42
Encoding: 72258 72258 183
Width: 600
GlyphClass: 2
Flags: W
LayerCount: 2
Fore
SplineSet
200 0 m 1,0,-1
 200 1500 l 1,1,-1
 400 1500 l 1,2,-1
 400 0 l 1,3,-1
 200 0 l 1,0,-1
EndSplineSet
EndChar

StartChar: u11A43
Encoding: 72259 72259 184
Width: 1200
GlyphClass: 2
Flags: W
LayerCount: 2
Fore
SplineSet
200 0 m 1,0,-1
 200 1500 l 1,1,-1
 400 1500 l 1,2,-1
 400 0 l 1,3,-1
 200 0 l 1,0,-1
800 0 m 1,4,-1
 800 1500 l 1,5,-1
 1000 1500 l 1,6,-1
 1000 0 l 1,7,-1
 800 0 l 1,4,-1
EndSplineSet
EndChar

StartChar: u11A44
Encoding: 72260 72260 185
Width: 1800
GlyphClass: 2
Flags: W
LayerCount: 2
Fore
SplineSet
1400 1150 m 1,0,-1
 1400 1350 l 1,1,-1
 400 1350 l 1,2,-1
 400 1150 l 1,3,-1
 1400 1150 l 1,0,-1
1600 1500 m 1,4,-1
 1600 1000 l 1,5,-1
 200 1000 l 1,6,-1
 200 1500 l 1,7,-1
 1600 1500 l 1,4,-1
1400 150 m 1,8,-1
 1400 350 l 1,9,-1
 400 350 l 1,10,-1
 400 150 l 1,11,-1
 1400 150 l 1,8,-1
1600 500 m 1,12,-1
 1600 0 l 1,13,-1
 200 0 l 1,14,-1
 200 500 l 1,15,-1
 1600 500 l 1,12,-1
1600 650 m 1,16,-1
 200 650 l 1,17,-1
 200 850 l 1,18,-1
 1600 850 l 1,19,-1
 1600 650 l 1,16,-1
EndSplineSet
EndChar

StartChar: u11A45
Encoding: 72261 72261 186
Width: 1800
GlyphClass: 2
Flags: W
LayerCount: 2
Fore
SplineSet
1400 600 m 1,0,-1
 1400 1300 l 1,1,-1
 1000 1300 l 1,2,-1
 1000 800 l 1,3,-1
 800 800 l 1,4,-1
 800 1500 l 1,5,-1
 1600 1500 l 1,6,-1
 1600 400 l 1,7,-1
 200 400 l 1,8,-1
 200 1500 l 1,9,-1
 400 1500 l 1,10,-1
 400 600 l 1,11,-1
 1400 600 l 1,0,-1
1600 0 m 1,12,-1
 200 0 l 1,13,-1
 200 200 l 1,14,-1
 1600 200 l 1,15,-1
 1600 0 l 1,12,-1
EndSplineSet
EndChar

StartChar: u11A46
Encoding: 72262 72262 187
Width: 1800
GlyphClass: 2
Flags: W
LayerCount: 2
Fore
SplineSet
1400 600 m 1,0,-1
 1400 1300 l 1,1,-1
 1000 1300 l 1,2,-1
 1000 800 l 1,3,-1
 800 800 l 1,4,-1
 800 1500 l 1,5,-1
 1600 1500 l 1,6,-1
 1600 400 l 1,7,-1
 200 400 l 1,8,-1
 200 600 l 1,9,-1
 1400 600 l 1,0,-1
1600 0 m 1,10,-1
 200 0 l 1,11,-1
 200 200 l 1,12,-1
 1600 200 l 1,13,-1
 1600 0 l 1,10,-1
EndSplineSet
EndChar

StartChar: u11A47
Encoding: 72263 72263 188
Width: 2200
GlyphClass: 2
Flags: W
LayerCount: 2
Fore
SplineSet
825 1800 m 1,0,-1
 1025 1800 l 1,1,-1
 1025 1700 l 1,2,-1
 825 1700 l 1,3,-1
 825 1800 l 1,0,-1
2000 1525 m 1,4,-1
 2000 1700 l 1,5,-1
 1825 1700 l 1,6,-1
 1825 1800 l 1,7,-1
 2100 1800 l 1,8,-1
 2100 1525 l 1,9,-1
 2000 1525 l 1,4,-1
2000 -200 m 1,10,-1
 2000 -25 l 1,11,-1
 2100 -25 l 1,12,-1
 2100 -300 l 1,13,-1
 1825 -300 l 1,14,-1
 1825 -200 l 1,15,-1
 2000 -200 l 1,10,-1
2000 125 m 1,16,-1
 2000 315 l 1,17,-1
 2100 315 l 1,18,-1
 2100 125 l 1,19,-1
 2000 125 l 1,16,-1
375 -300 m 1,20,-1
 100 -300 l 1,21,-1
 100 -25 l 1,22,-1
 200 -25 l 1,23,-1
 200 -200 l 1,24,-1
 375 -200 l 1,25,-1
 375 -300 l 1,20,-1
100 135 m 1,26,-1
 100 325 l 1,27,-1
 200 325 l 1,28,-1
 200 135 l 1,29,-1
 100 135 l 1,26,-1
100 1525 m 1,30,-1
 100 1800 l 1,31,-1
 375 1800 l 1,32,-1
 375 1700 l 1,33,-1
 200 1700 l 1,34,-1
 200 1525 l 1,35,-1
 100 1525 l 1,30,-1
2000 475 m 1,36,-1
 2000 675 l 1,37,-1
 2100 675 l 1,38,-1
 2100 475 l 1,39,-1
 2000 475 l 1,36,-1
100 475 m 1,40,-1
 100 675 l 1,41,-1
 200 675 l 1,42,-1
 200 475 l 1,43,-1
 100 475 l 1,40,-1
1176 1800 m 1,44,-1
 1376 1800 l 1,45,-1
 1376 1700 l 1,46,-1
 1176 1700 l 1,47,-1
 1176 1800 l 1,44,-1
825 -200 m 1,48,-1
 1025 -200 l 1,49,-1
 1025 -300 l 1,50,-1
 825 -300 l 1,51,-1
 825 -200 l 1,48,-1
1176 -200 m 1,52,-1
 1376 -200 l 1,53,-1
 1376 -300 l 1,54,-1
 1176 -300 l 1,55,-1
 1176 -200 l 1,52,-1
2000 825 m 1,56,-1
 2000 1015 l 1,57,-1
 2100 1015 l 1,58,-1
 2100 825 l 1,59,-1
 2000 825 l 1,56,-1
100 835 m 1,60,-1
 100 1025 l 1,61,-1
 200 1025 l 1,62,-1
 200 835 l 1,63,-1
 100 835 l 1,60,-1
2000 1175 m 1,64,-1
 2000 1375 l 1,65,-1
 2100 1375 l 1,66,-1
 2100 1175 l 1,67,-1
 2000 1175 l 1,64,-1
100 1175 m 1,68,-1
 100 1375 l 1,69,-1
 200 1375 l 1,70,-1
 200 1175 l 1,71,-1
 100 1175 l 1,68,-1
500 1800 m 1,72,-1
 700 1800 l 1,73,-1
 700 1700 l 1,74,-1
 500 1700 l 1,75,-1
 500 1800 l 1,72,-1
500 -200 m 1,76,-1
 700 -200 l 1,77,-1
 700 -300 l 1,78,-1
 500 -300 l 1,79,-1
 500 -200 l 1,76,-1
1501 1800 m 1,80,-1
 1701 1800 l 1,81,-1
 1701 1700 l 1,82,-1
 1501 1700 l 1,83,-1
 1501 1800 l 1,80,-1
1501 -200 m 1,84,-1
 1701 -200 l 1,85,-1
 1701 -300 l 1,86,-1
 1501 -300 l 1,87,-1
 1501 -200 l 1,84,-1
1200 90 m 1,88,-1
 1200 -110 l 1,89,-1
 1000 -110 l 1,90,-1
 1000 90 l 1,91,-1
 800 90 l 1,92,-1
 800 290 l 1,93,-1
 1000 290 l 1,94,-1
 1000 490 l 1,95,-1
 1200 490 l 1,96,-1
 1200 290 l 1,97,-1
 1400 290 l 1,98,-1
 1400 90 l 1,99,-1
 1200 90 l 1,88,-1
745 1155 m 1,100,-1
 695 1172 l 1,101,102
 709 1229 709 1229 738 1280 c 1,103,-1
 783 1251 l 1,104,105
 758 1206 758 1206 745 1155 c 1,100,-1
843 1331 m 1,106,-1
 808 1373 l 1,107,108
 850 1417 850 1417 897 1445 c 1,109,-1
 922 1395 l 1,110,111
 880 1370 880 1370 843 1331 c 1,106,-1
1100 1500 m 1,113,-1
 1100 1444 l 1,114,115
 1050 1444 1050 1444 1005 1431 c 1,116,-1
 996 1487 l 1,117,112
 1045 1500 1045 1500 1100 1500 c 1,113,-1
1195 1431 m 1,118,-1
 1204 1487 l 1,119,120
 1256 1473 1256 1473 1303 1445 c 1,121,-1
 1279 1395 l 1,122,123
 1239 1419 1239 1419 1195 1431 c 1,118,-1
1357 1331 m 1,124,-1
 1392 1373 l 2,125,126
 1395 1371 1395 1371 1397 1368 c 0,127,128
 1435 1327 1435 1327 1462 1280 c 1,129,-1
 1417 1251 l 1,130,131
 1393 1292 1393 1292 1360 1328 c 2,132,-1
 1357 1331 l 1,124,-1
1455 1155 m 1,134,-1
 1505 1172 l 1,135,136
 1520 1114 1520 1114 1520 1050 c 1,137,-1
 1468 1050 l 1,138,133
 1468 1106 1468 1106 1455 1155 c 1,134,-1
1455 945 m 1,139,-1
 1505 928 l 1,140,141
 1491 871 1491 871 1462 820 c 1,142,-1
 1417 849 l 1,143,144
 1442 894 1442 894 1455 945 c 1,139,-1
1357 769 m 1,145,-1
 1392 727 l 1,146,147
 1350 683 1350 683 1303 655 c 1,148,-1
 1279 705 l 1,149,150
 1321 730 1321 730 1357 769 c 1,145,-1
1100 600 m 1,152,-1
 1100 656 l 1,153,154
 1150 656 1150 656 1195 669 c 1,155,-1
 1204 613 l 1,156,151
 1155 600 1155 600 1100 600 c 1,152,-1
1005 669 m 1,157,-1
 996 613 l 1,158,159
 944 627 944 627 897 655 c 1,160,-1
 922 705 l 1,161,162
 961 681 961 681 1005 669 c 1,157,-1
843 769 m 1,163,-1
 808 727 l 2,164,165
 805 729 805 729 803 732 c 0,166,167
 765 773 765 773 738 820 c 1,168,-1
 783 849 l 1,169,170
 807 808 807 808 840 772 c 2,171,-1
 843 769 l 1,163,-1
745 945 m 1,173,-1
 695 928 l 1,174,175
 680 986 680 986 680 1050 c 1,176,-1
 733 1050 l 1,177,172
 733 994 733 994 745 945 c 1,173,-1
EndSplineSet
EndChar

StartChar: u11A33.wide
Encoding: 1114114 -1 189
Width: 0
GlyphClass: 2
Flags: W
AnchorPoint: "vowel-below-mkmk" -200 0 mark 0
AnchorPoint: "vowel-below" -200 0 mark 0
LayerCount: 2
Fore
SplineSet
-1200 -188 m 1,0,-1
 -988 -400 l 1,1,-1
 -1200 -612 l 1,2,-1
 -1412 -400 l 1,3,-1
 -1200 -188 l 1,0,-1
EndSplineSet
EndChar

StartChar: u11A34.wide
Encoding: 1114115 -1 190
Width: 0
GlyphClass: 2
Flags: W
AnchorPoint: "vowel-below" -200 0 mark 0
AnchorPoint: "vowel-below-mkmk" -200 0 mark 0
LayerCount: 2
Fore
SplineSet
-539 -617 m 0,1,2
 -500 -653 -500 -653 -500 -699 c 1,3,4
 -526 -752 -526 -752 -593 -729 c 1,5,6
 -974 -496 -974 -496 -1400 -446 c 0,7,8
 -1618 -424 -1618 -424 -1763 -468 c 0,9,10
 -1865 -500 -1865 -500 -1900 -412 c 1,11,12
 -1900 -294 -1900 -294 -1823 -258 c 0,13,14
 -1649 -180 -1649 -180 -1397 -207 c 0,15,0
 -894 -260 -894 -260 -539 -617 c 0,1,2
EndSplineSet
EndChar

StartChar: u11A35.wide
Encoding: 1114116 -1 191
Width: 0
GlyphClass: 2
Flags: W
LayerCount: 2
Fore
SplineSet
-1900 2100 m 1,1,2
 -1500 1900 -1500 1900 -1200 1900 c 256,3,4
 -900 1900 -900 1900 -500 2100 c 1,5,6
 -700 1700 -700 1700 -1200 1700 c 256,7,0
 -1700 1700 -1700 1700 -1900 2100 c 1,1,2
-1200 2000 m 256,8,9
 -1304 2000 -1304 2000 -1377 2073 c 128,-1,10
 -1450 2146 -1450 2146 -1450 2250 c 256,11,12
 -1450 2354 -1450 2354 -1377 2427 c 128,-1,13
 -1304 2500 -1304 2500 -1200 2500 c 256,14,15
 -1096 2500 -1096 2500 -1023 2427 c 128,-1,16
 -950 2354 -950 2354 -950 2250 c 256,17,18
 -950 2146 -950 2146 -1023 2073 c 128,-1,19
 -1096 2000 -1096 2000 -1200 2000 c 256,8,9
-1200 2100 m 256,20,21
 -1138 2100 -1138 2100 -1094 2144 c 128,-1,22
 -1050 2188 -1050 2188 -1050 2250 c 256,23,24
 -1050 2312 -1050 2312 -1094 2356 c 128,-1,25
 -1138 2400 -1138 2400 -1200 2400 c 256,26,27
 -1262 2400 -1262 2400 -1306 2356 c 128,-1,28
 -1350 2312 -1350 2312 -1350 2250 c 256,29,30
 -1350 2188 -1350 2188 -1306 2144 c 128,-1,31
 -1262 2100 -1262 2100 -1200 2100 c 256,20,21
EndSplineSet
EndChar

StartChar: u11A36.wide
Encoding: 1114117 -1 192
Width: 0
GlyphClass: 2
Flags: W
LayerCount: 2
Fore
SplineSet
-1900 2100 m 1,1,2
 -1500 1900 -1500 1900 -1200 1900 c 256,3,4
 -900 1900 -900 1900 -500 2100 c 1,5,6
 -700 1700 -700 1700 -1200 1700 c 256,7,0
 -1700 1700 -1700 1700 -1900 2100 c 1,1,2
-1200 2000 m 256,8,9
 -1304 2000 -1304 2000 -1377 2073 c 128,-1,10
 -1450 2146 -1450 2146 -1450 2250 c 256,11,12
 -1450 2354 -1450 2354 -1377 2427 c 128,-1,13
 -1304 2500 -1304 2500 -1200 2500 c 256,14,15
 -1096 2500 -1096 2500 -1023 2427 c 128,-1,16
 -950 2354 -950 2354 -950 2250 c 256,17,18
 -950 2146 -950 2146 -1023 2073 c 128,-1,19
 -1096 2000 -1096 2000 -1200 2000 c 256,8,9
-1200 2100 m 256,20,21
 -1138 2100 -1138 2100 -1094 2144 c 128,-1,22
 -1050 2188 -1050 2188 -1050 2250 c 256,23,24
 -1050 2312 -1050 2312 -1094 2356 c 128,-1,25
 -1138 2400 -1138 2400 -1200 2400 c 256,26,27
 -1262 2400 -1262 2400 -1306 2356 c 128,-1,28
 -1350 2312 -1350 2312 -1350 2250 c 256,29,30
 -1350 2188 -1350 2188 -1306 2144 c 128,-1,31
 -1262 2100 -1262 2100 -1200 2100 c 256,20,21
-950 2800 m 1,33,34
 -950 2696 -950 2696 -1023 2623 c 128,-1,35
 -1096 2550 -1096 2550 -1200 2550 c 256,36,37
 -1304 2550 -1304 2550 -1377 2623 c 128,-1,38
 -1450 2696 -1450 2696 -1444 2804 c 1,39,40
 -1434 2886 -1434 2886 -1331 2951 c 1,41,42
 -1368 2875 -1368 2875 -1366 2800 c 1,43,44
 -1350 2726 -1350 2726 -1306 2688 c 128,-1,45
 -1262 2650 -1262 2650 -1200 2650 c 256,46,47
 -1138 2650 -1138 2650 -1094 2694 c 128,-1,48
 -1050 2738 -1050 2738 -1050 2800 c 256,49,50
 -1050 2862 -1050 2862 -1094 2906 c 1,51,52
 -1160 2952 -1160 2952 -1223 3002 c 1,53,54
 -1298 3075 -1298 3075 -1298 3161 c 1,55,56
 -1302 3198 -1302 3198 -1297 3244 c 1,57,58
 -1275 3192 -1275 3192 -1250 3145 c 0,59,60
 -1220 3096 -1220 3096 -1180 3061 c 1,61,62
 -1141 3037 -1141 3037 -1108 3020 c 0,63,64
 -1069 2998 -1069 2998 -1023 2969 c 0,65,32
 -940 2908 -940 2908 -950 2800 c 1,33,34
EndSplineSet
EndChar

StartChar: u11A37.wide
Encoding: 1114118 -1 193
Width: 0
GlyphClass: 2
Flags: W
LayerCount: 2
Fore
SplineSet
-1900 2100 m 1,0,1
 -1500 1900 -1500 1900 -1200 1900 c 256,2,3
 -900 1900 -900 1900 -500 2100 c 1,4,5
 -700 1700 -700 1700 -1200 1700 c 256,6,7
 -1700 1700 -1700 1700 -1900 2100 c 1,0,1
-950 2250 m 1,9,10
 -950 2146 -950 2146 -1023 2073 c 128,-1,11
 -1096 2000 -1096 2000 -1200 2000 c 256,12,13
 -1304 2000 -1304 2000 -1377 2073 c 128,-1,14
 -1450 2146 -1450 2146 -1444 2254 c 1,15,16
 -1434 2336 -1434 2336 -1331 2401 c 1,17,18
 -1368 2325 -1368 2325 -1366 2250 c 1,19,20
 -1350 2176 -1350 2176 -1306 2138 c 128,-1,21
 -1262 2100 -1262 2100 -1200 2100 c 256,22,23
 -1138 2100 -1138 2100 -1094 2144 c 128,-1,24
 -1050 2188 -1050 2188 -1050 2250 c 256,25,26
 -1050 2312 -1050 2312 -1094 2356 c 1,27,28
 -1160 2402 -1160 2402 -1223 2452 c 1,29,30
 -1298 2525 -1298 2525 -1298 2611 c 1,31,32
 -1302 2648 -1302 2648 -1297 2694 c 1,33,34
 -1275 2642 -1275 2642 -1250 2595 c 0,35,36
 -1220 2546 -1220 2546 -1180 2511 c 1,37,38
 -1141 2487 -1141 2487 -1108 2470 c 0,39,40
 -1069 2448 -1069 2448 -1023 2419 c 0,41,8
 -940 2358 -940 2358 -950 2250 c 1,9,10
EndSplineSet
EndChar

StartChar: u11A38.wide
Encoding: 1114119 -1 194
Width: 0
GlyphClass: 2
Flags: W
LayerCount: 2
Fore
SplineSet
-1200 1700 m 256,0,1
 -1304 1700 -1304 1700 -1377 1773 c 128,-1,2
 -1450 1846 -1450 1846 -1450 1950 c 256,3,4
 -1450 2054 -1450 2054 -1377 2127 c 128,-1,5
 -1304 2200 -1304 2200 -1200 2200 c 256,6,7
 -1096 2200 -1096 2200 -1023 2127 c 128,-1,8
 -950 2054 -950 2054 -950 1950 c 256,9,10
 -950 1846 -950 1846 -1023 1773 c 128,-1,11
 -1096 1700 -1096 1700 -1200 1700 c 256,0,1
-1200 1800 m 256,12,13
 -1138 1800 -1138 1800 -1094 1844 c 128,-1,14
 -1050 1888 -1050 1888 -1050 1950 c 256,15,16
 -1050 2012 -1050 2012 -1094 2056 c 128,-1,17
 -1138 2100 -1138 2100 -1200 2100 c 256,18,19
 -1262 2100 -1262 2100 -1306 2056 c 128,-1,20
 -1350 2012 -1350 2012 -1350 1950 c 256,21,22
 -1350 1888 -1350 1888 -1306 1844 c 128,-1,23
 -1262 1800 -1262 1800 -1200 1800 c 256,12,13
EndSplineSet
EndChar

StartChar: u11A01.wide
Encoding: 1114171 -1 195
Width: 2400
GlyphClass: 4
Flags: W
LayerCount: 2
Fore
SplineSet
2200 1500 m 1025,0,-1
1200 2100 m 256,1,2
 1814 2100 1814 2100 2200 1500 c 1,3,4
 1529 1850 1529 1850 1200 1850 c 256,5,6
 871 1850 871 1850 200 1600 c 1,7,8
 586 2100 586 2100 1200 2100 c 256,1,2
EndSplineSet
EndChar

StartChar: u11A00.11A01.11A07
Encoding: 1114212 -1 196
Width: 2400
GlyphClass: 2
Flags: W
LayerCount: 2
Fore
SplineSet
2200 0 m 1,0,-1
 1400 0 l 1,1,-1
 1400 1300 l 1,2,-1
 1000 1300 l 1,3,-1
 1000 0 l 1,4,-1
 200 0 l 1,5,-1
 200 1500 l 1,6,-1
 400 1500 l 1,7,-1
 400 200 l 1,8,-1
 800 200 l 1,9,-1
 800 1500 l 1,10,-1
 1600 1500 l 1,11,-1
 1600 200 l 1,12,-1
 2000 200 l 1,13,-1
 2000 1500 l 1,14,-1
 2100 1500 l 1,15,-1
 2100 1551 l 1,16,17
 1504 1850 1504 1850 1200 1850 c 0,18,19
 871 1850 871 1850 200 1600 c 1,20,21
 586 2100 586 2100 1200 2100 c 0,22,23
 1737 2100 1737 2100 2100 1641 c 1,24,-1
 2100 2000 l 1,25,-1
 2600 2000 l 1,26,-1
 2600 1800 l 1,27,-1
 2200 1800 l 1,28,-1
 2200 0 l 1,0,-1
EndSplineSet
EndChar

StartChar: u11A0B.11A01.11A07
Encoding: 1114213 -1 197
Width: 1800
GlyphClass: 2
Flags: W
LayerCount: 2
Fore
SplineSet
1600 0 m 1,0,-1
 1400 0 l 1,1,-1
 1400 1300 l 1,2,-1
 1000 1300 l 1,3,-1
 1000 0 l 1,4,-1
 200 0 l 1,5,-1
 200 800 l 1,6,-1
 400 800 l 1,7,-1
 400 200 l 1,8,-1
 800 200 l 1,9,-1
 800 1300 l 1,10,-1
 200 1300 l 1,11,-1
 200 1500 l 1,12,-1
 1500 1500 l 1,13,-1
 1500 1583 l 1,14,15
 1162 1850 1162 1850 900 1850 c 0,16,17
 600 1850 600 1850 200 1600 c 1,18,19
 400 2100 400 2100 900 2100 c 0,20,21
 1292 2100 1292 2100 1500 1730 c 1,22,-1
 1500 2000 l 1,23,-1
 2000 2000 l 1,24,-1
 2000 1800 l 1,25,-1
 1600 1800 l 1,26,-1
 1600 0 l 1,0,-1
EndSplineSet
EndChar

StartChar: u11A0C.11A01.11A07
Encoding: 1114214 -1 198
Width: 1800
GlyphClass: 2
Flags: W
LayerCount: 2
Fore
SplineSet
1400 1300 m 1,0,-1
 1000 1300 l 1,1,-1
 1000 200 l 1,2,-1
 1400 200 l 1,3,-1
 1400 1300 l 1,0,-1
1600 0 m 1,4,-1
 800 0 l 1,5,-1
 800 1300 l 1,6,-1
 400 1300 l 1,7,-1
 400 0 l 1,8,-1
 200 0 l 1,9,-1
 200 1500 l 1,10,-1
 1500 1500 l 1,11,-1
 1500 1583 l 1,12,13
 1162 1850 1162 1850 900 1850 c 0,14,15
 600 1850 600 1850 200 1600 c 1,16,17
 400 2100 400 2100 900 2100 c 0,18,19
 1292 2100 1292 2100 1500 1730 c 1,20,-1
 1500 2000 l 1,21,-1
 2000 2000 l 1,22,-1
 2000 1800 l 1,23,-1
 1600 1800 l 1,24,-1
 1600 0 l 1,4,-1
EndSplineSet
EndChar

StartChar: u11A0D.11A01.11A07
Encoding: 1114215 -1 199
Width: 1800
GlyphClass: 2
Flags: W
LayerCount: 2
Fore
SplineSet
400 1300 m 1,0,-1
 400 200 l 1,1,-1
 800 200 l 1,2,-1
 800 1300 l 1,3,-1
 400 1300 l 1,0,-1
1600 0 m 1,4,-1
 1400 0 l 1,5,-1
 1400 1300 l 1,6,-1
 1000 1300 l 1,7,-1
 1000 0 l 1,8,-1
 200 0 l 1,9,-1
 200 1500 l 1,10,-1
 1500 1500 l 1,11,-1
 1500 1583 l 1,12,13
 1162 1850 1162 1850 900 1850 c 0,14,15
 600 1850 600 1850 200 1600 c 1,16,17
 400 2100 400 2100 900 2100 c 0,18,19
 1292 2100 1292 2100 1500 1730 c 1,20,-1
 1500 2000 l 1,21,-1
 2000 2000 l 1,22,-1
 2000 1800 l 1,23,-1
 1600 1800 l 1,24,-1
 1600 0 l 1,4,-1
EndSplineSet
EndChar

StartChar: u11A0E.11A01.11A07
Encoding: 1114216 -1 200
Width: 1800
GlyphClass: 2
Flags: W
LayerCount: 2
Fore
SplineSet
400 600 m 1,0,-1
 400 200 l 1,1,-1
 800 200 l 1,2,-1
 800 600 l 1,3,-1
 400 600 l 1,0,-1
1600 0 m 1,4,-1
 1400 0 l 1,5,-1
 1400 1300 l 1,6,-1
 1000 1300 l 1,7,-1
 1000 0 l 1,8,-1
 200 0 l 1,9,-1
 200 800 l 1,10,-1
 800 800 l 1,11,-1
 800 1300 l 1,12,-1
 200 1300 l 1,13,-1
 200 1500 l 1,14,-1
 1500 1500 l 1,15,-1
 1500 1583 l 1,16,17
 1162 1850 1162 1850 900 1850 c 0,18,19
 600 1850 600 1850 200 1600 c 1,20,21
 400 2100 400 2100 900 2100 c 0,22,23
 1292 2100 1292 2100 1500 1730 c 1,24,-1
 1500 2000 l 1,25,-1
 2000 2000 l 1,26,-1
 2000 1800 l 1,27,-1
 1600 1800 l 1,28,-1
 1600 0 l 1,4,-1
EndSplineSet
EndChar

StartChar: u11A0F.11A01.11A07
Encoding: 1114217 -1 201
Width: 1800
GlyphClass: 2
Flags: W
LayerCount: 2
Fore
SplineSet
1600 650 m 1,0,-1
 400 650 l 1,1,-1
 400 200 l 1,2,-1
 1600 200 l 1,3,-1
 1600 0 l 1,4,-1
 200 0 l 1,5,-1
 200 850 l 1,6,-1
 1400 850 l 1,7,-1
 1400 1300 l 1,8,-1
 200 1300 l 1,9,-1
 200 1500 l 1,10,-1
 1500 1500 l 1,11,-1
 1500 1583 l 1,12,13
 1162 1850 1162 1850 900 1850 c 0,14,15
 600 1850 600 1850 200 1600 c 1,16,17
 400 2100 400 2100 900 2100 c 0,18,19
 1292 2100 1292 2100 1500 1730 c 1,20,-1
 1500 2000 l 1,21,-1
 2000 2000 l 1,22,-1
 2000 1800 l 1,23,-1
 1600 1800 l 1,24,-1
 1600 650 l 1,0,-1
EndSplineSet
EndChar

StartChar: u11A10.11A01.11A07
Encoding: 1114218 -1 202
Width: 1800
GlyphClass: 2
Flags: W
LayerCount: 2
Fore
SplineSet
1000 200 m 1,0,-1
 1400 200 l 1,1,-1
 1400 1300 l 1,2,-1
 1000 1300 l 1,3,-1
 1000 200 l 1,0,-1
1600 0 m 1,4,-1
 200 0 l 1,5,-1
 200 200 l 1,6,-1
 800 200 l 1,7,-1
 800 1300 l 1,8,-1
 200 1300 l 1,9,-1
 200 1500 l 1,10,-1
 1500 1500 l 1,11,-1
 1500 1583 l 1,12,13
 1162 1850 1162 1850 900 1850 c 0,14,15
 600 1850 600 1850 200 1600 c 1,16,17
 400 2100 400 2100 900 2100 c 0,18,19
 1292 2100 1292 2100 1500 1730 c 1,20,-1
 1500 2000 l 1,21,-1
 2000 2000 l 1,22,-1
 2000 1800 l 1,23,-1
 1600 1800 l 1,24,-1
 1600 0 l 1,4,-1
EndSplineSet
EndChar

StartChar: u11A11.11A01.11A07
Encoding: 1114219 -1 203
Width: 1800
GlyphClass: 2
Flags: W
LayerCount: 2
Fore
SplineSet
1000 200 m 1,0,-1
 1400 200 l 1,1,-1
 1400 1300 l 1,2,-1
 1000 1300 l 1,3,-1
 1000 200 l 1,0,-1
400 200 m 1,4,-1
 800 200 l 1,5,-1
 800 1300 l 1,6,-1
 400 1300 l 1,7,-1
 400 200 l 1,4,-1
1600 0 m 1,8,-1
 200 0 l 1,9,-1
 200 1500 l 1,10,-1
 1500 1500 l 1,11,-1
 1500 1583 l 1,12,13
 1162 1850 1162 1850 900 1850 c 0,14,15
 600 1850 600 1850 200 1600 c 1,16,17
 400 2100 400 2100 900 2100 c 0,18,19
 1292 2100 1292 2100 1500 1730 c 1,20,-1
 1500 2000 l 1,21,-1
 2000 2000 l 1,22,-1
 2000 1800 l 1,23,-1
 1600 1800 l 1,24,-1
 1600 0 l 1,8,-1
EndSplineSet
EndChar

StartChar: u11A12.11A01.11A07
Encoding: 1114220 -1 204
Width: 1800
GlyphClass: 2
Flags: W
LayerCount: 2
Fore
SplineSet
1600 1300 m 1,0,-1
 400 1300 l 1,1,-1
 400 850 l 1,2,-1
 1600 850 l 1,3,-1
 1600 650 l 1,4,-1
 400 650 l 1,5,-1
 400 200 l 1,6,-1
 1600 200 l 1,7,-1
 1600 0 l 1,8,-1
 200 0 l 1,9,-1
 200 1500 l 1,10,-1
 1500 1500 l 1,11,-1
 1500 1583 l 1,12,13
 1162 1850 1162 1850 900 1850 c 0,14,15
 600 1850 600 1850 200 1600 c 1,16,17
 400 2100 400 2100 900 2100 c 0,18,19
 1292 2100 1292 2100 1500 1730 c 1,20,-1
 1500 2000 l 1,21,-1
 2000 2000 l 1,22,-1
 2000 1800 l 1,23,-1
 1600 1800 l 1,24,-1
 1600 1300 l 1,0,-1
EndSplineSet
EndChar

StartChar: u11A13.11A01.11A07
Encoding: 1114221 -1 205
Width: 1800
GlyphClass: 2
Flags: W
LayerCount: 2
Fore
SplineSet
1600 0 m 1,0,-1
 1400 0 l 1,1,-1
 1400 650 l 1,2,-1
 400 650 l 1,3,-1
 400 200 l 1,4,-1
 1000 200 l 1,5,-1
 1000 0 l 1,6,-1
 200 0 l 1,7,-1
 200 850 l 1,8,-1
 1400 850 l 1,9,-1
 1400 1300 l 1,10,-1
 200 1300 l 1,11,-1
 200 1500 l 1,12,-1
 1500 1500 l 1,13,-1
 1500 1583 l 1,14,15
 1162 1850 1162 1850 900 1850 c 0,16,17
 600 1850 600 1850 200 1600 c 1,18,19
 400 2100 400 2100 900 2100 c 0,20,21
 1292 2100 1292 2100 1500 1730 c 1,22,-1
 1500 2000 l 1,23,-1
 2000 2000 l 1,24,-1
 2000 1800 l 1,25,-1
 1600 1800 l 1,26,-1
 1600 0 l 1,0,-1
EndSplineSet
EndChar

StartChar: u11A14.11A01.11A07
Encoding: 1114222 -1 206
Width: 1800
GlyphClass: 2
Flags: W
LayerCount: 2
Fore
SplineSet
1600 1300 m 1,0,-1
 400 1300 l 1,1,-1
 400 1050 l 1,2,-1
 1600 850 l 1,3,-1
 850 0 l 1,4,-1
 600 0 l 1,5,-1
 1200 690 l 1,6,-1
 400 850 l 1,7,-1
 400 0 l 1,8,-1
 200 0 l 1,9,-1
 200 1500 l 1,10,-1
 1500 1500 l 1,11,-1
 1500 1583 l 1,12,13
 1162 1850 1162 1850 900 1850 c 0,14,15
 600 1850 600 1850 200 1600 c 1,16,17
 400 2100 400 2100 900 2100 c 0,18,19
 1292 2100 1292 2100 1500 1730 c 1,20,-1
 1500 2000 l 1,21,-1
 2000 2000 l 1,22,-1
 2000 1800 l 1,23,-1
 1600 1800 l 1,24,-1
 1600 1300 l 1,0,-1
EndSplineSet
EndChar

StartChar: u11A15.11A01.11A07
Encoding: 1114223 -1 207
Width: 1800
GlyphClass: 2
Flags: W
LayerCount: 2
Fore
SplineSet
900 633 m 1,0,-1
 500 200 l 1,1,-1
 1300 200 l 1,2,-1
 900 633 l 1,0,-1
500 1300 m 1,3,-1
 900 867 l 1,4,-1
 1300 1300 l 1,5,-1
 500 1300 l 1,3,-1
1500 1730 m 1,6,-1
 1500 2000 l 1,7,-1
 2000 2000 l 1,8,-1
 2000 1800 l 1,9,-1
 1600 1800 l 1,10,-1
 1600 1500 l 1,11,-1
 1700 1500 l 1,12,-1
 1008 750 l 1,13,-1
 1700 0 l 1,14,-1
 100 0 l 1,15,-1
 792 750 l 1,16,-1
 100 1500 l 1,17,-1
 1500 1500 l 1,18,-1
 1500 1583 l 1,19,20
 1162 1850 1162 1850 900 1850 c 0,21,22
 600 1850 600 1850 200 1600 c 1,23,24
 400 2100 400 2100 900 2100 c 0,25,26
 1292 2100 1292 2100 1500 1730 c 1,6,-1
EndSplineSet
EndChar

StartChar: u11A16.11A01.11A07
Encoding: 1114224 -1 208
Width: 1800
GlyphClass: 2
Flags: W
LayerCount: 2
Fore
SplineSet
1600 1300 m 1,0,-1
 650 1300 l 1,1,-1
 1600 0 l 1,2,-1
 200 0 l 1,3,-1
 200 200 l 1,4,-1
 1150 200 l 1,5,-1
 200 1500 l 1,6,-1
 1500 1500 l 1,7,-1
 1500 1583 l 1,8,9
 1162 1850 1162 1850 900 1850 c 0,10,11
 600 1850 600 1850 200 1600 c 1,12,13
 400 2100 400 2100 900 2100 c 0,14,15
 1292 2100 1292 2100 1500 1730 c 1,16,-1
 1500 2000 l 1,17,-1
 2000 2000 l 1,18,-1
 2000 1800 l 1,19,-1
 1600 1800 l 1,20,-1
 1600 1300 l 1,0,-1
EndSplineSet
EndChar

StartChar: u11A17.11A01.11A07
Encoding: 1114225 -1 209
Width: 1800
GlyphClass: 2
Flags: W
LayerCount: 2
Fore
SplineSet
1600 800 m 1,0,-1
 1400 800 l 1,1,-1
 1400 1300 l 1,2,-1
 650 1300 l 1,3,-1
 1600 0 l 1,4,-1
 200 0 l 1,5,-1
 200 200 l 1,6,-1
 1150 200 l 1,7,-1
 200 1500 l 1,8,-1
 1500 1500 l 1,9,-1
 1500 1583 l 1,10,11
 1162 1850 1162 1850 900 1850 c 0,12,13
 600 1850 600 1850 200 1600 c 1,14,15
 400 2100 400 2100 900 2100 c 0,16,17
 1292 2100 1292 2100 1500 1730 c 1,18,-1
 1500 2000 l 1,19,-1
 2000 2000 l 1,20,-1
 2000 1800 l 1,21,-1
 1600 1800 l 1,22,-1
 1600 800 l 1,0,-1
EndSplineSet
EndChar

StartChar: u11A18.11A01.11A07
Encoding: 1114226 -1 210
Width: 1800
GlyphClass: 2
Flags: W
LayerCount: 2
Fore
SplineSet
1400 200 m 1,0,-1
 1400 1000 l 1,1,-1
 600 600 l 1,2,-1
 1400 200 l 1,0,-1
1600 0 m 1,3,-1
 1400 0 l 1,4,-1
 200 600 l 1,5,-1
 1400 1200 l 1,6,-1
 1400 1300 l 1,7,-1
 200 1300 l 1,8,-1
 200 1500 l 1,9,-1
 1500 1500 l 1,10,-1
 1500 1583 l 1,11,12
 1162 1850 1162 1850 900 1850 c 0,13,14
 600 1850 600 1850 200 1600 c 1,15,16
 400 2100 400 2100 900 2100 c 0,17,18
 1292 2100 1292 2100 1500 1730 c 1,19,-1
 1500 2000 l 1,20,-1
 2000 2000 l 1,21,-1
 2000 1800 l 1,22,-1
 1600 1800 l 1,23,-1
 1600 0 l 1,3,-1
EndSplineSet
EndChar

StartChar: u11A19.11A01.11A07
Encoding: 1114227 -1 211
Width: 1800
GlyphClass: 2
Flags: W
LayerCount: 2
Fore
SplineSet
1600 1300 m 1,0,-1
 400 1300 l 1,1,-1
 400 850 l 1,2,-1
 1600 850 l 1,3,-1
 1600 0 l 1,4,-1
 1400 0 l 1,5,-1
 1400 650 l 1,6,-1
 400 650 l 1,7,-1
 400 0 l 1,8,-1
 200 0 l 1,9,-1
 200 1500 l 1,10,-1
 1500 1500 l 1,11,-1
 1500 1583 l 1,12,13
 1162 1850 1162 1850 900 1850 c 0,14,15
 600 1850 600 1850 200 1600 c 1,16,17
 400 2100 400 2100 900 2100 c 0,18,19
 1292 2100 1292 2100 1500 1730 c 1,20,-1
 1500 2000 l 1,21,-1
 2000 2000 l 1,22,-1
 2000 1800 l 1,23,-1
 1600 1800 l 1,24,-1
 1600 1300 l 1,0,-1
EndSplineSet
EndChar

StartChar: u11A1A.11A01.11A07
Encoding: 1114228 -1 212
Width: 1800
GlyphClass: 2
Flags: W
LayerCount: 2
Fore
SplineSet
400 1300 m 1,0,-1
 400 850 l 1,1,-1
 1400 850 l 1,2,-1
 1400 1300 l 1,3,-1
 400 1300 l 1,0,-1
1400 650 m 1,4,-1
 400 650 l 1,5,-1
 400 200 l 1,6,-1
 1400 200 l 1,7,-1
 1400 650 l 1,4,-1
1600 0 m 1,8,-1
 200 0 l 1,9,-1
 200 1500 l 1,10,-1
 1500 1500 l 1,11,-1
 1500 1583 l 1,12,13
 1162 1850 1162 1850 900 1850 c 0,14,15
 600 1850 600 1850 200 1600 c 1,16,17
 400 2100 400 2100 900 2100 c 0,18,19
 1292 2100 1292 2100 1500 1730 c 1,20,-1
 1500 2000 l 1,21,-1
 2000 2000 l 1,22,-1
 2000 1800 l 1,23,-1
 1600 1800 l 1,24,-1
 1600 0 l 1,8,-1
EndSplineSet
EndChar

StartChar: u11A1B.11A01.11A07
Encoding: 1114229 -1 213
Width: 1800
GlyphClass: 2
Flags: W
LayerCount: 2
Fore
SplineSet
1600 1300 m 1,0,-1
 400 1300 l 1,1,-1
 400 850 l 1,2,-1
 1600 850 l 1,3,-1
 1600 0 l 1,4,-1
 200 0 l 1,5,-1
 200 200 l 1,6,-1
 1400 200 l 1,7,-1
 1400 650 l 1,8,-1
 200 650 l 1,9,-1
 200 1500 l 1,10,-1
 1500 1500 l 1,11,-1
 1500 1583 l 1,12,13
 1162 1850 1162 1850 900 1850 c 0,14,15
 600 1850 600 1850 200 1600 c 1,16,17
 400 2100 400 2100 900 2100 c 0,18,19
 1292 2100 1292 2100 1500 1730 c 1,20,-1
 1500 2000 l 1,21,-1
 2000 2000 l 1,22,-1
 2000 1800 l 1,23,-1
 1600 1800 l 1,24,-1
 1600 1300 l 1,0,-1
EndSplineSet
EndChar

StartChar: u11A1C.11A01.11A07
Encoding: 1114230 -1 214
Width: 1800
GlyphClass: 2
Flags: W
LayerCount: 2
Fore
SplineSet
1500 1500 m 1,0,-1
 1500 1583 l 1,1,2
 1162 1850 1162 1850 900 1850 c 0,3,4
 600 1850 600 1850 200 1600 c 1,5,6
 400 2100 400 2100 900 2100 c 0,7,8
 1292 2100 1292 2100 1500 1730 c 1,9,-1
 1500 2000 l 1,10,-1
 2000 2000 l 1,11,-1
 2000 1800 l 1,12,-1
 1600 1800 l 1,13,-1
 1600 1300 l 1,14,-1
 400 1300 l 1,15,-1
 400 900 l 1,16,-1
 1600 900 l 1,17,-1
 1600 800 l 1,18,19
 1403 678 1403 678 1096 500 c 0,20,21
 812 334 812 334 1099 211 c 1,22,23
 1327 99 1327 99 1600 0 c 1,24,-1
 1400 0 l 1,25,26
 1009 71 1009 71 803 150 c 1,27,28
 518 334 518 334 824 528 c 0,29,30
 994 632 994 632 1150 700 c 1,31,-1
 400 700 l 1,32,-1
 400 0 l 1,33,-1
 200 0 l 1,34,-1
 200 1500 l 1,35,-1
 1500 1500 l 1,0,-1
EndSplineSet
EndChar

StartChar: u11A1D.11A01.11A07
Encoding: 1114231 -1 215
Width: 1800
GlyphClass: 2
Flags: W
LayerCount: 2
Fore
SplineSet
800 650 m 1,0,-1
 400 650 l 1,1,-1
 400 200 l 1,2,-1
 800 200 l 1,3,-1
 800 650 l 1,0,-1
1600 0 m 1,4,-1
 1400 0 l 1,5,-1
 1400 650 l 1,6,-1
 1000 650 l 1,7,-1
 1000 0 l 1,8,-1
 200 0 l 1,9,-1
 200 850 l 1,10,-1
 1400 850 l 1,11,-1
 1400 1300 l 1,12,-1
 200 1300 l 1,13,-1
 200 1500 l 1,14,-1
 1500 1500 l 1,15,-1
 1500 1583 l 1,16,17
 1162 1850 1162 1850 900 1850 c 0,18,19
 600 1850 600 1850 200 1600 c 1,20,21
 400 2100 400 2100 900 2100 c 0,22,23
 1292 2100 1292 2100 1500 1730 c 1,24,-1
 1500 2000 l 1,25,-1
 2000 2000 l 1,26,-1
 2000 1800 l 1,27,-1
 1600 1800 l 1,28,-1
 1600 0 l 1,4,-1
EndSplineSet
EndChar

StartChar: u11A1E.11A01.11A07
Encoding: 1114232 -1 216
Width: 1800
GlyphClass: 2
Flags: W
LayerCount: 2
Fore
SplineSet
1600 0 m 1,0,-1
 200 0 l 1,1,-1
 200 1500 l 1,2,-1
 400 1500 l 1,3,-1
 400 200 l 1,4,-1
 1400 200 l 1,5,-1
 1400 1500 l 1,6,-1
 1500 1500 l 1,7,-1
 1500 1583 l 1,8,9
 1162 1850 1162 1850 900 1850 c 0,10,11
 600 1850 600 1850 200 1600 c 1,12,13
 400 2100 400 2100 900 2100 c 0,14,15
 1292 2100 1292 2100 1500 1730 c 1,16,-1
 1500 2000 l 1,17,-1
 2000 2000 l 1,18,-1
 2000 1800 l 1,19,-1
 1600 1800 l 1,20,-1
 1600 0 l 1,0,-1
EndSplineSet
EndChar

StartChar: u11A1F.11A01.11A07
Encoding: 1114233 -1 217
Width: 1800
GlyphClass: 2
Flags: W
LayerCount: 2
Fore
SplineSet
1400 200 m 1,0,-1
 1400 1300 l 1,1,-1
 1000 1300 l 1,2,-1
 1000 200 l 1,3,-1
 1400 200 l 1,0,-1
1600 0 m 1,4,-1
 200 0 l 1,5,-1
 200 1500 l 1,6,-1
 400 1500 l 1,7,-1
 400 200 l 1,8,-1
 800 200 l 1,9,-1
 800 1500 l 1,10,-1
 1500 1500 l 1,11,-1
 1500 1583 l 1,12,13
 1162 1850 1162 1850 900 1850 c 0,14,15
 600 1850 600 1850 200 1600 c 1,16,17
 400 2100 400 2100 900 2100 c 0,18,19
 1292 2100 1292 2100 1500 1730 c 1,20,-1
 1500 2000 l 1,21,-1
 2000 2000 l 1,22,-1
 2000 1800 l 1,23,-1
 1600 1800 l 1,24,-1
 1600 0 l 1,4,-1
EndSplineSet
EndChar

StartChar: u11A20.11A01.11A07
Encoding: 1114234 -1 218
Width: 1800
GlyphClass: 2
Flags: W
LayerCount: 2
Fore
SplineSet
1400 200 m 1,0,-1
 1400 1300 l 1,1,-1
 400 1300 l 1,2,-1
 400 200 l 1,3,-1
 1400 200 l 1,0,-1
1600 0 m 1,4,-1
 200 0 l 1,5,-1
 200 1500 l 1,6,-1
 1500 1500 l 1,7,-1
 1500 1583 l 1,8,9
 1162 1850 1162 1850 900 1850 c 0,10,11
 600 1850 600 1850 200 1600 c 1,12,13
 400 2100 400 2100 900 2100 c 0,14,15
 1292 2100 1292 2100 1500 1730 c 1,16,-1
 1500 2000 l 1,17,-1
 2000 2000 l 1,18,-1
 2000 1800 l 1,19,-1
 1600 1800 l 1,20,-1
 1600 0 l 1,4,-1
EndSplineSet
EndChar

StartChar: u11A21.11A01.11A07
Encoding: 1114235 -1 219
Width: 1800
GlyphClass: 2
Flags: W
LayerCount: 2
Fore
SplineSet
1400 200 m 1,0,-1
 1400 1300 l 1,1,-1
 550 1300 l 1,2,3
 687 1148 687 1148 748 995 c 0,4,5
 828 796 828 796 778 596 c 0,6,7
 728 398 728 398 550 200 c 1,8,-1
 1400 200 l 1,0,-1
1600 0 m 1,9,-1
 200 0 l 1,10,11
 902 750 902 750 200 1500 c 1,12,-1
 1500 1500 l 1,13,-1
 1500 1583 l 1,14,15
 1162 1850 1162 1850 900 1850 c 0,16,17
 600 1850 600 1850 200 1600 c 1,18,19
 400 2100 400 2100 900 2100 c 0,20,21
 1292 2100 1292 2100 1500 1730 c 1,22,-1
 1500 2000 l 1,23,-1
 2000 2000 l 1,24,-1
 2000 1800 l 1,25,-1
 1600 1800 l 1,26,-1
 1600 0 l 1,9,-1
EndSplineSet
EndChar

StartChar: u11A22.11A01.11A07
Encoding: 1114236 -1 220
Width: 1800
GlyphClass: 2
Flags: W
LayerCount: 2
Fore
SplineSet
400 200 m 1,0,-1
 800 200 l 1,1,-1
 800 1300 l 1,2,-1
 400 1300 l 1,3,-1
 400 200 l 1,0,-1
1600 0 m 1,4,-1
 200 0 l 1,5,-1
 200 1500 l 1,6,-1
 1000 1500 l 1,7,-1
 1000 200 l 1,8,-1
 1400 200 l 1,9,-1
 1400 1500 l 1,10,-1
 1500 1500 l 1,11,-1
 1500 1583 l 1,12,13
 1162 1850 1162 1850 900 1850 c 0,14,15
 600 1850 600 1850 200 1600 c 1,16,17
 400 2100 400 2100 900 2100 c 0,18,19
 1292 2100 1292 2100 1500 1730 c 1,20,-1
 1500 2000 l 1,21,-1
 2000 2000 l 1,22,-1
 2000 1800 l 1,23,-1
 1600 1800 l 1,24,-1
 1600 0 l 1,4,-1
EndSplineSet
EndChar

StartChar: u11A23.11A01.11A07
Encoding: 1114237 -1 221
Width: 1800
GlyphClass: 2
Flags: W
LayerCount: 2
Fore
SplineSet
1000 200 m 1,0,-1
 1400 200 l 1,1,-1
 1400 1300 l 1,2,-1
 1000 1300 l 1,3,-1
 1000 200 l 1,0,-1
1600 1496 m 1,4,-1
 1893 1601 l 2,5,6
 1949 1620 1949 1620 1962 1567 c 1,7,8
 1985 1394 1985 1394 2180 1361 c 1,9,10
 2228 1336 2228 1336 2186 1294 c 0,11,12
 2099 1207 2099 1207 1997 1213 c 1,13,14
 1847 1250 1847 1250 1777 1452 c 1,15,-1
 1600 1386 l 1,16,-1
 1600 0 l 1,17,-1
 200 0 l 1,18,-1
 200 200 l 1,19,-1
 800 200 l 1,20,-1
 800 1300 l 1,21,-1
 200 1300 l 1,22,-1
 200 1500 l 1,23,-1
 1500 1500 l 1,24,-1
 1500 1583 l 1,25,26
 1162 1850 1162 1850 900 1850 c 0,27,28
 600 1850 600 1850 200 1600 c 1,29,30
 400 2100 400 2100 900 2100 c 0,31,32
 1292 2100 1292 2100 1500 1730 c 1,33,-1
 1500 2000 l 1,34,-1
 2000 2000 l 1,35,-1
 2000 1800 l 1,36,-1
 1600 1800 l 1,37,-1
 1600 1496 l 1,4,-1
EndSplineSet
EndChar

StartChar: u11A24.11A01.11A07
Encoding: 1114238 -1 222
Width: 1800
GlyphClass: 2
Flags: W
LayerCount: 2
Fore
SplineSet
1000 200 m 1,0,-1
 1400 200 l 1,1,-1
 1400 1300 l 1,2,-1
 1000 1300 l 1,3,-1
 1000 200 l 1,0,-1
400 200 m 1,4,-1
 800 200 l 1,5,-1
 800 1300 l 1,6,-1
 400 1300 l 1,7,-1
 400 200 l 1,4,-1
1600 1496 m 1,8,-1
 1893 1601 l 2,9,10
 1949 1620 1949 1620 1962 1567 c 1,11,12
 1985 1394 1985 1394 2180 1361 c 1,13,14
 2228 1336 2228 1336 2186 1294 c 0,15,16
 2099 1207 2099 1207 1997 1213 c 1,17,18
 1847 1250 1847 1250 1777 1452 c 1,19,-1
 1600 1386 l 1,20,-1
 1600 0 l 1,21,-1
 200 0 l 1,22,-1
 200 1500 l 1,23,-1
 1500 1500 l 1,24,-1
 1500 1583 l 1,25,26
 1162 1850 1162 1850 900 1850 c 0,27,28
 600 1850 600 1850 200 1600 c 1,29,30
 400 2100 400 2100 900 2100 c 0,31,32
 1292 2100 1292 2100 1500 1730 c 1,33,-1
 1500 2000 l 1,34,-1
 2000 2000 l 1,35,-1
 2000 1800 l 1,36,-1
 1600 1800 l 1,37,-1
 1600 1496 l 1,8,-1
EndSplineSet
EndChar

StartChar: u11A25.11A01.11A07
Encoding: 1114239 -1 223
Width: 1800
GlyphClass: 2
Flags: W
LayerCount: 2
Fore
SplineSet
1600 1496 m 1,0,-1
 1893 1601 l 2,1,2
 1949 1620 1949 1620 1962 1567 c 1,3,4
 1985 1394 1985 1394 2180 1361 c 1,5,6
 2228 1336 2228 1336 2186 1294 c 0,7,8
 2099 1207 2099 1207 1997 1213 c 1,9,10
 1847 1250 1847 1250 1777 1452 c 1,11,-1
 1600 1386 l 1,12,-1
 1600 1300 l 1,13,-1
 400 1300 l 1,14,-1
 400 850 l 1,15,-1
 1600 850 l 1,16,-1
 1600 650 l 1,17,-1
 400 650 l 1,18,-1
 400 200 l 1,19,-1
 1600 200 l 1,20,-1
 1600 0 l 1,21,-1
 200 0 l 1,22,-1
 200 1500 l 1,23,-1
 1500 1500 l 1,24,-1
 1500 1583 l 1,25,26
 1162 1850 1162 1850 900 1850 c 0,27,28
 600 1850 600 1850 200 1600 c 1,29,30
 400 2100 400 2100 900 2100 c 0,31,32
 1292 2100 1292 2100 1500 1730 c 1,33,-1
 1500 2000 l 1,34,-1
 2000 2000 l 1,35,-1
 2000 1800 l 1,36,-1
 1600 1800 l 1,37,-1
 1600 1496 l 1,0,-1
EndSplineSet
EndChar

StartChar: u11A26.11A01.11A07
Encoding: 1114240 -1 224
Width: 1800
GlyphClass: 2
Flags: W
LayerCount: 2
Fore
SplineSet
1600 1496 m 1,0,-1
 1893 1601 l 2,1,2
 1949 1620 1949 1620 1962 1567 c 1,3,4
 1985 1394 1985 1394 2180 1361 c 1,5,6
 2228 1336 2228 1336 2186 1294 c 0,7,8
 2099 1207 2099 1207 1997 1213 c 1,9,10
 1847 1250 1847 1250 1777 1452 c 1,11,-1
 1600 1386 l 1,12,-1
 1600 1300 l 1,13,-1
 400 1300 l 1,14,-1
 400 850 l 1,15,-1
 949 850 l 1,16,17
 972 932 972 932 1038 998 c 0,18,19
 1140 1100 1140 1100 1285 1100 c 256,20,21
 1430 1100 1430 1100 1532 997 c 0,22,23
 1575 955 1575 955 1600 905 c 1,24,-1
 1450 809 l 1,25,26
 1437 845 1437 845 1409 874 c 0,27,28
 1357 925 1357 925 1285 925 c 256,29,30
 1213 925 1213 925 1161.5 873.5 c 128,-1,31
 1110 822 1110 822 1110 750 c 256,32,33
 1110 678 1110 678 1161.5 626.5 c 128,-1,34
 1213 575 1213 575 1285 575 c 256,35,36
 1357 575 1357 575 1409 626 c 0,37,38
 1437 654 1437 654 1449 688 c 1,39,-1
 1601 597 l 1,40,41
 1575 546 1575 546 1532 503 c 0,42,43
 1430 400 1430 400 1285 400 c 256,44,45
 1140 400 1140 400 1038 503 c 0,46,47
 972 568 972 568 949 650 c 1,48,-1
 400 650 l 1,49,-1
 400 200 l 1,50,-1
 1600 200 l 1,51,-1
 1600 0 l 1,52,-1
 200 0 l 1,53,-1
 200 1500 l 1,54,-1
 1500 1500 l 1,55,-1
 1500 1583 l 1,56,57
 1162 1850 1162 1850 900 1850 c 0,58,59
 600 1850 600 1850 200 1600 c 1,60,61
 400 2100 400 2100 900 2100 c 0,62,63
 1292 2100 1292 2100 1500 1730 c 1,64,-1
 1500 2000 l 1,65,-1
 2000 2000 l 1,66,-1
 2000 1800 l 1,67,-1
 1600 1800 l 1,68,-1
 1600 1496 l 1,0,-1
EndSplineSet
EndChar

StartChar: u11A27.11A01.11A07
Encoding: 1114241 -1 225
Width: 1800
GlyphClass: 2
Flags: W
LayerCount: 2
Fore
SplineSet
1400 200 m 1,0,-1
 1400 650 l 1,1,-1
 1200 650 l 2,2,3
 900 650 900 650 900 425 c 256,4,5
 900 200 900 200 1200 200 c 2,6,-1
 1400 200 l 1,0,-1
1600 0 m 1,7,-1
 1200 0 l 2,8,9
 700 0 700 0 700 425 c 256,10,11
 700 850 700 850 1200 850 c 2,12,-1
 1400 850 l 1,13,-1
 1400 1300 l 1,14,-1
 400 1300 l 1,15,-1
 400 0 l 1,16,-1
 200 0 l 1,17,-1
 200 1500 l 1,18,-1
 1500 1500 l 1,19,-1
 1500 1583 l 1,20,21
 1162 1850 1162 1850 900 1850 c 0,22,23
 600 1850 600 1850 200 1600 c 1,24,25
 400 2100 400 2100 900 2100 c 0,26,27
 1292 2100 1292 2100 1500 1730 c 1,28,-1
 1500 2000 l 1,29,-1
 2000 2000 l 1,30,-1
 2000 1800 l 1,31,-1
 1600 1800 l 1,32,-1
 1600 0 l 1,7,-1
EndSplineSet
EndChar

StartChar: u11A28.11A01.11A07
Encoding: 1114242 -1 226
Width: 1800
GlyphClass: 2
Flags: W
LayerCount: 2
Fore
SplineSet
1600 0 m 1,0,-1
 200 0 l 1,1,-1
 200 200 l 1,2,-1
 1400 200 l 1,3,-1
 1400 650 l 1,4,-1
 200 650 l 1,5,-1
 200 850 l 1,6,-1
 1400 850 l 1,7,-1
 1400 1300 l 1,8,-1
 200 1300 l 1,9,-1
 200 1500 l 1,10,-1
 1500 1500 l 1,11,-1
 1500 1583 l 1,12,13
 1162 1850 1162 1850 900 1850 c 0,14,15
 600 1850 600 1850 200 1600 c 1,16,17
 400 2100 400 2100 900 2100 c 0,18,19
 1292 2100 1292 2100 1500 1730 c 1,20,-1
 1500 2000 l 1,21,-1
 2000 2000 l 1,22,-1
 2000 1800 l 1,23,-1
 1600 1800 l 1,24,-1
 1600 0 l 1,0,-1
EndSplineSet
EndChar

StartChar: u11A29.11A01.11A07
Encoding: 1114243 -1 227
Width: 1800
GlyphClass: 2
Flags: W
LayerCount: 2
Fore
SplineSet
1600 650 m 1,0,-1
 1000 650 l 1,1,-1
 1000 200 l 1,2,-1
 1600 200 l 1,3,-1
 1600 0 l 1,4,-1
 800 0 l 1,5,-1
 800 850 l 1,6,-1
 1400 850 l 1,7,-1
 1400 1300 l 1,8,-1
 400 1300 l 1,9,-1
 400 0 l 1,10,-1
 200 0 l 1,11,-1
 200 1500 l 1,12,-1
 1500 1500 l 1,13,-1
 1500 1583 l 1,14,15
 1162 1850 1162 1850 900 1850 c 0,16,17
 600 1850 600 1850 200 1600 c 1,18,19
 400 2100 400 2100 900 2100 c 0,20,21
 1292 2100 1292 2100 1500 1730 c 1,22,-1
 1500 2000 l 1,23,-1
 2000 2000 l 1,24,-1
 2000 1800 l 1,25,-1
 1600 1800 l 1,26,-1
 1600 650 l 1,0,-1
EndSplineSet
EndChar

StartChar: u11A2A.11A01.11A07
Encoding: 1114244 -1 228
Width: 1800
GlyphClass: 2
Flags: W
LayerCount: 2
Fore
SplineSet
1600 0 m 1,0,-1
 200 0 l 1,1,-1
 200 1500 l 1,2,-1
 400 1500 l 1,3,-1
 400 200 l 1,4,-1
 800 200 l 1,5,-1
 800 1500 l 1,6,-1
 1000 1500 l 1,7,-1
 1000 200 l 1,8,-1
 1400 200 l 1,9,-1
 1400 1500 l 1,10,-1
 1500 1500 l 1,11,-1
 1500 1583 l 1,12,13
 1162 1850 1162 1850 900 1850 c 0,14,15
 600 1850 600 1850 200 1600 c 1,16,17
 400 2100 400 2100 900 2100 c 0,18,19
 1292 2100 1292 2100 1500 1730 c 1,20,-1
 1500 2000 l 1,21,-1
 2000 2000 l 1,22,-1
 2000 1800 l 1,23,-1
 1600 1800 l 1,24,-1
 1600 0 l 1,0,-1
EndSplineSet
EndChar

StartChar: u11A2B.11A01.11A07
Encoding: 1114245 -1 229
Width: 1800
GlyphClass: 2
Flags: W
LayerCount: 2
Fore
SplineSet
1600 1300 m 1,0,-1
 1000 1300 l 1,1,-1
 1000 850 l 1,2,-1
 1600 850 l 1,3,-1
 1600 0 l 1,4,-1
 1400 0 l 1,5,-1
 1400 650 l 1,6,-1
 400 650 l 1,7,-1
 400 0 l 1,8,-1
 200 0 l 1,9,-1
 200 850 l 1,10,-1
 800 850 l 1,11,-1
 800 1300 l 1,12,-1
 200 1300 l 1,13,-1
 200 1500 l 1,14,-1
 1500 1500 l 1,15,-1
 1500 1583 l 1,16,17
 1162 1850 1162 1850 900 1850 c 0,18,19
 600 1850 600 1850 200 1600 c 1,20,21
 400 2100 400 2100 900 2100 c 0,22,23
 1292 2100 1292 2100 1500 1730 c 1,24,-1
 1500 2000 l 1,25,-1
 2000 2000 l 1,26,-1
 2000 1800 l 1,27,-1
 1600 1800 l 1,28,-1
 1600 1300 l 1,0,-1
EndSplineSet
EndChar

StartChar: u11A2C.11A01.11A07
Encoding: 1114246 -1 230
Width: 1800
GlyphClass: 2
Flags: W
LayerCount: 2
Fore
SplineSet
1600 0 m 1,0,-1
 800 0 l 1,1,-1
 800 1300 l 1,2,-1
 400 1300 l 1,3,-1
 400 0 l 1,4,-1
 200 0 l 1,5,-1
 200 1500 l 1,6,-1
 1000 1500 l 1,7,-1
 1000 200 l 1,8,-1
 1400 200 l 1,9,-1
 1400 1500 l 1,10,-1
 1500 1500 l 1,11,-1
 1500 1583 l 1,12,13
 1162 1850 1162 1850 900 1850 c 0,14,15
 600 1850 600 1850 200 1600 c 1,16,17
 400 2100 400 2100 900 2100 c 0,18,19
 1292 2100 1292 2100 1500 1730 c 1,20,-1
 1500 2000 l 1,21,-1
 2000 2000 l 1,22,-1
 2000 1800 l 1,23,-1
 1600 1800 l 1,24,-1
 1600 0 l 1,0,-1
EndSplineSet
EndChar

StartChar: u11A2D.11A01.11A07
Encoding: 1114247 -1 231
Width: 1800
GlyphClass: 2
Flags: W
LayerCount: 2
Fore
SplineSet
1000 225 m 256,0,1
 1104 225 1104 225 1177 298 c 128,-1,2
 1250 371 1250 371 1250 475 c 256,3,4
 1250 579 1250 579 1177 652 c 128,-1,5
 1104 725 1104 725 1000 725 c 256,6,7
 896 725 896 725 823 652 c 128,-1,8
 750 579 750 579 750 475 c 256,9,10
 750 371 750 371 823 298 c 128,-1,11
 896 225 896 225 1000 225 c 256,0,1
1600 1300 m 1,12,-1
 1100 1300 l 1,13,-1
 1100 890 l 1,14,15
 1223 863 1223 863 1318 768 c 0,16,17
 1450 636 1450 636 1450 450 c 256,18,19
 1450 264 1450 264 1318 132 c 128,-1,20
 1186 0 1186 0 1000 0 c 256,21,22
 814 0 814 0 682 132 c 128,-1,23
 550 264 550 264 550 450 c 256,24,25
 550 636 550 636 682 768 c 0,26,27
 777 863 777 863 900 890 c 1,28,-1
 900 1300 l 1,29,-1
 400 1300 l 1,30,-1
 400 0 l 1,31,-1
 200 0 l 1,32,-1
 200 1500 l 1,33,-1
 1500 1500 l 1,34,-1
 1500 1583 l 1,35,36
 1162 1850 1162 1850 900 1850 c 0,37,38
 600 1850 600 1850 200 1600 c 1,39,40
 400 2100 400 2100 900 2100 c 0,41,42
 1292 2100 1292 2100 1500 1730 c 1,43,-1
 1500 2000 l 1,44,-1
 2000 2000 l 1,45,-1
 2000 1800 l 1,46,-1
 1600 1800 l 1,47,-1
 1600 1300 l 1,12,-1
EndSplineSet
EndChar

StartChar: u11A2E.11A01.11A07
Encoding: 1114248 -1 232
Width: 1800
GlyphClass: 2
Flags: W
LayerCount: 2
Fore
SplineSet
1400 1300 m 1,0,-1
 1000 1300 l 1,1,-1
 1000 200 l 1,2,-1
 1400 200 l 1,3,-1
 1400 1300 l 1,0,-1
1600 0 m 1,4,-1
 800 0 l 1,5,-1
 800 650 l 1,6,-1
 400 650 l 1,7,-1
 400 0 l 1,8,-1
 200 0 l 1,9,-1
 200 1500 l 1,10,-1
 400 1500 l 1,11,-1
 400 850 l 1,12,-1
 800 850 l 1,13,-1
 800 1500 l 1,14,-1
 1500 1500 l 1,15,-1
 1500 1583 l 1,16,17
 1162 1850 1162 1850 900 1850 c 0,18,19
 600 1850 600 1850 200 1600 c 1,20,21
 400 2100 400 2100 900 2100 c 0,22,23
 1292 2100 1292 2100 1500 1730 c 1,24,-1
 1500 2000 l 1,25,-1
 2000 2000 l 1,26,-1
 2000 1800 l 1,27,-1
 1600 1800 l 1,28,-1
 1600 0 l 1,4,-1
EndSplineSet
EndChar

StartChar: u11A2F.11A01.11A07
Encoding: 1114249 -1 233
Width: 1800
GlyphClass: 2
Flags: W
LayerCount: 2
Fore
SplineSet
400 1300 m 1,0,-1
 400 200 l 1,1,-1
 800 200 l 1,2,-1
 800 1300 l 1,3,-1
 400 1300 l 1,0,-1
1600 0 m 1,4,-1
 1400 0 l 1,5,-1
 1400 650 l 1,6,-1
 1000 650 l 1,7,-1
 1000 0 l 1,8,-1
 200 0 l 1,9,-1
 200 1500 l 1,10,-1
 1000 1500 l 1,11,-1
 1000 850 l 1,12,-1
 1400 850 l 1,13,-1
 1400 1500 l 1,14,-1
 1500 1500 l 1,15,-1
 1500 1583 l 1,16,17
 1162 1850 1162 1850 900 1850 c 0,18,19
 600 1850 600 1850 200 1600 c 1,20,21
 400 2100 400 2100 900 2100 c 0,22,23
 1292 2100 1292 2100 1500 1730 c 1,24,-1
 1500 2000 l 1,25,-1
 2000 2000 l 1,26,-1
 2000 1800 l 1,27,-1
 1600 1800 l 1,28,-1
 1600 0 l 1,4,-1
EndSplineSet
EndChar

StartChar: u11A30.11A01.11A07
Encoding: 1114250 -1 234
Width: 1800
GlyphClass: 2
Flags: W
LayerCount: 2
Fore
SplineSet
1600 0 m 1,0,-1
 1400 0 l 1,1,-1
 400 1200 l 1,2,-1
 400 0 l 1,3,-1
 200 0 l 1,4,-1
 200 1500 l 1,5,-1
 400 1500 l 1,6,-1
 1400 300 l 1,7,-1
 1400 1500 l 1,8,-1
 1500 1500 l 1,9,-1
 1500 1583 l 1,10,11
 1162 1850 1162 1850 900 1850 c 0,12,13
 600 1850 600 1850 200 1600 c 1,14,15
 400 2100 400 2100 900 2100 c 0,16,17
 1292 2100 1292 2100 1500 1730 c 1,18,-1
 1500 2000 l 1,19,-1
 2000 2000 l 1,20,-1
 2000 1800 l 1,21,-1
 1600 1800 l 1,22,-1
 1600 0 l 1,0,-1
EndSplineSet
EndChar

StartChar: u11A31.11A01.11A07
Encoding: 1114251 -1 235
Width: 1800
GlyphClass: 2
Flags: W
LayerCount: 2
Fore
SplineSet
1600 1300 m 1,0,-1
 400 1300 l 1,1,-1
 400 200 l 1,2,-1
 800 200 l 1,3,-1
 800 850 l 1,4,-1
 1600 850 l 1,5,-1
 1600 0 l 1,6,-1
 1400 0 l 1,7,-1
 1400 650 l 1,8,-1
 1000 650 l 1,9,-1
 1000 0 l 1,10,-1
 200 0 l 1,11,-1
 200 1500 l 1,12,-1
 1500 1500 l 1,13,-1
 1500 1583 l 1,14,15
 1162 1850 1162 1850 900 1850 c 0,16,17
 600 1850 600 1850 200 1600 c 1,18,19
 400 2100 400 2100 900 2100 c 0,20,21
 1292 2100 1292 2100 1500 1730 c 1,22,-1
 1500 2000 l 1,23,-1
 2000 2000 l 1,24,-1
 2000 1800 l 1,25,-1
 1600 1800 l 1,26,-1
 1600 1300 l 1,0,-1
EndSplineSet
EndChar

StartChar: u11A32.11A01.11A07
Encoding: 1114252 -1 236
Width: 1800
GlyphClass: 2
Flags: W
LayerCount: 2
Fore
SplineSet
1600 0 m 1,0,-1
 1400 0 l 1,1,-1
 1400 1300 l 1,2,-1
 1000 1300 l 1,3,-1
 1000 650 l 1,4,-1
 400 650 l 1,5,-1
 400 200 l 1,6,-1
 1000 200 l 1,7,-1
 1000 0 l 1,8,-1
 200 0 l 1,9,-1
 200 850 l 1,10,-1
 800 850 l 1,11,-1
 800 1300 l 1,12,-1
 200 1300 l 1,13,-1
 200 1500 l 1,14,-1
 1500 1500 l 1,15,-1
 1500 1583 l 1,16,17
 1162 1850 1162 1850 900 1850 c 0,18,19
 600 1850 600 1850 200 1600 c 1,20,21
 400 2100 400 2100 900 2100 c 0,22,23
 1292 2100 1292 2100 1500 1730 c 1,24,-1
 1500 2000 l 1,25,-1
 2000 2000 l 1,26,-1
 2000 1800 l 1,27,-1
 1600 1800 l 1,28,-1
 1600 0 l 1,0,-1
EndSplineSet
EndChar

StartChar: u11A00.11A01.11A08
Encoding: 1114253 -1 237
Width: 2400
GlyphClass: 2
Flags: W
LayerCount: 2
Fore
SplineSet
300 1500 m 1,0,-1
 400 1500 l 1,1,-1
 400 200 l 1,2,-1
 800 200 l 1,3,-1
 800 1500 l 1,4,-1
 1600 1500 l 1,5,-1
 1600 200 l 1,6,-1
 2000 200 l 1,7,-1
 2000 1500 l 1,8,-1
 2200 1500 l 1,9,-1
 2200 0 l 1,10,-1
 1400 0 l 1,11,-1
 1400 1300 l 1,12,-1
 1000 1300 l 1,13,-1
 1000 0 l 1,14,-1
 200 0 l 1,15,-1
 200 1800 l 1,16,-1
 -200 1800 l 1,17,-1
 -200 2000 l 1,18,-1
 300 2000 l 1,19,-1
 300 1500 l 1,0,-1
1250 2100 m 256,21,22
 1864 2100 1864 2100 2200 1500 c 1,23,24
 1579 1850 1579 1850 1250 1850 c 256,25,26
 921 1850 921 1850 300 1600 c 1,27,20
 636 2100 636 2100 1250 2100 c 256,21,22
EndSplineSet
EndChar

StartChar: u11A0B.11A01.11A08
Encoding: 1114254 -1 238
Width: 1800
GlyphClass: 2
Flags: W
LayerCount: 2
Fore
SplineSet
950 2100 m 256,1,2
 1450 2100 1450 2100 1600 1500 c 1,3,4
 1250 1850 1250 1850 950 1850 c 256,5,6
 650 1850 650 1850 300 1600 c 1,7,0
 450 2100 450 2100 950 2100 c 256,1,2
300 1500 m 1,8,-1
 1600 1500 l 1,9,-1
 1600 0 l 1,10,-1
 1400 0 l 1,11,-1
 1400 1300 l 1,12,-1
 1000 1300 l 1,13,-1
 1000 0 l 1,14,-1
 200 0 l 1,15,-1
 200 800 l 1,16,-1
 400 800 l 1,17,-1
 400 200 l 1,18,-1
 800 200 l 1,19,-1
 800 1300 l 1,20,-1
 200 1300 l 1,21,-1
 200 1800 l 1,22,-1
 -200 1800 l 1,23,-1
 -200 2000 l 1,24,-1
 300 2000 l 1,25,-1
 300 1500 l 1,8,-1
EndSplineSet
EndChar

StartChar: u11A0C.11A01.11A08
Encoding: 1114255 -1 239
Width: 1800
GlyphClass: 2
Flags: W
LayerCount: 2
Fore
SplineSet
1400 1300 m 1,0,-1
 1000 1300 l 1,1,-1
 1000 200 l 1,2,-1
 1400 200 l 1,3,-1
 1400 1300 l 1,0,-1
300 1500 m 1,4,-1
 1600 1500 l 1,5,-1
 1600 0 l 1,6,-1
 800 0 l 1,7,-1
 800 1300 l 1,8,-1
 400 1300 l 1,9,-1
 400 0 l 1,10,-1
 200 0 l 1,11,-1
 200 1800 l 1,12,-1
 -200 1800 l 1,13,-1
 -200 2000 l 1,14,-1
 300 2000 l 1,15,-1
 300 1500 l 1,4,-1
950 2100 m 256,17,18
 1450 2100 1450 2100 1600 1500 c 1,19,20
 1250 1850 1250 1850 950 1850 c 256,21,22
 650 1850 650 1850 300 1600 c 1,23,16
 450 2100 450 2100 950 2100 c 256,17,18
EndSplineSet
EndChar

StartChar: u11A0D.11A01.11A08
Encoding: 1114256 -1 240
Width: 1800
GlyphClass: 2
Flags: W
LayerCount: 2
Fore
SplineSet
400 1300 m 1,0,-1
 400 200 l 1,1,-1
 800 200 l 1,2,-1
 800 1300 l 1,3,-1
 400 1300 l 1,0,-1
300 1500 m 1,4,-1
 1600 1500 l 1,5,-1
 1600 0 l 1,6,-1
 1400 0 l 1,7,-1
 1400 1300 l 1,8,-1
 1000 1300 l 1,9,-1
 1000 0 l 1,10,-1
 200 0 l 1,11,-1
 200 1800 l 1,12,-1
 -200 1800 l 1,13,-1
 -200 2000 l 1,14,-1
 300 2000 l 1,15,-1
 300 1500 l 1,4,-1
950 2100 m 256,17,18
 1450 2100 1450 2100 1600 1500 c 1,19,20
 1250 1850 1250 1850 950 1850 c 256,21,22
 650 1850 650 1850 300 1600 c 1,23,16
 450 2100 450 2100 950 2100 c 256,17,18
EndSplineSet
EndChar

StartChar: u11A0E.11A01.11A08
Encoding: 1114257 -1 241
Width: 1800
GlyphClass: 2
Flags: W
LayerCount: 2
Fore
SplineSet
400 600 m 1,0,-1
 400 200 l 1,1,-1
 800 200 l 1,2,-1
 800 600 l 1,3,-1
 400 600 l 1,0,-1
300 1500 m 1,4,-1
 1600 1500 l 1,5,-1
 1600 0 l 1,6,-1
 1400 0 l 1,7,-1
 1400 1300 l 1,8,-1
 1000 1300 l 1,9,-1
 1000 0 l 1,10,-1
 200 0 l 1,11,-1
 200 800 l 1,12,-1
 800 800 l 1,13,-1
 800 1300 l 1,14,-1
 200 1300 l 1,15,-1
 200 1800 l 1,16,-1
 -200 1800 l 1,17,-1
 -200 2000 l 1,18,-1
 300 2000 l 1,19,-1
 300 1500 l 1,4,-1
950 2100 m 256,21,22
 1450 2100 1450 2100 1600 1500 c 1,23,24
 1250 1850 1250 1850 950 1850 c 256,25,26
 650 1850 650 1850 300 1600 c 1,27,20
 450 2100 450 2100 950 2100 c 256,21,22
EndSplineSet
EndChar

StartChar: u11A0F.11A01.11A08
Encoding: 1114258 -1 242
Width: 1800
GlyphClass: 2
Flags: W
LayerCount: 2
Fore
SplineSet
300 1500 m 1,0,-1
 1600 1500 l 1,1,-1
 1600 650 l 1,2,-1
 400 650 l 1,3,-1
 400 200 l 1,4,-1
 1600 200 l 1,5,-1
 1600 0 l 1,6,-1
 200 0 l 1,7,-1
 200 850 l 1,8,-1
 1400 850 l 1,9,-1
 1400 1300 l 1,10,-1
 200 1300 l 1,11,-1
 200 1800 l 1,12,-1
 -200 1800 l 1,13,-1
 -200 2000 l 1,14,-1
 300 2000 l 1,15,-1
 300 1500 l 1,0,-1
950 2100 m 256,17,18
 1450 2100 1450 2100 1600 1500 c 1,19,20
 1250 1850 1250 1850 950 1850 c 256,21,22
 650 1850 650 1850 300 1600 c 1,23,16
 450 2100 450 2100 950 2100 c 256,17,18
EndSplineSet
EndChar

StartChar: u11A10.11A01.11A08
Encoding: 1114259 -1 243
Width: 1800
GlyphClass: 2
Flags: W
LayerCount: 2
Fore
SplineSet
1000 200 m 1,0,-1
 1400 200 l 1,1,-1
 1400 1300 l 1,2,-1
 1000 1300 l 1,3,-1
 1000 200 l 1,0,-1
300 1500 m 1,4,-1
 1600 1500 l 1,5,-1
 1600 0 l 1,6,-1
 200 0 l 1,7,-1
 200 200 l 1,8,-1
 800 200 l 1,9,-1
 800 1300 l 1,10,-1
 200 1300 l 1,11,-1
 200 1800 l 1,12,-1
 -200 1800 l 1,13,-1
 -200 2000 l 1,14,-1
 300 2000 l 1,15,-1
 300 1500 l 1,4,-1
950 2100 m 256,17,18
 1450 2100 1450 2100 1600 1500 c 1,19,20
 1250 1850 1250 1850 950 1850 c 256,21,22
 650 1850 650 1850 300 1600 c 1,23,16
 450 2100 450 2100 950 2100 c 256,17,18
EndSplineSet
EndChar

StartChar: u11A11.11A01.11A08
Encoding: 1114260 -1 244
Width: 1800
GlyphClass: 2
Flags: W
LayerCount: 2
Fore
SplineSet
1000 200 m 1,0,-1
 1400 200 l 1,1,-1
 1400 1300 l 1,2,-1
 1000 1300 l 1,3,-1
 1000 200 l 1,0,-1
400 200 m 1,4,-1
 800 200 l 1,5,-1
 800 1300 l 1,6,-1
 400 1300 l 1,7,-1
 400 200 l 1,4,-1
300 1500 m 1,8,-1
 1600 1500 l 1,9,-1
 1600 0 l 1,10,-1
 200 0 l 1,11,-1
 200 1800 l 1,12,-1
 -200 1800 l 1,13,-1
 -200 2000 l 1,14,-1
 300 2000 l 1,15,-1
 300 1500 l 1,8,-1
950 2100 m 256,17,18
 1450 2100 1450 2100 1600 1500 c 1,19,20
 1250 1850 1250 1850 950 1850 c 256,21,22
 650 1850 650 1850 300 1600 c 1,23,16
 450 2100 450 2100 950 2100 c 256,17,18
EndSplineSet
EndChar

StartChar: u11A12.11A01.11A08
Encoding: 1114261 -1 245
Width: 1800
GlyphClass: 2
Flags: W
LayerCount: 2
Fore
SplineSet
300 1500 m 1,0,-1
 1600 1500 l 1,1,-1
 1600 1300 l 1,2,-1
 400 1300 l 1,3,-1
 400 850 l 1,4,-1
 1600 850 l 1,5,-1
 1600 650 l 1,6,-1
 400 650 l 1,7,-1
 400 200 l 1,8,-1
 1600 200 l 1,9,-1
 1600 0 l 1,10,-1
 200 0 l 1,11,-1
 200 1800 l 1,12,-1
 -200 1800 l 1,13,-1
 -200 2000 l 1,14,-1
 300 2000 l 1,15,-1
 300 1500 l 1,0,-1
950 2100 m 256,17,18
 1450 2100 1450 2100 1600 1500 c 1,19,20
 1250 1850 1250 1850 950 1850 c 256,21,22
 650 1850 650 1850 300 1600 c 1,23,16
 450 2100 450 2100 950 2100 c 256,17,18
EndSplineSet
EndChar

StartChar: u11A13.11A01.11A08
Encoding: 1114262 -1 246
Width: 1800
GlyphClass: 2
Flags: W
LayerCount: 2
Fore
SplineSet
300 1500 m 1,0,-1
 1600 1500 l 1,1,-1
 1600 0 l 1,2,-1
 1400 0 l 1,3,-1
 1400 650 l 1,4,-1
 400 650 l 1,5,-1
 400 200 l 1,6,-1
 1000 200 l 1,7,-1
 1000 0 l 1,8,-1
 200 0 l 1,9,-1
 200 850 l 1,10,-1
 1400 850 l 1,11,-1
 1400 1300 l 1,12,-1
 200 1300 l 1,13,-1
 200 1800 l 1,14,-1
 -200 1800 l 1,15,-1
 -200 2000 l 1,16,-1
 300 2000 l 1,17,-1
 300 1500 l 1,0,-1
950 2100 m 256,19,20
 1450 2100 1450 2100 1600 1500 c 1,21,22
 1250 1850 1250 1850 950 1850 c 256,23,24
 650 1850 650 1850 300 1600 c 1,25,18
 450 2100 450 2100 950 2100 c 256,19,20
EndSplineSet
EndChar

StartChar: u11A14.11A01.11A08
Encoding: 1114263 -1 247
Width: 1800
GlyphClass: 2
Flags: W
LayerCount: 2
Fore
SplineSet
300 1500 m 1,0,-1
 1600 1500 l 1,1,-1
 1600 1300 l 1,2,-1
 400 1300 l 1,3,-1
 400 1050 l 1,4,-1
 1600 850 l 1,5,-1
 850 0 l 1,6,-1
 600 0 l 1,7,-1
 1200 690 l 1,8,-1
 400 850 l 1,9,-1
 400 0 l 1,10,-1
 200 0 l 1,11,-1
 200 1800 l 1,12,-1
 -200 1800 l 1,13,-1
 -200 2000 l 1,14,-1
 300 2000 l 1,15,-1
 300 1500 l 1,0,-1
950 2100 m 256,17,18
 1450 2100 1450 2100 1600 1500 c 1,19,20
 1250 1850 1250 1850 950 1850 c 256,21,22
 650 1850 650 1850 300 1600 c 1,23,16
 450 2100 450 2100 950 2100 c 256,17,18
EndSplineSet
EndChar

StartChar: u11A15.11A01.11A08
Encoding: 1114264 -1 248
Width: 1800
GlyphClass: 2
Flags: W
LayerCount: 2
Fore
SplineSet
900 633 m 1,0,-1
 500 200 l 1,1,-1
 1300 200 l 1,2,-1
 900 633 l 1,0,-1
500 1300 m 1,3,-1
 900 867 l 1,4,-1
 1300 1300 l 1,5,-1
 500 1300 l 1,3,-1
300 1500 m 1,6,-1
 1700 1500 l 1,7,-1
 1008 750 l 1,8,-1
 1700 0 l 1,9,-1
 100 0 l 1,10,-1
 792 750 l 1,11,-1
 100 1500 l 1,12,-1
 200 1500 l 1,13,-1
 200 1800 l 1,14,-1
 -200 1800 l 1,15,-1
 -200 2000 l 1,16,-1
 300 2000 l 1,17,-1
 300 1500 l 1,6,-1
950 2100 m 256,19,20
 1450 2100 1450 2100 1600 1500 c 1,21,22
 1250 1850 1250 1850 950 1850 c 256,23,24
 650 1850 650 1850 300 1600 c 1,25,18
 450 2100 450 2100 950 2100 c 256,19,20
EndSplineSet
EndChar

StartChar: u11A16.11A01.11A08
Encoding: 1114265 -1 249
Width: 1800
GlyphClass: 2
Flags: W
LayerCount: 2
Fore
SplineSet
300 1500 m 1,0,-1
 1600 1500 l 1,1,-1
 1600 1300 l 1,2,-1
 650 1300 l 1,3,-1
 1600 0 l 1,4,-1
 200 0 l 1,5,-1
 200 200 l 1,6,-1
 1150 200 l 1,7,-1
 200 1500 l 1,8,-1
 200 1800 l 1,9,-1
 -200 1800 l 1,10,-1
 -200 2000 l 1,11,-1
 300 2000 l 1,12,-1
 300 1500 l 1,0,-1
950 2100 m 256,14,15
 1450 2100 1450 2100 1600 1500 c 1,16,17
 1250 1850 1250 1850 950 1850 c 256,18,19
 650 1850 650 1850 300 1600 c 1,20,13
 450 2100 450 2100 950 2100 c 256,14,15
EndSplineSet
EndChar

StartChar: u11A17.11A01.11A08
Encoding: 1114266 -1 250
Width: 1800
GlyphClass: 2
Flags: W
LayerCount: 2
Fore
SplineSet
300 1500 m 1,0,-1
 1600 1500 l 1,1,-1
 1600 800 l 1,2,-1
 1400 800 l 1,3,-1
 1400 1300 l 1,4,-1
 650 1300 l 1,5,-1
 1600 0 l 1,6,-1
 200 0 l 1,7,-1
 200 200 l 1,8,-1
 1150 200 l 1,9,-1
 200 1500 l 1,10,-1
 200 1800 l 1,11,-1
 -200 1800 l 1,12,-1
 -200 2000 l 1,13,-1
 300 2000 l 1,14,-1
 300 1500 l 1,0,-1
950 2100 m 256,16,17
 1450 2100 1450 2100 1600 1500 c 1,18,19
 1250 1850 1250 1850 950 1850 c 256,20,21
 650 1850 650 1850 300 1600 c 1,22,15
 450 2100 450 2100 950 2100 c 256,16,17
EndSplineSet
EndChar

StartChar: u11A18.11A01.11A08
Encoding: 1114267 -1 251
Width: 1800
GlyphClass: 2
Flags: W
LayerCount: 2
Fore
SplineSet
1400 200 m 1,0,-1
 1400 1000 l 1,1,-1
 600 600 l 1,2,-1
 1400 200 l 1,0,-1
300 1500 m 1,3,-1
 1600 1500 l 1,4,-1
 1600 0 l 1,5,-1
 1400 0 l 1,6,-1
 200 600 l 1,7,-1
 1400 1200 l 1,8,-1
 1400 1300 l 1,9,-1
 200 1300 l 1,10,-1
 200 1800 l 1,11,-1
 -200 1800 l 1,12,-1
 -200 2000 l 1,13,-1
 300 2000 l 1,14,-1
 300 1500 l 1,3,-1
950 2100 m 256,16,17
 1450 2100 1450 2100 1600 1500 c 1,18,19
 1250 1850 1250 1850 950 1850 c 256,20,21
 650 1850 650 1850 300 1600 c 1,22,15
 450 2100 450 2100 950 2100 c 256,16,17
EndSplineSet
EndChar

StartChar: u11A19.11A01.11A08
Encoding: 1114268 -1 252
Width: 1800
GlyphClass: 2
Flags: W
LayerCount: 2
Fore
SplineSet
300 1500 m 1,0,-1
 1600 1500 l 1,1,-1
 1600 1300 l 1,2,-1
 400 1300 l 1,3,-1
 400 850 l 1,4,-1
 1600 850 l 1,5,-1
 1600 0 l 1,6,-1
 1400 0 l 1,7,-1
 1400 650 l 1,8,-1
 400 650 l 1,9,-1
 400 0 l 1,10,-1
 200 0 l 1,11,-1
 200 1800 l 1,12,-1
 -200 1800 l 1,13,-1
 -200 2000 l 1,14,-1
 300 2000 l 1,15,-1
 300 1500 l 1,0,-1
950 2100 m 256,17,18
 1450 2100 1450 2100 1600 1500 c 1,19,20
 1250 1850 1250 1850 950 1850 c 256,21,22
 650 1850 650 1850 300 1600 c 1,23,16
 450 2100 450 2100 950 2100 c 256,17,18
EndSplineSet
EndChar

StartChar: u11A1A.11A01.11A08
Encoding: 1114269 -1 253
Width: 1800
GlyphClass: 2
Flags: W
LayerCount: 2
Fore
SplineSet
400 1300 m 1,0,-1
 400 850 l 1,1,-1
 1400 850 l 1,2,-1
 1400 1300 l 1,3,-1
 400 1300 l 1,0,-1
1400 650 m 1,4,-1
 400 650 l 1,5,-1
 400 200 l 1,6,-1
 1400 200 l 1,7,-1
 1400 650 l 1,4,-1
300 1500 m 1,8,-1
 1600 1500 l 1,9,-1
 1600 0 l 1,10,-1
 200 0 l 1,11,-1
 200 1800 l 1,12,-1
 -200 1800 l 1,13,-1
 -200 2000 l 1,14,-1
 300 2000 l 1,15,-1
 300 1500 l 1,8,-1
950 2100 m 256,17,18
 1450 2100 1450 2100 1600 1500 c 1,19,20
 1250 1850 1250 1850 950 1850 c 256,21,22
 650 1850 650 1850 300 1600 c 1,23,16
 450 2100 450 2100 950 2100 c 256,17,18
EndSplineSet
EndChar

StartChar: u11A1B.11A01.11A08
Encoding: 1114270 -1 254
Width: 1800
GlyphClass: 2
Flags: W
LayerCount: 2
Fore
SplineSet
300 1500 m 1,0,-1
 1600 1500 l 1,1,-1
 1600 1300 l 1,2,-1
 400 1300 l 1,3,-1
 400 850 l 1,4,-1
 1600 850 l 1,5,-1
 1600 0 l 1,6,-1
 200 0 l 1,7,-1
 200 200 l 1,8,-1
 1400 200 l 1,9,-1
 1400 650 l 1,10,-1
 200 650 l 1,11,-1
 200 1800 l 1,12,-1
 -200 1800 l 1,13,-1
 -200 2000 l 1,14,-1
 300 2000 l 1,15,-1
 300 1500 l 1,0,-1
950 2100 m 256,17,18
 1450 2100 1450 2100 1600 1500 c 1,19,20
 1250 1850 1250 1850 950 1850 c 256,21,22
 650 1850 650 1850 300 1600 c 1,23,16
 450 2100 450 2100 950 2100 c 256,17,18
EndSplineSet
EndChar

StartChar: u11A1C.11A01.11A08
Encoding: 1114271 -1 255
Width: 1800
GlyphClass: 2
Flags: W
LayerCount: 2
Fore
SplineSet
950 2100 m 256,0,1
 1450 2100 1450 2100 1600 1500 c 1,2,3
 1250 1850 1250 1850 950 1850 c 256,4,5
 650 1850 650 1850 300 1600 c 1,6,7
 450 2100 450 2100 950 2100 c 256,0,1
200 1800 m 1,8,-1
 -200 1800 l 1,9,-1
 -200 2000 l 1,10,-1
 300 2000 l 1,11,-1
 300 1500 l 1,12,-1
 1600 1500 l 1,13,-1
 1600 1300 l 1,14,-1
 400 1300 l 1,15,-1
 400 900 l 1,16,-1
 1600 900 l 1,17,-1
 1600 800 l 1,18,19
 1403 678 1403 678 1096 500 c 0,20,21
 812 334 812 334 1099 211 c 1,22,23
 1327 99 1327 99 1600 0 c 1,24,-1
 1400 0 l 1,25,26
 1009 71 1009 71 803 150 c 1,27,28
 518 334 518 334 824 528 c 0,29,30
 994 632 994 632 1150 700 c 1,31,-1
 400 700 l 1,32,-1
 400 0 l 1,33,-1
 200 0 l 1,34,-1
 200 1800 l 1,8,-1
EndSplineSet
EndChar

StartChar: u11A1D.11A01.11A08
Encoding: 1114272 -1 256
Width: 1800
GlyphClass: 2
Flags: W
LayerCount: 2
Fore
SplineSet
800 650 m 1,0,-1
 400 650 l 1,1,-1
 400 200 l 1,2,-1
 800 200 l 1,3,-1
 800 650 l 1,0,-1
300 1500 m 1,4,-1
 1600 1500 l 1,5,-1
 1600 0 l 1,6,-1
 1400 0 l 1,7,-1
 1400 650 l 1,8,-1
 1000 650 l 1,9,-1
 1000 0 l 1,10,-1
 200 0 l 1,11,-1
 200 850 l 1,12,-1
 1400 850 l 1,13,-1
 1400 1300 l 1,14,-1
 200 1300 l 1,15,-1
 200 1800 l 1,16,-1
 -200 1800 l 1,17,-1
 -200 2000 l 1,18,-1
 300 2000 l 1,19,-1
 300 1500 l 1,4,-1
950 2100 m 256,21,22
 1450 2100 1450 2100 1600 1500 c 1,23,24
 1250 1850 1250 1850 950 1850 c 256,25,26
 650 1850 650 1850 300 1600 c 1,27,20
 450 2100 450 2100 950 2100 c 256,21,22
EndSplineSet
EndChar

StartChar: u11A1E.11A01.11A08
Encoding: 1114273 -1 257
Width: 1800
GlyphClass: 2
Flags: W
LayerCount: 2
Fore
SplineSet
300 1500 m 1,0,-1
 400 1500 l 1,1,-1
 400 200 l 1,2,-1
 1400 200 l 1,3,-1
 1400 1500 l 1,4,-1
 1600 1500 l 1,5,-1
 1600 0 l 1,6,-1
 200 0 l 1,7,-1
 200 1800 l 1,8,-1
 -200 1800 l 1,9,-1
 -200 2000 l 1,10,-1
 300 2000 l 1,11,-1
 300 1500 l 1,0,-1
950 2100 m 256,13,14
 1450 2100 1450 2100 1600 1500 c 1,15,16
 1250 1850 1250 1850 950 1850 c 256,17,18
 650 1850 650 1850 300 1600 c 1,19,12
 450 2100 450 2100 950 2100 c 256,13,14
EndSplineSet
EndChar

StartChar: u11A1F.11A01.11A08
Encoding: 1114274 -1 258
Width: 1800
GlyphClass: 2
Flags: W
LayerCount: 2
Fore
SplineSet
1400 200 m 1,0,-1
 1400 1300 l 1,1,-1
 1000 1300 l 1,2,-1
 1000 200 l 1,3,-1
 1400 200 l 1,0,-1
300 1500 m 1,4,-1
 400 1500 l 1,5,-1
 400 200 l 1,6,-1
 800 200 l 1,7,-1
 800 1500 l 1,8,-1
 1600 1500 l 1,9,-1
 1600 0 l 1,10,-1
 200 0 l 1,11,-1
 200 1800 l 1,12,-1
 -200 1800 l 1,13,-1
 -200 2000 l 1,14,-1
 300 2000 l 1,15,-1
 300 1500 l 1,4,-1
950 2100 m 256,17,18
 1450 2100 1450 2100 1600 1500 c 1,19,20
 1250 1850 1250 1850 950 1850 c 256,21,22
 650 1850 650 1850 300 1600 c 1,23,16
 450 2100 450 2100 950 2100 c 256,17,18
EndSplineSet
EndChar

StartChar: u11A20.11A01.11A08
Encoding: 1114275 -1 259
Width: 1800
GlyphClass: 2
Flags: W
LayerCount: 2
Fore
SplineSet
1400 200 m 1,0,-1
 1400 1300 l 1,1,-1
 400 1300 l 1,2,-1
 400 200 l 1,3,-1
 1400 200 l 1,0,-1
300 1500 m 1,4,-1
 1600 1500 l 1,5,-1
 1600 0 l 1,6,-1
 200 0 l 1,7,-1
 200 1800 l 1,8,-1
 -200 1800 l 1,9,-1
 -200 2000 l 1,10,-1
 300 2000 l 1,11,-1
 300 1500 l 1,4,-1
950 2100 m 256,13,14
 1450 2100 1450 2100 1600 1500 c 1,15,16
 1250 1850 1250 1850 950 1850 c 256,17,18
 650 1850 650 1850 300 1600 c 1,19,12
 450 2100 450 2100 950 2100 c 256,13,14
EndSplineSet
EndChar

StartChar: u11A21.11A01.11A08
Encoding: 1114276 -1 260
Width: 1800
GlyphClass: 2
Flags: W
LayerCount: 2
Fore
SplineSet
1400 200 m 1,0,-1
 1400 1300 l 1,1,-1
 550 1300 l 1,2,3
 687 1148 687 1148 748 995 c 0,4,5
 828 796 828 796 778 596 c 0,6,7
 728 398 728 398 550 200 c 1,8,-1
 1400 200 l 1,0,-1
300 1500 m 1,9,-1
 1600 1500 l 1,10,-1
 1600 0 l 1,11,-1
 200 0 l 1,12,13
 902 750 902 750 200 1500 c 1,14,-1
 200 1800 l 1,15,-1
 -200 1800 l 1,16,-1
 -200 2000 l 1,17,-1
 300 2000 l 1,18,-1
 300 1500 l 1,9,-1
950 2100 m 256,20,21
 1450 2100 1450 2100 1600 1500 c 1,22,23
 1250 1850 1250 1850 950 1850 c 256,24,25
 650 1850 650 1850 300 1600 c 1,26,19
 450 2100 450 2100 950 2100 c 256,20,21
EndSplineSet
EndChar

StartChar: u11A22.11A01.11A08
Encoding: 1114277 -1 261
Width: 1800
GlyphClass: 2
Flags: W
LayerCount: 2
Fore
SplineSet
400 200 m 1,0,-1
 800 200 l 1,1,-1
 800 1300 l 1,2,-1
 400 1300 l 1,3,-1
 400 200 l 1,0,-1
300 1500 m 1,4,-1
 1000 1500 l 1,5,-1
 1000 200 l 1,6,-1
 1400 200 l 1,7,-1
 1400 1500 l 1,8,-1
 1600 1500 l 1,9,-1
 1600 0 l 1,10,-1
 200 0 l 1,11,-1
 200 1800 l 1,12,-1
 -200 1800 l 1,13,-1
 -200 2000 l 1,14,-1
 300 2000 l 1,15,-1
 300 1500 l 1,4,-1
950 2100 m 256,17,18
 1450 2100 1450 2100 1600 1500 c 1,19,20
 1250 1850 1250 1850 950 1850 c 256,21,22
 650 1850 650 1850 300 1600 c 1,23,16
 450 2100 450 2100 950 2100 c 256,17,18
EndSplineSet
EndChar

StartChar: u11A23.11A01.11A08
Encoding: 1114278 -1 262
Width: 1800
GlyphClass: 2
Flags: W
LayerCount: 2
Fore
SplineSet
1000 200 m 1,0,-1
 1400 200 l 1,1,-1
 1400 1300 l 1,2,-1
 1000 1300 l 1,3,-1
 1000 200 l 1,0,-1
1556 1642 m 1,4,-1
 1631 1800 l 2,5,6
 1656 1853 1656 1853 1703 1825 c 1,7,8
 1842 1719 1842 1719 2003 1833 c 1,9,10
 2055 1849 2055 1849 2055 1790 c 0,11,12
 2055 1667 2055 1667 1978 1599 c 1,13,14
 1846 1519 1846 1519 1654 1613 c 1,15,-1
 1600 1500 l 1,16,-1
 1600 0 l 1,17,-1
 200 0 l 1,18,-1
 200 200 l 1,19,-1
 800 200 l 1,20,-1
 800 1300 l 1,21,-1
 200 1300 l 1,22,-1
 200 1800 l 1,23,-1
 -200 1800 l 1,24,-1
 -200 2000 l 1,25,-1
 300 2000 l 1,26,-1
 300 1600 l 1,27,28
 450 2100 450 2100 950 2100 c 0,29,30
 1387 2100 1387 2100 1556 1642 c 1,4,-1
300 1600 m 1,31,-1
 300 1500 l 1,32,-1
 1489 1500 l 1,33,-1
 1524 1573 l 1,34,35
 1217 1850 1217 1850 950 1850 c 0,36,37
 650 1850 650 1850 300 1600 c 1,31,-1
EndSplineSet
EndChar

StartChar: u11A24.11A01.11A08
Encoding: 1114279 -1 263
Width: 1800
GlyphClass: 2
Flags: W
LayerCount: 2
Fore
SplineSet
1000 200 m 1,0,-1
 1400 200 l 1,1,-1
 1400 1300 l 1,2,-1
 1000 1300 l 1,3,-1
 1000 200 l 1,0,-1
400 200 m 1,4,-1
 800 200 l 1,5,-1
 800 1300 l 1,6,-1
 400 1300 l 1,7,-1
 400 200 l 1,4,-1
1556 1642 m 1,8,-1
 1631 1800 l 2,9,10
 1656 1853 1656 1853 1703 1825 c 1,11,12
 1842 1719 1842 1719 2003 1833 c 1,13,14
 2055 1849 2055 1849 2055 1790 c 0,15,16
 2055 1667 2055 1667 1978 1599 c 1,17,18
 1846 1519 1846 1519 1654 1613 c 1,19,-1
 1600 1500 l 1,20,-1
 1600 0 l 1,21,-1
 200 0 l 1,22,-1
 200 1800 l 1,23,-1
 -200 1800 l 1,24,-1
 -200 2000 l 1,25,-1
 300 2000 l 1,26,-1
 300 1600 l 1,27,28
 450 2100 450 2100 950 2100 c 0,29,30
 1387 2100 1387 2100 1556 1642 c 1,8,-1
300 1600 m 1,31,-1
 300 1500 l 1,32,-1
 1489 1500 l 1,33,-1
 1524 1573 l 1,34,35
 1217 1850 1217 1850 950 1850 c 0,36,37
 650 1850 650 1850 300 1600 c 1,31,-1
EndSplineSet
EndChar

StartChar: u11A25.11A01.11A08
Encoding: 1114280 -1 264
Width: 1800
GlyphClass: 2
Flags: W
LayerCount: 2
Fore
SplineSet
300 1600 m 1,0,1
 450 2100 450 2100 950 2100 c 0,2,3
 1387 2100 1387 2100 1556 1642 c 1,4,-1
 1631 1800 l 2,5,6
 1656 1853 1656 1853 1703 1825 c 1,7,8
 1842 1719 1842 1719 2003 1833 c 1,9,10
 2055 1849 2055 1849 2055 1790 c 0,11,12
 2055 1667 2055 1667 1978 1599 c 1,13,14
 1846 1519 1846 1519 1654 1613 c 1,15,-1
 1600 1500 l 1,16,-1
 1504 1300 l 1,17,-1
 400 1300 l 1,18,-1
 400 850 l 1,19,-1
 1600 850 l 1,20,-1
 1600 650 l 1,21,-1
 400 650 l 1,22,-1
 400 200 l 1,23,-1
 1600 200 l 1,24,-1
 1600 0 l 1,25,-1
 200 0 l 1,26,-1
 200 1800 l 1,27,-1
 -200 1800 l 1,28,-1
 -200 2000 l 1,29,-1
 300 2000 l 1,30,-1
 300 1600 l 1,0,1
300 1600 m 1,31,-1
 300 1500 l 1,32,-1
 1489 1500 l 1,33,-1
 1524 1573 l 1,34,35
 1217 1850 1217 1850 950 1850 c 0,36,37
 650 1850 650 1850 300 1600 c 1,31,-1
EndSplineSet
EndChar

StartChar: u11A26.11A01.11A08
Encoding: 1114281 -1 265
Width: 1800
GlyphClass: 2
Flags: W
LayerCount: 2
Fore
SplineSet
300 1600 m 1,0,1
 450 2100 450 2100 950 2100 c 0,2,3
 1387 2100 1387 2100 1556 1642 c 1,4,-1
 1631 1800 l 2,5,6
 1656 1853 1656 1853 1703 1825 c 1,7,8
 1842 1719 1842 1719 2003 1833 c 1,9,10
 2055 1849 2055 1849 2055 1790 c 0,11,12
 2055 1667 2055 1667 1978 1599 c 1,13,14
 1846 1519 1846 1519 1654 1613 c 1,15,-1
 1600 1500 l 1,16,-1
 1504 1300 l 1,17,-1
 400 1300 l 1,18,-1
 400 850 l 1,19,-1
 949 850 l 1,20,21
 972 932 972 932 1038 998 c 0,22,23
 1140 1100 1140 1100 1285 1100 c 256,24,25
 1430 1100 1430 1100 1532 997 c 0,26,27
 1575 955 1575 955 1600 905 c 1,28,-1
 1450 809 l 1,29,30
 1437 845 1437 845 1409 874 c 0,31,32
 1357 925 1357 925 1285 925 c 256,33,34
 1213 925 1213 925 1161.5 873.5 c 128,-1,35
 1110 822 1110 822 1110 750 c 256,36,37
 1110 678 1110 678 1161.5 626.5 c 128,-1,38
 1213 575 1213 575 1285 575 c 256,39,40
 1357 575 1357 575 1409 626 c 0,41,42
 1437 654 1437 654 1449 688 c 1,43,-1
 1601 597 l 1,44,45
 1575 546 1575 546 1532 503 c 0,46,47
 1430 400 1430 400 1285 400 c 256,48,49
 1140 400 1140 400 1038 503 c 0,50,51
 972 568 972 568 949 650 c 1,52,-1
 400 650 l 1,53,-1
 400 200 l 1,54,-1
 1600 200 l 1,55,-1
 1600 0 l 1,56,-1
 200 0 l 1,57,-1
 200 1800 l 1,58,-1
 -200 1800 l 1,59,-1
 -200 2000 l 1,60,-1
 300 2000 l 1,61,-1
 300 1600 l 1,0,1
300 1600 m 1,62,-1
 300 1500 l 1,63,-1
 1489 1500 l 1,64,-1
 1524 1573 l 1,65,66
 1217 1850 1217 1850 950 1850 c 0,67,68
 650 1850 650 1850 300 1600 c 1,62,-1
EndSplineSet
EndChar

StartChar: u11A27.11A01.11A08
Encoding: 1114282 -1 266
Width: 1800
GlyphClass: 2
Flags: W
LayerCount: 2
Fore
SplineSet
1400 200 m 1,0,-1
 1400 650 l 1,1,-1
 1200 650 l 2,2,3
 900 650 900 650 900 425 c 256,4,5
 900 200 900 200 1200 200 c 2,6,-1
 1400 200 l 1,0,-1
300 1500 m 1,7,-1
 1600 1500 l 1,8,-1
 1600 0 l 1,9,-1
 1200 0 l 2,10,11
 700 0 700 0 700 425 c 256,12,13
 700 850 700 850 1200 850 c 2,14,-1
 1400 850 l 1,15,-1
 1400 1300 l 1,16,-1
 400 1300 l 1,17,-1
 400 0 l 1,18,-1
 200 0 l 1,19,-1
 200 1800 l 1,20,-1
 -200 1800 l 1,21,-1
 -200 2000 l 1,22,-1
 300 2000 l 1,23,-1
 300 1500 l 1,7,-1
950 2100 m 256,25,26
 1450 2100 1450 2100 1600 1500 c 1,27,28
 1250 1850 1250 1850 950 1850 c 256,29,30
 650 1850 650 1850 300 1600 c 1,31,24
 450 2100 450 2100 950 2100 c 256,25,26
EndSplineSet
EndChar

StartChar: u11A28.11A01.11A08
Encoding: 1114283 -1 267
Width: 1800
GlyphClass: 2
Flags: W
LayerCount: 2
Fore
SplineSet
300 1500 m 1,0,-1
 1600 1500 l 1,1,-1
 1600 0 l 1,2,-1
 200 0 l 1,3,-1
 200 200 l 1,4,-1
 1400 200 l 1,5,-1
 1400 650 l 1,6,-1
 200 650 l 1,7,-1
 200 850 l 1,8,-1
 1400 850 l 1,9,-1
 1400 1300 l 1,10,-1
 200 1300 l 1,11,-1
 200 1800 l 1,12,-1
 -200 1800 l 1,13,-1
 -200 2000 l 1,14,-1
 300 2000 l 1,15,-1
 300 1500 l 1,0,-1
950 2100 m 256,17,18
 1450 2100 1450 2100 1600 1500 c 1,19,20
 1250 1850 1250 1850 950 1850 c 256,21,22
 650 1850 650 1850 300 1600 c 1,23,16
 450 2100 450 2100 950 2100 c 256,17,18
EndSplineSet
EndChar

StartChar: u11A29.11A01.11A08
Encoding: 1114284 -1 268
Width: 1800
GlyphClass: 2
Flags: W
LayerCount: 2
Fore
SplineSet
300 1500 m 1,0,-1
 1600 1500 l 1,1,-1
 1600 650 l 1,2,-1
 1000 650 l 1,3,-1
 1000 200 l 1,4,-1
 1600 200 l 1,5,-1
 1600 0 l 1,6,-1
 800 0 l 1,7,-1
 800 850 l 1,8,-1
 1400 850 l 1,9,-1
 1400 1300 l 1,10,-1
 400 1300 l 1,11,-1
 400 0 l 1,12,-1
 200 0 l 1,13,-1
 200 1800 l 1,14,-1
 -200 1800 l 1,15,-1
 -200 2000 l 1,16,-1
 300 2000 l 1,17,-1
 300 1500 l 1,0,-1
950 2100 m 256,19,20
 1450 2100 1450 2100 1600 1500 c 1,21,22
 1250 1850 1250 1850 950 1850 c 256,23,24
 650 1850 650 1850 300 1600 c 1,25,18
 450 2100 450 2100 950 2100 c 256,19,20
EndSplineSet
EndChar

StartChar: u11A2A.11A01.11A08
Encoding: 1114285 -1 269
Width: 1800
GlyphClass: 2
Flags: W
LayerCount: 2
Fore
SplineSet
300 1500 m 1,0,-1
 400 1500 l 1,1,-1
 400 200 l 1,2,-1
 800 200 l 1,3,-1
 800 1500 l 1,4,-1
 1000 1500 l 1,5,-1
 1000 200 l 1,6,-1
 1400 200 l 1,7,-1
 1400 1500 l 1,8,-1
 1600 1500 l 1,9,-1
 1600 0 l 1,10,-1
 200 0 l 1,11,-1
 200 1800 l 1,12,-1
 -200 1800 l 1,13,-1
 -200 2000 l 1,14,-1
 300 2000 l 1,15,-1
 300 1500 l 1,0,-1
950 2100 m 256,17,18
 1450 2100 1450 2100 1600 1500 c 1,19,20
 1250 1850 1250 1850 950 1850 c 256,21,22
 650 1850 650 1850 300 1600 c 1,23,16
 450 2100 450 2100 950 2100 c 256,17,18
EndSplineSet
EndChar

StartChar: u11A2B.11A01.11A08
Encoding: 1114286 -1 270
Width: 1800
GlyphClass: 2
Flags: W
LayerCount: 2
Fore
SplineSet
300 1500 m 1,0,-1
 1600 1500 l 1,1,-1
 1600 1300 l 1,2,-1
 1000 1300 l 1,3,-1
 1000 850 l 1,4,-1
 1600 850 l 1,5,-1
 1600 0 l 1,6,-1
 1400 0 l 1,7,-1
 1400 650 l 1,8,-1
 400 650 l 1,9,-1
 400 0 l 1,10,-1
 200 0 l 1,11,-1
 200 850 l 1,12,-1
 800 850 l 1,13,-1
 800 1300 l 1,14,-1
 200 1300 l 1,15,-1
 200 1800 l 1,16,-1
 -200 1800 l 1,17,-1
 -200 2000 l 1,18,-1
 300 2000 l 1,19,-1
 300 1500 l 1,0,-1
950 2100 m 256,21,22
 1450 2100 1450 2100 1600 1500 c 1,23,24
 1250 1850 1250 1850 950 1850 c 256,25,26
 650 1850 650 1850 300 1600 c 1,27,20
 450 2100 450 2100 950 2100 c 256,21,22
EndSplineSet
EndChar

StartChar: u11A2C.11A01.11A08
Encoding: 1114287 -1 271
Width: 1800
GlyphClass: 2
Flags: W
LayerCount: 2
Fore
SplineSet
300 1500 m 1,0,-1
 1000 1500 l 1,1,-1
 1000 200 l 1,2,-1
 1400 200 l 1,3,-1
 1400 1500 l 1,4,-1
 1600 1500 l 1,5,-1
 1600 0 l 1,6,-1
 800 0 l 1,7,-1
 800 1300 l 1,8,-1
 400 1300 l 1,9,-1
 400 0 l 1,10,-1
 200 0 l 1,11,-1
 200 1800 l 1,12,-1
 -200 1800 l 1,13,-1
 -200 2000 l 1,14,-1
 300 2000 l 1,15,-1
 300 1500 l 1,0,-1
950 2100 m 256,17,18
 1450 2100 1450 2100 1600 1500 c 1,19,20
 1250 1850 1250 1850 950 1850 c 256,21,22
 650 1850 650 1850 300 1600 c 1,23,16
 450 2100 450 2100 950 2100 c 256,17,18
EndSplineSet
EndChar

StartChar: u11A2D.11A01.11A08
Encoding: 1114288 -1 272
Width: 1800
GlyphClass: 2
Flags: W
LayerCount: 2
Fore
SplineSet
1000 225 m 256,0,1
 1104 225 1104 225 1177 298 c 128,-1,2
 1250 371 1250 371 1250 475 c 256,3,4
 1250 579 1250 579 1177 652 c 128,-1,5
 1104 725 1104 725 1000 725 c 256,6,7
 896 725 896 725 823 652 c 128,-1,8
 750 579 750 579 750 475 c 256,9,10
 750 371 750 371 823 298 c 128,-1,11
 896 225 896 225 1000 225 c 256,0,1
300 1500 m 1,12,-1
 1600 1500 l 1,13,-1
 1600 1300 l 1,14,-1
 1100 1300 l 1,15,-1
 1100 890 l 1,16,17
 1223 863 1223 863 1318 768 c 0,18,19
 1450 636 1450 636 1450 450 c 256,20,21
 1450 264 1450 264 1318 132 c 128,-1,22
 1186 0 1186 0 1000 0 c 256,23,24
 814 0 814 0 682 132 c 128,-1,25
 550 264 550 264 550 450 c 256,26,27
 550 636 550 636 682 768 c 0,28,29
 777 863 777 863 900 890 c 1,30,-1
 900 1300 l 1,31,-1
 400 1300 l 1,32,-1
 400 0 l 1,33,-1
 200 0 l 1,34,-1
 200 1800 l 1,35,-1
 -200 1800 l 1,36,-1
 -200 2000 l 1,37,-1
 300 2000 l 1,38,-1
 300 1500 l 1,12,-1
950 2100 m 256,40,41
 1450 2100 1450 2100 1600 1500 c 1,42,43
 1250 1850 1250 1850 950 1850 c 256,44,45
 650 1850 650 1850 300 1600 c 1,46,39
 450 2100 450 2100 950 2100 c 256,40,41
EndSplineSet
EndChar

StartChar: u11A2E.11A01.11A08
Encoding: 1114289 -1 273
Width: 1800
GlyphClass: 2
Flags: W
LayerCount: 2
Fore
SplineSet
1400 1300 m 1,0,-1
 1000 1300 l 1,1,-1
 1000 200 l 1,2,-1
 1400 200 l 1,3,-1
 1400 1300 l 1,0,-1
300 1500 m 1,4,-1
 400 1500 l 1,5,-1
 400 850 l 1,6,-1
 800 850 l 1,7,-1
 800 1500 l 1,8,-1
 1600 1500 l 1,9,-1
 1600 0 l 1,10,-1
 800 0 l 1,11,-1
 800 650 l 1,12,-1
 400 650 l 1,13,-1
 400 0 l 1,14,-1
 200 0 l 1,15,-1
 200 1800 l 1,16,-1
 -200 1800 l 1,17,-1
 -200 2000 l 1,18,-1
 300 2000 l 1,19,-1
 300 1500 l 1,4,-1
950 2100 m 256,21,22
 1450 2100 1450 2100 1600 1500 c 1,23,24
 1250 1850 1250 1850 950 1850 c 256,25,26
 650 1850 650 1850 300 1600 c 1,27,20
 450 2100 450 2100 950 2100 c 256,21,22
EndSplineSet
EndChar

StartChar: u11A2F.11A01.11A08
Encoding: 1114290 -1 274
Width: 1800
GlyphClass: 2
Flags: W
LayerCount: 2
Fore
SplineSet
400 1300 m 1,0,-1
 400 200 l 1,1,-1
 800 200 l 1,2,-1
 800 1300 l 1,3,-1
 400 1300 l 1,0,-1
300 1500 m 1,4,-1
 1000 1500 l 1,5,-1
 1000 850 l 1,6,-1
 1400 850 l 1,7,-1
 1400 1500 l 1,8,-1
 1600 1500 l 1,9,-1
 1600 0 l 1,10,-1
 1400 0 l 1,11,-1
 1400 650 l 1,12,-1
 1000 650 l 1,13,-1
 1000 0 l 1,14,-1
 200 0 l 1,15,-1
 200 1800 l 1,16,-1
 -200 1800 l 1,17,-1
 -200 2000 l 1,18,-1
 300 2000 l 1,19,-1
 300 1500 l 1,4,-1
950 2100 m 256,21,22
 1450 2100 1450 2100 1600 1500 c 1,23,24
 1250 1850 1250 1850 950 1850 c 256,25,26
 650 1850 650 1850 300 1600 c 1,27,20
 450 2100 450 2100 950 2100 c 256,21,22
EndSplineSet
EndChar

StartChar: u11A30.11A01.11A08
Encoding: 1114291 -1 275
Width: 1800
GlyphClass: 2
Flags: W
LayerCount: 2
Fore
SplineSet
300 1500 m 1,0,-1
 400 1500 l 1,1,-1
 1400 300 l 1,2,-1
 1400 1500 l 1,3,-1
 1600 1500 l 1,4,-1
 1600 0 l 1,5,-1
 1400 0 l 1,6,-1
 400 1200 l 1,7,-1
 400 0 l 1,8,-1
 200 0 l 1,9,-1
 200 1800 l 1,10,-1
 -200 1800 l 1,11,-1
 -200 2000 l 1,12,-1
 300 2000 l 1,13,-1
 300 1500 l 1,0,-1
950 2100 m 256,15,16
 1450 2100 1450 2100 1600 1500 c 1,17,18
 1250 1850 1250 1850 950 1850 c 256,19,20
 650 1850 650 1850 300 1600 c 1,21,14
 450 2100 450 2100 950 2100 c 256,15,16
EndSplineSet
EndChar

StartChar: u11A31.11A01.11A08
Encoding: 1114292 -1 276
Width: 1800
GlyphClass: 2
Flags: W
LayerCount: 2
Fore
SplineSet
300 1500 m 1,0,-1
 1600 1500 l 1,1,-1
 1600 1300 l 1,2,-1
 400 1300 l 1,3,-1
 400 200 l 1,4,-1
 800 200 l 1,5,-1
 800 850 l 1,6,-1
 1600 850 l 1,7,-1
 1600 0 l 1,8,-1
 1400 0 l 1,9,-1
 1400 650 l 1,10,-1
 1000 650 l 1,11,-1
 1000 0 l 1,12,-1
 200 0 l 1,13,-1
 200 1800 l 1,14,-1
 -200 1800 l 1,15,-1
 -200 2000 l 1,16,-1
 300 2000 l 1,17,-1
 300 1500 l 1,0,-1
950 2100 m 256,19,20
 1450 2100 1450 2100 1600 1500 c 1,21,22
 1250 1850 1250 1850 950 1850 c 256,23,24
 650 1850 650 1850 300 1600 c 1,25,18
 450 2100 450 2100 950 2100 c 256,19,20
EndSplineSet
EndChar

StartChar: u11A32.11A01.11A08
Encoding: 1114293 -1 277
Width: 1800
GlyphClass: 2
Flags: W
LayerCount: 2
Fore
SplineSet
300 1500 m 1,0,-1
 1600 1500 l 1,1,-1
 1600 0 l 1,2,-1
 1400 0 l 1,3,-1
 1400 1300 l 1,4,-1
 1000 1300 l 1,5,-1
 1000 650 l 1,6,-1
 400 650 l 1,7,-1
 400 200 l 1,8,-1
 1000 200 l 1,9,-1
 1000 0 l 1,10,-1
 200 0 l 1,11,-1
 200 850 l 1,12,-1
 800 850 l 1,13,-1
 800 1300 l 1,14,-1
 200 1300 l 1,15,-1
 200 1800 l 1,16,-1
 -200 1800 l 1,17,-1
 -200 2000 l 1,18,-1
 300 2000 l 1,19,-1
 300 1500 l 1,0,-1
950 2100 m 256,21,22
 1450 2100 1450 2100 1600 1500 c 1,23,24
 1250 1850 1250 1850 950 1850 c 256,25,26
 650 1850 650 1850 300 1600 c 1,27,20
 450 2100 450 2100 950 2100 c 256,21,22
EndSplineSet
EndChar

StartChar: u11A02.wide
Encoding: 1114335 -1 278
Width: 0
GlyphClass: 4
Flags: W
AnchorPoint: "vowel-below-mkmk" -200 0 mark 0
AnchorPoint: "vowel-below" -200 0 mark 0
LayerCount: 2
Fore
SplineSet
-2200 -100 m 1,1,2
 -1529 -350 -1529 -350 -1200 -350 c 256,3,4
 -871 -350 -871 -350 -200 0 c 1,5,6
 -586 -600 -586 -600 -1200 -600 c 256,7,8
 -1814 -600 -1814 -600 -2200 -100 c 1,1,2
EndSplineSet
EndChar

StartChar: u11A03.wide
Encoding: 1114540 -1 279
Width: 0
GlyphClass: 4
Flags: W
AnchorPoint: "vowel-below" -200 0 mark 0
AnchorPoint: "vowel-below-mkmk" -200 0 mark 0
LayerCount: 2
Fore
SplineSet
-200 0 m 1,0,-1
 -200 -500 l 1,1,-1
 -2200 -500 l 1,2,-1
 -2200 -300 l 1,3,-1
 -300 -300 l 1,4,-1
 -300 0 l 1,5,-1
 -200 0 l 1,0,-1
EndSplineSet
EndChar

StartChar: u11A00.11A04
Encoding: 1114704 -1 280
Width: 2400
GlyphClass: 2
Flags: W
LayerCount: 2
Fore
SplineSet
2200 0 m 1,0,-1
 1400 0 l 1,1,-1
 1400 1300 l 1,2,-1
 1000 1300 l 1,3,-1
 1000 0 l 1,4,-1
 200 0 l 1,5,-1
 200 1500 l 1,6,-1
 400 1500 l 1,7,-1
 400 200 l 1,8,-1
 800 200 l 1,9,-1
 800 1500 l 1,10,-1
 1600 1500 l 1,11,-1
 1600 200 l 1,12,-1
 2000 200 l 1,13,-1
 2000 1500 l 1,14,-1
 2100 1500 l 1,15,-1
 2100 1800 l 1,16,-1
 200 1800 l 1,17,-1
 200 2000 l 1,18,-1
 2200 2000 l 1,19,-1
 2200 0 l 1,0,-1
EndSplineSet
EndChar

StartChar: u11A0B.11A04
Encoding: 1114705 -1 281
Width: 1800
GlyphClass: 2
Flags: W
LayerCount: 2
Fore
SplineSet
1500 1500 m 1,0,-1
 1500 1800 l 1,1,-1
 200 1800 l 1,2,-1
 200 2000 l 1,3,-1
 1600 2000 l 1,4,-1
 1600 0 l 1,5,-1
 1400 0 l 1,6,-1
 1400 1300 l 1,7,-1
 1000 1300 l 1,8,-1
 1000 0 l 1,9,-1
 200 0 l 1,10,-1
 200 800 l 1,11,-1
 400 800 l 1,12,-1
 400 200 l 1,13,-1
 800 200 l 1,14,-1
 800 1300 l 1,15,-1
 200 1300 l 1,16,-1
 200 1500 l 1,17,-1
 1500 1500 l 1,0,-1
EndSplineSet
EndChar

StartChar: u11A0C.11A04
Encoding: 1114706 -1 282
Width: 1800
GlyphClass: 2
Flags: W
LayerCount: 2
Fore
SplineSet
1400 1300 m 1,0,-1
 1000 1300 l 1,1,-1
 1000 200 l 1,2,-1
 1400 200 l 1,3,-1
 1400 1300 l 1,0,-1
1500 1500 m 1,4,-1
 1500 1800 l 1,5,-1
 200 1800 l 1,6,-1
 200 2000 l 1,7,-1
 1600 2000 l 1,8,-1
 1600 0 l 1,9,-1
 800 0 l 1,10,-1
 800 1300 l 1,11,-1
 400 1300 l 1,12,-1
 400 0 l 1,13,-1
 200 0 l 1,14,-1
 200 1500 l 1,15,-1
 1500 1500 l 1,4,-1
EndSplineSet
LCarets2: 1 0
EndChar

StartChar: u11A0D.11A04
Encoding: 1114707 -1 283
Width: 1800
GlyphClass: 2
Flags: W
LayerCount: 2
Fore
SplineSet
400 1300 m 1,0,-1
 400 200 l 1,1,-1
 800 200 l 1,2,-1
 800 1300 l 1,3,-1
 400 1300 l 1,0,-1
1500 1500 m 1,4,-1
 1500 1800 l 1,5,-1
 200 1800 l 1,6,-1
 200 2000 l 1,7,-1
 1600 2000 l 1,8,-1
 1600 0 l 1,9,-1
 1400 0 l 1,10,-1
 1400 1300 l 1,11,-1
 1000 1300 l 1,12,-1
 1000 0 l 1,13,-1
 200 0 l 1,14,-1
 200 1500 l 1,15,-1
 1500 1500 l 1,4,-1
EndSplineSet
EndChar

StartChar: u11A0E.11A04
Encoding: 1114708 -1 284
Width: 1800
GlyphClass: 2
Flags: W
LayerCount: 2
Fore
SplineSet
400 600 m 1,0,-1
 400 200 l 1,1,-1
 800 200 l 1,2,-1
 800 600 l 1,3,-1
 400 600 l 1,0,-1
1500 1500 m 1,4,-1
 1500 1800 l 1,5,-1
 200 1800 l 1,6,-1
 200 2000 l 1,7,-1
 1600 2000 l 1,8,-1
 1600 0 l 1,9,-1
 1400 0 l 1,10,-1
 1400 1300 l 1,11,-1
 1000 1300 l 1,12,-1
 1000 0 l 1,13,-1
 200 0 l 1,14,-1
 200 800 l 1,15,-1
 800 800 l 1,16,-1
 800 1300 l 1,17,-1
 200 1300 l 1,18,-1
 200 1500 l 1,19,-1
 1500 1500 l 1,4,-1
EndSplineSet
EndChar

StartChar: u11A0F.11A04
Encoding: 1114709 -1 285
Width: 1800
GlyphClass: 2
Flags: W
LayerCount: 2
Fore
SplineSet
1500 1500 m 1,0,-1
 1500 1800 l 1,1,-1
 200 1800 l 1,2,-1
 200 2000 l 1,3,-1
 1600 2000 l 1,4,-1
 1600 650 l 1,5,-1
 400 650 l 1,6,-1
 400 200 l 1,7,-1
 1600 200 l 1,8,-1
 1600 0 l 1,9,-1
 200 0 l 1,10,-1
 200 850 l 1,11,-1
 1400 850 l 1,12,-1
 1400 1300 l 1,13,-1
 200 1300 l 1,14,-1
 200 1500 l 1,15,-1
 1500 1500 l 1,0,-1
EndSplineSet
EndChar

StartChar: u11A10.11A04
Encoding: 1114710 -1 286
Width: 1800
GlyphClass: 2
Flags: W
LayerCount: 2
Fore
SplineSet
1000 200 m 1,0,-1
 1400 200 l 1,1,-1
 1400 1300 l 1,2,-1
 1000 1300 l 1,3,-1
 1000 200 l 1,0,-1
1500 1500 m 1,4,-1
 1500 1800 l 1,5,-1
 200 1800 l 1,6,-1
 200 2000 l 1,7,-1
 1600 2000 l 1,8,-1
 1600 0 l 1,9,-1
 200 0 l 1,10,-1
 200 200 l 1,11,-1
 800 200 l 1,12,-1
 800 1300 l 1,13,-1
 200 1300 l 1,14,-1
 200 1500 l 1,15,-1
 1500 1500 l 1,4,-1
EndSplineSet
EndChar

StartChar: u11A11.11A04
Encoding: 1114711 -1 287
Width: 1800
GlyphClass: 2
Flags: W
LayerCount: 2
Fore
SplineSet
400 200 m 1,0,-1
 800 200 l 1,1,-1
 800 1300 l 1,2,-1
 400 1300 l 1,3,-1
 400 200 l 1,0,-1
1000 200 m 1,4,-1
 1400 200 l 1,5,-1
 1400 1300 l 1,6,-1
 1000 1300 l 1,7,-1
 1000 200 l 1,4,-1
1500 1500 m 1,8,-1
 1500 1800 l 1,9,-1
 200 1800 l 1,10,-1
 200 2000 l 1,11,-1
 1600 2000 l 1,12,-1
 1600 0 l 1,13,-1
 200 0 l 1,14,-1
 200 1500 l 1,15,-1
 1500 1500 l 1,8,-1
EndSplineSet
EndChar

StartChar: u11A12.11A04
Encoding: 1114712 -1 288
Width: 1800
GlyphClass: 2
Flags: W
LayerCount: 2
Fore
SplineSet
1500 1500 m 1,0,-1
 1500 1800 l 1,1,-1
 200 1800 l 1,2,-1
 200 2000 l 1,3,-1
 1600 2000 l 1,4,-1
 1600 1300 l 1,5,-1
 400 1300 l 1,6,-1
 400 850 l 1,7,-1
 1600 850 l 1,8,-1
 1600 650 l 1,9,-1
 400 650 l 1,10,-1
 400 200 l 1,11,-1
 1600 200 l 1,12,-1
 1600 0 l 1,13,-1
 200 0 l 1,14,-1
 200 1500 l 1,15,-1
 1500 1500 l 1,0,-1
EndSplineSet
EndChar

StartChar: u11A13.11A04
Encoding: 1114713 -1 289
Width: 1800
GlyphClass: 2
Flags: W
LayerCount: 2
Fore
SplineSet
1500 1500 m 1,0,-1
 1500 1800 l 1,1,-1
 200 1800 l 1,2,-1
 200 2000 l 1,3,-1
 1600 2000 l 1,4,-1
 1600 0 l 1,5,-1
 1400 0 l 1,6,-1
 1400 650 l 1,7,-1
 400 650 l 1,8,-1
 400 200 l 1,9,-1
 1000 200 l 1,10,-1
 1000 0 l 1,11,-1
 200 0 l 1,12,-1
 200 850 l 1,13,-1
 1400 850 l 1,14,-1
 1400 1300 l 1,15,-1
 200 1300 l 1,16,-1
 200 1500 l 1,17,-1
 1500 1500 l 1,0,-1
EndSplineSet
EndChar

StartChar: u11A14.11A04
Encoding: 1114714 -1 290
Width: 1800
GlyphClass: 2
Flags: W
LayerCount: 2
Fore
SplineSet
1500 1500 m 1,0,-1
 1500 1800 l 1,1,-1
 200 1800 l 1,2,-1
 200 2000 l 1,3,-1
 1600 2000 l 1,4,-1
 1600 1300 l 1,5,-1
 400 1300 l 1,6,-1
 400 1050 l 1,7,-1
 1600 850 l 1,8,-1
 850 0 l 1,9,-1
 600 0 l 1,10,-1
 1200 690 l 1,11,-1
 400 850 l 1,12,-1
 400 0 l 1,13,-1
 200 0 l 1,14,-1
 200 1500 l 1,15,-1
 1500 1500 l 1,0,-1
EndSplineSet
EndChar

StartChar: u11A15.11A04
Encoding: 1114715 -1 291
Width: 1800
GlyphClass: 2
Flags: W
LayerCount: 2
Fore
SplineSet
500 1300 m 1,0,-1
 900 867 l 1,1,-1
 1300 1300 l 1,2,-1
 500 1300 l 1,0,-1
900 633 m 1,3,-1
 500 200 l 1,4,-1
 1300 200 l 1,5,-1
 900 633 l 1,3,-1
1500 1500 m 1,6,-1
 1500 1800 l 1,7,-1
 200 1800 l 1,8,-1
 200 2000 l 1,9,-1
 1600 2000 l 1,10,-1
 1600 1500 l 1,11,-1
 1700 1500 l 1,12,-1
 1008 750 l 1,13,-1
 1700 0 l 1,14,-1
 100 0 l 1,15,-1
 792 750 l 1,16,-1
 100 1500 l 1,17,-1
 1500 1500 l 1,6,-1
EndSplineSet
EndChar

StartChar: u11A16.11A04
Encoding: 1114716 -1 292
Width: 1800
GlyphClass: 2
Flags: W
LayerCount: 2
Fore
SplineSet
1500 1500 m 1,0,-1
 1500 1800 l 1,1,-1
 200 1800 l 1,2,-1
 200 2000 l 1,3,-1
 1600 2000 l 1,4,-1
 1600 1300 l 1,5,-1
 650 1300 l 1,6,-1
 1600 0 l 1,7,-1
 200 0 l 1,8,-1
 200 200 l 1,9,-1
 1150 200 l 1,10,-1
 200 1500 l 1,11,-1
 1500 1500 l 1,0,-1
EndSplineSet
EndChar

StartChar: u11A17.11A04
Encoding: 1114717 -1 293
Width: 1800
GlyphClass: 2
Flags: W
LayerCount: 2
Fore
SplineSet
1500 1500 m 1,0,-1
 1500 1800 l 1,1,-1
 200 1800 l 1,2,-1
 200 2000 l 1,3,-1
 1600 2000 l 1,4,-1
 1600 800 l 1,5,-1
 1400 800 l 1,6,-1
 1400 1300 l 1,7,-1
 650 1300 l 1,8,-1
 1600 0 l 1,9,-1
 200 0 l 1,10,-1
 200 200 l 1,11,-1
 1150 200 l 1,12,-1
 200 1500 l 1,13,-1
 1500 1500 l 1,0,-1
EndSplineSet
EndChar

StartChar: u11A18.11A04
Encoding: 1114718 -1 294
Width: 1800
GlyphClass: 2
Flags: W
LayerCount: 2
Fore
SplineSet
1400 200 m 1,0,-1
 1400 1000 l 1,1,-1
 600 600 l 1,2,-1
 1400 200 l 1,0,-1
1500 1500 m 1,3,-1
 1500 1800 l 1,4,-1
 200 1800 l 1,5,-1
 200 2000 l 1,6,-1
 1600 2000 l 1,7,-1
 1600 0 l 1,8,-1
 1400 0 l 1,9,-1
 200 600 l 1,10,-1
 1400 1200 l 1,11,-1
 1400 1300 l 1,12,-1
 200 1300 l 1,13,-1
 200 1500 l 1,14,-1
 1500 1500 l 1,3,-1
EndSplineSet
EndChar

StartChar: u11A19.11A04
Encoding: 1114719 -1 295
Width: 1800
GlyphClass: 2
Flags: W
LayerCount: 2
Fore
SplineSet
1500 1500 m 1,0,-1
 1500 1800 l 1,1,-1
 200 1800 l 1,2,-1
 200 2000 l 1,3,-1
 1600 2000 l 1,4,-1
 1600 1300 l 1,5,-1
 400 1300 l 1,6,-1
 400 850 l 1,7,-1
 1600 850 l 1,8,-1
 1600 0 l 1,9,-1
 1400 0 l 1,10,-1
 1400 650 l 1,11,-1
 400 650 l 1,12,-1
 400 0 l 1,13,-1
 200 0 l 1,14,-1
 200 1500 l 1,15,-1
 1500 1500 l 1,0,-1
EndSplineSet
EndChar

StartChar: u11A1A.11A04
Encoding: 1114720 -1 296
Width: 1800
GlyphClass: 2
Flags: W
LayerCount: 2
Fore
SplineSet
1400 650 m 1,0,-1
 400 650 l 1,1,-1
 400 200 l 1,2,-1
 1400 200 l 1,3,-1
 1400 650 l 1,0,-1
400 1300 m 1,4,-1
 400 850 l 1,5,-1
 1400 850 l 1,6,-1
 1400 1300 l 1,7,-1
 400 1300 l 1,4,-1
1500 1500 m 1,8,-1
 1500 1800 l 1,9,-1
 200 1800 l 1,10,-1
 200 2000 l 1,11,-1
 1600 2000 l 1,12,-1
 1600 0 l 1,13,-1
 200 0 l 1,14,-1
 200 1500 l 1,15,-1
 1500 1500 l 1,8,-1
EndSplineSet
LCarets2: 1 0
EndChar

StartChar: u11A1B.11A04
Encoding: 1114721 -1 297
Width: 1800
GlyphClass: 2
Flags: W
LayerCount: 2
Fore
SplineSet
1500 1500 m 1,0,-1
 1500 1800 l 1,1,-1
 200 1800 l 1,2,-1
 200 2000 l 1,3,-1
 1600 2000 l 1,4,-1
 1600 1300 l 1,5,-1
 400 1300 l 1,6,-1
 400 850 l 1,7,-1
 1600 850 l 1,8,-1
 1600 0 l 1,9,-1
 200 0 l 1,10,-1
 200 200 l 1,11,-1
 1400 200 l 1,12,-1
 1400 650 l 1,13,-1
 200 650 l 1,14,-1
 200 1500 l 1,15,-1
 1500 1500 l 1,0,-1
EndSplineSet
EndChar

StartChar: u11A1C.11A04
Encoding: 1114722 -1 298
Width: 1800
GlyphClass: 2
Flags: W
LayerCount: 2
Fore
SplineSet
1500 1500 m 1,0,-1
 1500 1800 l 1,1,-1
 200 1800 l 1,2,-1
 200 2000 l 1,3,-1
 1600 2000 l 1,4,-1
 1600 1300 l 1,5,-1
 400 1300 l 1,6,-1
 400 900 l 1,7,-1
 1600 900 l 1,8,-1
 1600 800 l 1,9,10
 1403 678 1403 678 1096 500 c 0,11,12
 812 334 812 334 1099 211 c 1,13,14
 1327 99 1327 99 1600 0 c 1,15,-1
 1400 0 l 1,16,17
 1009 71 1009 71 803 150 c 1,18,19
 518 334 518 334 824 528 c 0,20,21
 994 632 994 632 1150 700 c 1,22,-1
 400 700 l 1,23,-1
 400 0 l 1,24,-1
 200 0 l 1,25,-1
 200 1500 l 1,26,-1
 1500 1500 l 1,0,-1
EndSplineSet
EndChar

StartChar: u11A1D.11A04
Encoding: 1114723 -1 299
Width: 1800
GlyphClass: 2
Flags: W
LayerCount: 2
Fore
SplineSet
800 650 m 1,0,-1
 400 650 l 1,1,-1
 400 200 l 1,2,-1
 800 200 l 1,3,-1
 800 650 l 1,0,-1
1500 1500 m 1,4,-1
 1500 1800 l 1,5,-1
 200 1800 l 1,6,-1
 200 2000 l 1,7,-1
 1600 2000 l 1,8,-1
 1600 0 l 1,9,-1
 1400 0 l 1,10,-1
 1400 650 l 1,11,-1
 1000 650 l 1,12,-1
 1000 0 l 1,13,-1
 200 0 l 1,14,-1
 200 850 l 1,15,-1
 1400 850 l 1,16,-1
 1400 1300 l 1,17,-1
 200 1300 l 1,18,-1
 200 1500 l 1,19,-1
 1500 1500 l 1,4,-1
EndSplineSet
EndChar

StartChar: u11A1E.11A04
Encoding: 1114724 -1 300
Width: 1800
GlyphClass: 2
Flags: W
LayerCount: 2
Fore
SplineSet
1500 1500 m 1,0,-1
 1500 1800 l 1,1,-1
 200 1800 l 1,2,-1
 200 2000 l 1,3,-1
 1600 2000 l 1,4,-1
 1600 0 l 1,5,-1
 200 0 l 1,6,-1
 200 1500 l 1,7,-1
 400 1500 l 1,8,-1
 400 200 l 1,9,-1
 1400 200 l 1,10,-1
 1400 1500 l 1,11,-1
 1500 1500 l 1,0,-1
EndSplineSet
EndChar

StartChar: u11A1F.11A04
Encoding: 1114725 -1 301
Width: 1800
GlyphClass: 2
Flags: W
LayerCount: 2
Fore
SplineSet
1400 200 m 1,0,-1
 1400 1300 l 1,1,-1
 1000 1300 l 1,2,-1
 1000 200 l 1,3,-1
 1400 200 l 1,0,-1
1500 1500 m 1,4,-1
 1500 1800 l 1,5,-1
 200 1800 l 1,6,-1
 200 2000 l 1,7,-1
 1600 2000 l 1,8,-1
 1600 0 l 1,9,-1
 200 0 l 1,10,-1
 200 1500 l 1,11,-1
 400 1500 l 1,12,-1
 400 200 l 1,13,-1
 800 200 l 1,14,-1
 800 1500 l 1,15,-1
 1500 1500 l 1,4,-1
EndSplineSet
EndChar

StartChar: u11A20.11A04
Encoding: 1114726 -1 302
Width: 1800
GlyphClass: 2
Flags: W
LayerCount: 2
Fore
SplineSet
1400 200 m 1,0,-1
 1400 1300 l 1,1,-1
 400 1300 l 1,2,-1
 400 200 l 1,3,-1
 1400 200 l 1,0,-1
1500 1500 m 1,4,-1
 1500 1800 l 1,5,-1
 200 1800 l 1,6,-1
 200 2000 l 1,7,-1
 1600 2000 l 1,8,-1
 1600 0 l 1,9,-1
 200 0 l 1,10,-1
 200 1500 l 1,11,-1
 1500 1500 l 1,4,-1
EndSplineSet
EndChar

StartChar: u11A21.11A04
Encoding: 1114727 -1 303
Width: 1800
GlyphClass: 2
Flags: W
LayerCount: 2
Fore
SplineSet
1400 200 m 1,0,-1
 1400 1300 l 1,1,-1
 550 1300 l 1,2,3
 687 1148 687 1148 748 995 c 0,4,5
 828 796 828 796 778 596 c 0,6,7
 728 398 728 398 550 200 c 1,8,-1
 1400 200 l 1,0,-1
1500 1500 m 1,9,-1
 1500 1800 l 1,10,-1
 200 1800 l 1,11,-1
 200 2000 l 1,12,-1
 1600 2000 l 1,13,-1
 1600 0 l 1,14,-1
 200 0 l 1,15,16
 902 750 902 750 200 1500 c 1,17,-1
 1500 1500 l 1,9,-1
EndSplineSet
EndChar

StartChar: u11A22.11A04
Encoding: 1114728 -1 304
Width: 1800
GlyphClass: 2
Flags: W
LayerCount: 2
Fore
SplineSet
400 200 m 1,0,-1
 800 200 l 1,1,-1
 800 1300 l 1,2,-1
 400 1300 l 1,3,-1
 400 200 l 1,0,-1
1500 1500 m 1,4,-1
 1500 1800 l 1,5,-1
 200 1800 l 1,6,-1
 200 2000 l 1,7,-1
 1600 2000 l 1,8,-1
 1600 0 l 1,9,-1
 200 0 l 1,10,-1
 200 1500 l 1,11,-1
 1000 1500 l 1,12,-1
 1000 200 l 1,13,-1
 1400 200 l 1,14,-1
 1400 1500 l 1,15,-1
 1500 1500 l 1,4,-1
EndSplineSet
EndChar

StartChar: u11A23.11A04
Encoding: 1114729 -1 305
Width: 1800
GlyphClass: 2
Flags: W
LayerCount: 2
Fore
SplineSet
1000 200 m 1,0,-1
 1400 200 l 1,1,-1
 1400 1300 l 1,2,-1
 1000 1300 l 1,3,-1
 1000 200 l 1,0,-1
1500 1523 m 1,4,-1
 1631 1800 l 2,5,6
 1656 1853 1656 1853 1703 1825 c 1,7,8
 1842 1719 1842 1719 2003 1833 c 1,9,10
 2055 1849 2055 1849 2055 1790 c 0,11,12
 2055 1667 2055 1667 1978 1599 c 1,13,14
 1846 1519 1846 1519 1654 1613 c 1,15,-1
 1600 1500 l 1,16,-1
 1600 0 l 1,17,-1
 200 0 l 1,18,-1
 200 200 l 1,19,-1
 800 200 l 1,20,-1
 800 1300 l 1,21,-1
 200 1300 l 1,22,-1
 200 1500 l 1,23,-1
 1400 1500 l 1,24,-1
 1400 1800 l 1,25,-1
 200 1800 l 1,26,-1
 200 2000 l 1,27,-1
 1500 2000 l 1,28,-1
 1500 1523 l 1,4,-1
EndSplineSet
EndChar

StartChar: u11A24.11A04
Encoding: 1114730 -1 306
Width: 1800
GlyphClass: 2
Flags: W
LayerCount: 2
Fore
SplineSet
400 200 m 1,0,-1
 800 200 l 1,1,-1
 800 1300 l 1,2,-1
 400 1300 l 1,3,-1
 400 200 l 1,0,-1
1000 200 m 1,4,-1
 1400 200 l 1,5,-1
 1400 1300 l 1,6,-1
 1000 1300 l 1,7,-1
 1000 200 l 1,4,-1
1500 1523 m 1,8,-1
 1631 1800 l 2,9,10
 1656 1853 1656 1853 1703 1825 c 1,11,12
 1842 1719 1842 1719 2003 1833 c 1,13,14
 2055 1849 2055 1849 2055 1790 c 0,15,16
 2055 1667 2055 1667 1978 1599 c 1,17,18
 1846 1519 1846 1519 1654 1613 c 1,19,-1
 1600 1500 l 1,20,-1
 1600 0 l 1,21,-1
 200 0 l 1,22,-1
 200 1500 l 1,23,-1
 1400 1500 l 1,24,-1
 1400 1800 l 1,25,-1
 200 1800 l 1,26,-1
 200 2000 l 1,27,-1
 1500 2000 l 1,28,-1
 1500 1523 l 1,8,-1
EndSplineSet
EndChar

StartChar: u11A25.11A04
Encoding: 1114731 -1 307
Width: 1800
GlyphClass: 2
Flags: W
LayerCount: 2
Fore
SplineSet
1500 1523 m 1,0,-1
 1631 1800 l 2,1,2
 1656 1853 1656 1853 1703 1825 c 1,3,4
 1842 1719 1842 1719 2003 1833 c 1,5,6
 2055 1849 2055 1849 2055 1790 c 0,7,8
 2055 1667 2055 1667 1978 1599 c 1,9,10
 1846 1519 1846 1519 1654 1613 c 1,11,-1
 1504 1300 l 1,12,-1
 400 1300 l 1,13,-1
 400 850 l 1,14,-1
 1600 850 l 1,15,-1
 1600 650 l 1,16,-1
 400 650 l 1,17,-1
 400 200 l 1,18,-1
 1600 200 l 1,19,-1
 1600 0 l 1,20,-1
 200 0 l 1,21,-1
 200 1500 l 1,22,-1
 1400 1500 l 1,23,-1
 1400 1800 l 1,24,-1
 200 1800 l 1,25,-1
 200 2000 l 1,26,-1
 1500 2000 l 1,27,-1
 1500 1523 l 1,0,-1
EndSplineSet
EndChar

StartChar: u11A26.11A04
Encoding: 1114732 -1 308
Width: 1800
GlyphClass: 2
Flags: W
LayerCount: 2
Fore
SplineSet
1500 1523 m 1,0,-1
 1631 1800 l 2,1,2
 1656 1853 1656 1853 1703 1825 c 1,3,4
 1842 1719 1842 1719 2003 1833 c 1,5,6
 2055 1849 2055 1849 2055 1790 c 0,7,8
 2055 1667 2055 1667 1978 1599 c 1,9,10
 1846 1519 1846 1519 1654 1613 c 1,11,-1
 1504 1300 l 1,12,-1
 400 1300 l 1,13,-1
 400 850 l 1,14,-1
 949 850 l 1,15,16
 972 932 972 932 1038 998 c 0,17,18
 1140 1100 1140 1100 1285 1100 c 256,19,20
 1430 1100 1430 1100 1532 997 c 0,21,22
 1575 955 1575 955 1600 905 c 1,23,-1
 1450 809 l 1,24,25
 1437 845 1437 845 1409 874 c 0,26,27
 1357 925 1357 925 1285 925 c 256,28,29
 1213 925 1213 925 1161.5 873.5 c 128,-1,30
 1110 822 1110 822 1110 750 c 256,31,32
 1110 678 1110 678 1161.5 626.5 c 128,-1,33
 1213 575 1213 575 1285 575 c 256,34,35
 1357 575 1357 575 1409 626 c 0,36,37
 1437 654 1437 654 1449 688 c 1,38,-1
 1601 597 l 1,39,40
 1575 546 1575 546 1532 503 c 0,41,42
 1430 400 1430 400 1285 400 c 256,43,44
 1140 400 1140 400 1038 503 c 0,45,46
 972 568 972 568 949 650 c 1,47,-1
 400 650 l 1,48,-1
 400 200 l 1,49,-1
 1600 200 l 1,50,-1
 1600 0 l 1,51,-1
 200 0 l 1,52,-1
 200 1500 l 1,53,-1
 1400 1500 l 1,54,-1
 1400 1800 l 1,55,-1
 200 1800 l 1,56,-1
 200 2000 l 1,57,-1
 1500 2000 l 1,58,-1
 1500 1523 l 1,0,-1
EndSplineSet
EndChar

StartChar: u11A27.11A04
Encoding: 1114733 -1 309
Width: 1800
GlyphClass: 2
Flags: W
LayerCount: 2
Fore
SplineSet
1400 200 m 1,0,-1
 1400 650 l 1,1,-1
 1200 650 l 2,2,3
 900 650 900 650 900 425 c 256,4,5
 900 200 900 200 1200 200 c 2,6,-1
 1400 200 l 1,0,-1
1500 1500 m 1,7,-1
 1500 1800 l 1,8,-1
 200 1800 l 1,9,-1
 200 2000 l 1,10,-1
 1600 2000 l 1,11,-1
 1600 0 l 1,12,-1
 1200 0 l 2,13,14
 700 0 700 0 700 425 c 256,15,16
 700 850 700 850 1200 850 c 2,17,-1
 1400 850 l 1,18,-1
 1400 1300 l 1,19,-1
 400 1300 l 1,20,-1
 400 0 l 1,21,-1
 200 0 l 1,22,-1
 200 1500 l 1,23,-1
 1500 1500 l 1,7,-1
EndSplineSet
EndChar

StartChar: u11A28.11A04
Encoding: 1114734 -1 310
Width: 1800
GlyphClass: 2
Flags: W
LayerCount: 2
Fore
SplineSet
1500 1500 m 1,0,-1
 1500 1800 l 1,1,-1
 200 1800 l 1,2,-1
 200 2000 l 1,3,-1
 1600 2000 l 1,4,-1
 1600 0 l 1,5,-1
 200 0 l 1,6,-1
 200 200 l 1,7,-1
 1400 200 l 1,8,-1
 1400 650 l 1,9,-1
 200 650 l 1,10,-1
 200 850 l 1,11,-1
 1400 850 l 1,12,-1
 1400 1300 l 1,13,-1
 200 1300 l 1,14,-1
 200 1500 l 1,15,-1
 1500 1500 l 1,0,-1
EndSplineSet
EndChar

StartChar: u11A29.11A04
Encoding: 1114735 -1 311
Width: 1800
GlyphClass: 2
Flags: W
LayerCount: 2
Fore
SplineSet
1500 1500 m 1,0,-1
 1500 1800 l 1,1,-1
 200 1800 l 1,2,-1
 200 2000 l 1,3,-1
 1600 2000 l 1,4,-1
 1600 650 l 1,5,-1
 1000 650 l 1,6,-1
 1000 200 l 1,7,-1
 1600 200 l 1,8,-1
 1600 0 l 1,9,-1
 800 0 l 1,10,-1
 800 850 l 1,11,-1
 1400 850 l 1,12,-1
 1400 1300 l 1,13,-1
 400 1300 l 1,14,-1
 400 0 l 1,15,-1
 200 0 l 1,16,-1
 200 1500 l 1,17,-1
 1500 1500 l 1,0,-1
EndSplineSet
EndChar

StartChar: u11A2A.11A04
Encoding: 1114736 -1 312
Width: 1800
GlyphClass: 2
Flags: W
LayerCount: 2
Fore
SplineSet
1500 1500 m 1,0,-1
 1500 1800 l 1,1,-1
 200 1800 l 1,2,-1
 200 2000 l 1,3,-1
 1600 2000 l 1,4,-1
 1600 0 l 1,5,-1
 200 0 l 1,6,-1
 200 1500 l 1,7,-1
 400 1500 l 1,8,-1
 400 200 l 1,9,-1
 800 200 l 1,10,-1
 800 1500 l 1,11,-1
 1000 1500 l 1,12,-1
 1000 200 l 1,13,-1
 1400 200 l 1,14,-1
 1400 1500 l 1,15,-1
 1500 1500 l 1,0,-1
EndSplineSet
EndChar

StartChar: u11A2B.11A04
Encoding: 1114737 -1 313
Width: 1800
GlyphClass: 2
Flags: W
LayerCount: 2
Fore
SplineSet
1500 1500 m 1,0,-1
 1500 1800 l 1,1,-1
 200 1800 l 1,2,-1
 200 2000 l 1,3,-1
 1600 2000 l 1,4,-1
 1600 1300 l 1,5,-1
 1000 1300 l 1,6,-1
 1000 850 l 1,7,-1
 1600 850 l 1,8,-1
 1600 0 l 1,9,-1
 1400 0 l 1,10,-1
 1400 650 l 1,11,-1
 400 650 l 1,12,-1
 400 0 l 1,13,-1
 200 0 l 1,14,-1
 200 850 l 1,15,-1
 800 850 l 1,16,-1
 800 1300 l 1,17,-1
 200 1300 l 1,18,-1
 200 1500 l 1,19,-1
 1500 1500 l 1,0,-1
EndSplineSet
EndChar

StartChar: u11A2C.11A04
Encoding: 1114738 -1 314
Width: 1800
GlyphClass: 2
Flags: W
LayerCount: 2
Fore
SplineSet
1500 1500 m 1,0,-1
 1500 1800 l 1,1,-1
 200 1800 l 1,2,-1
 200 2000 l 1,3,-1
 1600 2000 l 1,4,-1
 1600 0 l 1,5,-1
 800 0 l 1,6,-1
 800 1300 l 1,7,-1
 400 1300 l 1,8,-1
 400 0 l 1,9,-1
 200 0 l 1,10,-1
 200 1500 l 1,11,-1
 1000 1500 l 1,12,-1
 1000 200 l 1,13,-1
 1400 200 l 1,14,-1
 1400 1500 l 1,15,-1
 1500 1500 l 1,0,-1
EndSplineSet
EndChar

StartChar: u11A2D.11A04
Encoding: 1114739 -1 315
Width: 1800
GlyphClass: 2
Flags: W
LayerCount: 2
Fore
SplineSet
1000 225 m 256,0,1
 1104 225 1104 225 1177 298 c 128,-1,2
 1250 371 1250 371 1250 475 c 256,3,4
 1250 579 1250 579 1177 652 c 128,-1,5
 1104 725 1104 725 1000 725 c 256,6,7
 896 725 896 725 823 652 c 128,-1,8
 750 579 750 579 750 475 c 256,9,10
 750 371 750 371 823 298 c 128,-1,11
 896 225 896 225 1000 225 c 256,0,1
1500 1500 m 1,12,-1
 1500 1800 l 1,13,-1
 200 1800 l 1,14,-1
 200 2000 l 1,15,-1
 1600 2000 l 1,16,-1
 1600 1300 l 1,17,-1
 1100 1300 l 1,18,-1
 1100 890 l 1,19,20
 1223 863 1223 863 1318 768 c 0,21,22
 1450 636 1450 636 1450 450 c 256,23,24
 1450 264 1450 264 1318 132 c 128,-1,25
 1186 0 1186 0 1000 0 c 256,26,27
 814 0 814 0 682 132 c 128,-1,28
 550 264 550 264 550 450 c 256,29,30
 550 636 550 636 682 768 c 0,31,32
 777 863 777 863 900 890 c 1,33,-1
 900 1300 l 1,34,-1
 400 1300 l 1,35,-1
 400 0 l 1,36,-1
 200 0 l 1,37,-1
 200 1500 l 1,38,-1
 1500 1500 l 1,12,-1
EndSplineSet
EndChar

StartChar: u11A2E.11A04
Encoding: 1114740 -1 316
Width: 1800
GlyphClass: 2
Flags: W
LayerCount: 2
Fore
SplineSet
1400 1300 m 1,0,-1
 1000 1300 l 1,1,-1
 1000 200 l 1,2,-1
 1400 200 l 1,3,-1
 1400 1300 l 1,0,-1
1500 1500 m 1,4,-1
 1500 1800 l 1,5,-1
 200 1800 l 1,6,-1
 200 2000 l 1,7,-1
 1600 2000 l 1,8,-1
 1600 0 l 1,9,-1
 800 0 l 1,10,-1
 800 650 l 1,11,-1
 400 650 l 1,12,-1
 400 0 l 1,13,-1
 200 0 l 1,14,-1
 200 1500 l 1,15,-1
 400 1500 l 1,16,-1
 400 850 l 1,17,-1
 800 850 l 1,18,-1
 800 1500 l 1,19,-1
 1500 1500 l 1,4,-1
EndSplineSet
EndChar

StartChar: u11A2F.11A04
Encoding: 1114741 -1 317
Width: 1800
GlyphClass: 2
Flags: W
LayerCount: 2
Fore
SplineSet
400 1300 m 1,0,-1
 400 200 l 1,1,-1
 800 200 l 1,2,-1
 800 1300 l 1,3,-1
 400 1300 l 1,0,-1
1500 1500 m 1,4,-1
 1500 1800 l 1,5,-1
 200 1800 l 1,6,-1
 200 2000 l 1,7,-1
 1600 2000 l 1,8,-1
 1600 0 l 1,9,-1
 1400 0 l 1,10,-1
 1400 650 l 1,11,-1
 1000 650 l 1,12,-1
 1000 0 l 1,13,-1
 200 0 l 1,14,-1
 200 1500 l 1,15,-1
 1000 1500 l 1,16,-1
 1000 850 l 1,17,-1
 1400 850 l 1,18,-1
 1400 1500 l 1,19,-1
 1500 1500 l 1,4,-1
EndSplineSet
EndChar

StartChar: u11A30.11A04
Encoding: 1114742 -1 318
Width: 1800
GlyphClass: 2
Flags: W
LayerCount: 2
Fore
SplineSet
1500 1500 m 1,0,-1
 1500 1800 l 1,1,-1
 200 1800 l 1,2,-1
 200 2000 l 1,3,-1
 1600 2000 l 1,4,-1
 1600 0 l 1,5,-1
 1400 0 l 1,6,-1
 400 1200 l 1,7,-1
 400 0 l 1,8,-1
 200 0 l 1,9,-1
 200 1500 l 1,10,-1
 400 1500 l 1,11,-1
 1400 300 l 1,12,-1
 1400 1500 l 1,13,-1
 1500 1500 l 1,0,-1
EndSplineSet
EndChar

StartChar: u11A31.11A04
Encoding: 1114743 -1 319
Width: 1800
GlyphClass: 2
Flags: W
LayerCount: 2
Fore
SplineSet
1500 1500 m 1,0,-1
 1500 1800 l 1,1,-1
 200 1800 l 1,2,-1
 200 2000 l 1,3,-1
 1600 2000 l 1,4,-1
 1600 1300 l 1,5,-1
 400 1300 l 1,6,-1
 400 200 l 1,7,-1
 800 200 l 1,8,-1
 800 850 l 1,9,-1
 1600 850 l 1,10,-1
 1600 0 l 1,11,-1
 1400 0 l 1,12,-1
 1400 650 l 1,13,-1
 1000 650 l 1,14,-1
 1000 0 l 1,15,-1
 200 0 l 1,16,-1
 200 1500 l 1,17,-1
 1500 1500 l 1,0,-1
EndSplineSet
EndChar

StartChar: u11A32.11A04
Encoding: 1114744 -1 320
Width: 1800
GlyphClass: 2
Flags: W
LayerCount: 2
Fore
SplineSet
1500 1500 m 1,0,-1
 1500 1800 l 1,1,-1
 200 1800 l 1,2,-1
 200 2000 l 1,3,-1
 1600 2000 l 1,4,-1
 1600 0 l 1,5,-1
 1400 0 l 1,6,-1
 1400 1300 l 1,7,-1
 1000 1300 l 1,8,-1
 1000 650 l 1,9,-1
 400 650 l 1,10,-1
 400 200 l 1,11,-1
 1000 200 l 1,12,-1
 1000 0 l 1,13,-1
 200 0 l 1,14,-1
 200 850 l 1,15,-1
 800 850 l 1,16,-1
 800 1300 l 1,17,-1
 200 1300 l 1,18,-1
 200 1500 l 1,19,-1
 1500 1500 l 1,0,-1
EndSplineSet
EndChar

StartChar: u11A00.11A04.11A04
Encoding: 1114745 -1 321
Width: 2400
GlyphClass: 2
Flags: W
LayerCount: 2
Fore
SplineSet
2200 0 m 1,0,-1
 1400 0 l 1,1,-1
 1400 1300 l 1,2,-1
 1000 1300 l 1,3,-1
 1000 0 l 1,4,-1
 200 0 l 1,5,-1
 200 1500 l 1,6,-1
 400 1500 l 1,7,-1
 400 200 l 1,8,-1
 800 200 l 1,9,-1
 800 1500 l 1,10,-1
 1600 1500 l 1,11,-1
 1600 200 l 1,12,-1
 2000 200 l 1,13,-1
 2000 1500 l 1,14,-1
 2100 1500 l 1,15,-1
 2100 1800 l 1,16,-1
 200 1800 l 1,17,-1
 200 2000 l 1,18,-1
 2100 2000 l 1,19,-1
 2100 2200 l 1,20,-1
 200 2200 l 1,21,-1
 200 2400 l 1,22,-1
 2200 2400 l 1,23,-1
 2200 0 l 1,0,-1
EndSplineSet
EndChar

StartChar: u11A0B.11A04.11A04
Encoding: 1114746 -1 322
Width: 1800
GlyphClass: 2
Flags: W
LayerCount: 2
Fore
SplineSet
1600 0 m 1,0,-1
 1400 0 l 1,1,-1
 1400 1300 l 1,2,-1
 1000 1300 l 1,3,-1
 1000 0 l 1,4,-1
 200 0 l 1,5,-1
 200 800 l 1,6,-1
 400 800 l 1,7,-1
 400 200 l 1,8,-1
 800 200 l 1,9,-1
 800 1300 l 1,10,-1
 200 1300 l 1,11,-1
 200 1500 l 1,12,-1
 1500 1500 l 1,13,-1
 1500 1800 l 1,14,-1
 200 1800 l 1,15,-1
 200 2000 l 1,16,-1
 1500 2000 l 1,17,-1
 1500 2200 l 1,18,-1
 200 2200 l 1,19,-1
 200 2400 l 1,20,-1
 1600 2400 l 1,21,-1
 1600 0 l 1,0,-1
EndSplineSet
EndChar

StartChar: u11A0C.11A04.11A04
Encoding: 1114747 -1 323
Width: 1800
GlyphClass: 2
Flags: W
LayerCount: 2
Fore
SplineSet
1400 1300 m 1,0,-1
 1000 1300 l 1,1,-1
 1000 200 l 1,2,-1
 1400 200 l 1,3,-1
 1400 1300 l 1,0,-1
1600 0 m 1,4,-1
 800 0 l 1,5,-1
 800 1300 l 1,6,-1
 400 1300 l 1,7,-1
 400 0 l 1,8,-1
 200 0 l 1,9,-1
 200 1500 l 1,10,-1
 1500 1500 l 1,11,-1
 1500 1800 l 1,12,-1
 200 1800 l 1,13,-1
 200 2000 l 1,14,-1
 1500 2000 l 1,15,-1
 1500 2200 l 1,16,-1
 200 2200 l 1,17,-1
 200 2400 l 1,18,-1
 1600 2400 l 1,19,-1
 1600 0 l 1,4,-1
EndSplineSet
EndChar

StartChar: u11A0D.11A04.11A04
Encoding: 1114748 -1 324
Width: 1800
GlyphClass: 2
Flags: W
LayerCount: 2
Fore
SplineSet
400 1300 m 1,0,-1
 400 200 l 1,1,-1
 800 200 l 1,2,-1
 800 1300 l 1,3,-1
 400 1300 l 1,0,-1
1600 0 m 1,4,-1
 1400 0 l 1,5,-1
 1400 1300 l 1,6,-1
 1000 1300 l 1,7,-1
 1000 0 l 1,8,-1
 200 0 l 1,9,-1
 200 1500 l 1,10,-1
 1500 1500 l 1,11,-1
 1500 1800 l 1,12,-1
 200 1800 l 1,13,-1
 200 2000 l 1,14,-1
 1500 2000 l 1,15,-1
 1500 2200 l 1,16,-1
 200 2200 l 1,17,-1
 200 2400 l 1,18,-1
 1600 2400 l 1,19,-1
 1600 0 l 1,4,-1
EndSplineSet
EndChar

StartChar: u11A0E.11A04.11A04
Encoding: 1114749 -1 325
Width: 1800
GlyphClass: 2
Flags: W
LayerCount: 2
Fore
SplineSet
400 600 m 1,0,-1
 400 200 l 1,1,-1
 800 200 l 1,2,-1
 800 600 l 1,3,-1
 400 600 l 1,0,-1
1600 0 m 1,4,-1
 1400 0 l 1,5,-1
 1400 1300 l 1,6,-1
 1000 1300 l 1,7,-1
 1000 0 l 1,8,-1
 200 0 l 1,9,-1
 200 800 l 1,10,-1
 800 800 l 1,11,-1
 800 1300 l 1,12,-1
 200 1300 l 1,13,-1
 200 1500 l 1,14,-1
 1500 1500 l 1,15,-1
 1500 1800 l 1,16,-1
 200 1800 l 1,17,-1
 200 2000 l 1,18,-1
 1500 2000 l 1,19,-1
 1500 2200 l 1,20,-1
 200 2200 l 1,21,-1
 200 2400 l 1,22,-1
 1600 2400 l 1,23,-1
 1600 0 l 1,4,-1
EndSplineSet
EndChar

StartChar: u11A0F.11A04.11A04
Encoding: 1114750 -1 326
Width: 1800
GlyphClass: 2
Flags: W
LayerCount: 2
Fore
SplineSet
1600 650 m 1,0,-1
 400 650 l 1,1,-1
 400 200 l 1,2,-1
 1600 200 l 1,3,-1
 1600 0 l 1,4,-1
 200 0 l 1,5,-1
 200 850 l 1,6,-1
 1400 850 l 1,7,-1
 1400 1300 l 1,8,-1
 200 1300 l 1,9,-1
 200 1500 l 1,10,-1
 1500 1500 l 1,11,-1
 1500 1800 l 1,12,-1
 200 1800 l 1,13,-1
 200 2000 l 1,14,-1
 1500 2000 l 1,15,-1
 1500 2200 l 1,16,-1
 200 2200 l 1,17,-1
 200 2400 l 1,18,-1
 1600 2400 l 1,19,-1
 1600 650 l 1,0,-1
EndSplineSet
EndChar

StartChar: u11A10.11A04.11A04
Encoding: 1114751 -1 327
Width: 1800
GlyphClass: 2
Flags: W
LayerCount: 2
Fore
SplineSet
1000 200 m 1,0,-1
 1400 200 l 1,1,-1
 1400 1300 l 1,2,-1
 1000 1300 l 1,3,-1
 1000 200 l 1,0,-1
1600 0 m 1,4,-1
 200 0 l 1,5,-1
 200 200 l 1,6,-1
 800 200 l 1,7,-1
 800 1300 l 1,8,-1
 200 1300 l 1,9,-1
 200 1500 l 1,10,-1
 1500 1500 l 1,11,-1
 1500 1800 l 1,12,-1
 200 1800 l 1,13,-1
 200 2000 l 1,14,-1
 1500 2000 l 1,15,-1
 1500 2200 l 1,16,-1
 200 2200 l 1,17,-1
 200 2400 l 1,18,-1
 1600 2400 l 1,19,-1
 1600 0 l 1,4,-1
EndSplineSet
EndChar

StartChar: u11A11.11A04.11A04
Encoding: 1114752 -1 328
Width: 1800
GlyphClass: 2
Flags: W
LayerCount: 2
Fore
SplineSet
400 200 m 1,0,-1
 800 200 l 1,1,-1
 800 1300 l 1,2,-1
 400 1300 l 1,3,-1
 400 200 l 1,0,-1
1000 200 m 1,4,-1
 1400 200 l 1,5,-1
 1400 1300 l 1,6,-1
 1000 1300 l 1,7,-1
 1000 200 l 1,4,-1
1600 0 m 1,8,-1
 200 0 l 1,9,-1
 200 1500 l 1,10,-1
 1500 1500 l 1,11,-1
 1500 1800 l 1,12,-1
 200 1800 l 1,13,-1
 200 2000 l 1,14,-1
 1500 2000 l 1,15,-1
 1500 2200 l 1,16,-1
 200 2200 l 1,17,-1
 200 2400 l 1,18,-1
 1600 2400 l 1,19,-1
 1600 0 l 1,8,-1
EndSplineSet
EndChar

StartChar: u11A12.11A04.11A04
Encoding: 1114753 -1 329
Width: 1800
GlyphClass: 2
Flags: W
LayerCount: 2
Fore
SplineSet
1600 1300 m 1,0,-1
 400 1300 l 1,1,-1
 400 850 l 1,2,-1
 1600 850 l 1,3,-1
 1600 650 l 1,4,-1
 400 650 l 1,5,-1
 400 200 l 1,6,-1
 1600 200 l 1,7,-1
 1600 0 l 1,8,-1
 200 0 l 1,9,-1
 200 1500 l 1,10,-1
 1500 1500 l 1,11,-1
 1500 1800 l 1,12,-1
 200 1800 l 1,13,-1
 200 2000 l 1,14,-1
 1500 2000 l 1,15,-1
 1500 2200 l 1,16,-1
 200 2200 l 1,17,-1
 200 2400 l 1,18,-1
 1600 2400 l 1,19,-1
 1600 1300 l 1,0,-1
EndSplineSet
EndChar

StartChar: u11A13.11A04.11A04
Encoding: 1114754 -1 330
Width: 1800
GlyphClass: 2
Flags: W
LayerCount: 2
Fore
SplineSet
1600 0 m 1,0,-1
 1400 0 l 1,1,-1
 1400 650 l 1,2,-1
 400 650 l 1,3,-1
 400 200 l 1,4,-1
 1000 200 l 1,5,-1
 1000 0 l 1,6,-1
 200 0 l 1,7,-1
 200 850 l 1,8,-1
 1400 850 l 1,9,-1
 1400 1300 l 1,10,-1
 200 1300 l 1,11,-1
 200 1500 l 1,12,-1
 1500 1500 l 1,13,-1
 1500 1800 l 1,14,-1
 200 1800 l 1,15,-1
 200 2000 l 1,16,-1
 1500 2000 l 1,17,-1
 1500 2200 l 1,18,-1
 200 2200 l 1,19,-1
 200 2400 l 1,20,-1
 1600 2400 l 1,21,-1
 1600 0 l 1,0,-1
EndSplineSet
EndChar

StartChar: u11A14.11A04.11A04
Encoding: 1114755 -1 331
Width: 1800
GlyphClass: 2
Flags: W
LayerCount: 2
Fore
SplineSet
1600 1300 m 1,0,-1
 400 1300 l 1,1,-1
 400 1050 l 1,2,-1
 1600 850 l 1,3,-1
 850 0 l 1,4,-1
 600 0 l 1,5,-1
 1200 690 l 1,6,-1
 400 850 l 1,7,-1
 400 0 l 1,8,-1
 200 0 l 1,9,-1
 200 1500 l 1,10,-1
 1500 1500 l 1,11,-1
 1500 1800 l 1,12,-1
 200 1800 l 1,13,-1
 200 2000 l 1,14,-1
 1500 2000 l 1,15,-1
 1500 2200 l 1,16,-1
 200 2200 l 1,17,-1
 200 2400 l 1,18,-1
 1600 2400 l 1,19,-1
 1600 1300 l 1,0,-1
EndSplineSet
EndChar

StartChar: u11A15.11A04.11A04
Encoding: 1114756 -1 332
Width: 1800
GlyphClass: 2
Flags: W
LayerCount: 2
Fore
SplineSet
500 1300 m 1,0,-1
 900 867 l 1,1,-1
 1300 1300 l 1,2,-1
 500 1300 l 1,0,-1
900 633 m 1,3,-1
 500 200 l 1,4,-1
 1300 200 l 1,5,-1
 900 633 l 1,3,-1
1600 1500 m 1,6,-1
 1700 1500 l 1,7,-1
 1008 750 l 1,8,-1
 1700 0 l 1,9,-1
 100 0 l 1,10,-1
 792 750 l 1,11,-1
 100 1500 l 1,12,-1
 1500 1500 l 1,13,-1
 1500 1800 l 1,14,-1
 200 1800 l 1,15,-1
 200 2000 l 1,16,-1
 1500 2000 l 1,17,-1
 1500 2200 l 1,18,-1
 200 2200 l 1,19,-1
 200 2400 l 1,20,-1
 1600 2400 l 1,21,-1
 1600 1500 l 1,6,-1
EndSplineSet
EndChar

StartChar: u11A16.11A04.11A04
Encoding: 1114757 -1 333
Width: 1800
GlyphClass: 2
Flags: W
LayerCount: 2
Fore
SplineSet
1600 1300 m 1,0,-1
 650 1300 l 1,1,-1
 1600 0 l 1,2,-1
 200 0 l 1,3,-1
 200 200 l 1,4,-1
 1150 200 l 1,5,-1
 200 1500 l 1,6,-1
 1500 1500 l 1,7,-1
 1500 1800 l 1,8,-1
 200 1800 l 1,9,-1
 200 2000 l 1,10,-1
 1500 2000 l 1,11,-1
 1500 2200 l 1,12,-1
 200 2200 l 1,13,-1
 200 2400 l 1,14,-1
 1600 2400 l 1,15,-1
 1600 1300 l 1,0,-1
EndSplineSet
EndChar

StartChar: u11A17.11A04.11A04
Encoding: 1114758 -1 334
Width: 1800
GlyphClass: 2
Flags: W
LayerCount: 2
Fore
SplineSet
1600 800 m 1,0,-1
 1400 800 l 1,1,-1
 1400 1300 l 1,2,-1
 650 1300 l 1,3,-1
 1600 0 l 1,4,-1
 200 0 l 1,5,-1
 200 200 l 1,6,-1
 1150 200 l 1,7,-1
 200 1500 l 1,8,-1
 1500 1500 l 1,9,-1
 1500 1800 l 1,10,-1
 200 1800 l 1,11,-1
 200 2000 l 1,12,-1
 1500 2000 l 1,13,-1
 1500 2200 l 1,14,-1
 200 2200 l 1,15,-1
 200 2400 l 1,16,-1
 1600 2400 l 1,17,-1
 1600 800 l 1,0,-1
EndSplineSet
EndChar

StartChar: u11A18.11A04.11A04
Encoding: 1114759 -1 335
Width: 1800
GlyphClass: 2
Flags: W
LayerCount: 2
Fore
SplineSet
1400 200 m 1,0,-1
 1400 1000 l 1,1,-1
 600 600 l 1,2,-1
 1400 200 l 1,0,-1
1600 0 m 1,3,-1
 1400 0 l 1,4,-1
 200 600 l 1,5,-1
 1400 1200 l 1,6,-1
 1400 1300 l 1,7,-1
 200 1300 l 1,8,-1
 200 1500 l 1,9,-1
 1500 1500 l 1,10,-1
 1500 1800 l 1,11,-1
 200 1800 l 1,12,-1
 200 2000 l 1,13,-1
 1500 2000 l 1,14,-1
 1500 2200 l 1,15,-1
 200 2200 l 1,16,-1
 200 2400 l 1,17,-1
 1600 2400 l 1,18,-1
 1600 0 l 1,3,-1
EndSplineSet
EndChar

StartChar: u11A19.11A04.11A04
Encoding: 1114760 -1 336
Width: 1800
GlyphClass: 2
Flags: W
LayerCount: 2
Fore
SplineSet
1600 1300 m 1,0,-1
 400 1300 l 1,1,-1
 400 850 l 1,2,-1
 1600 850 l 1,3,-1
 1600 0 l 1,4,-1
 1400 0 l 1,5,-1
 1400 650 l 1,6,-1
 400 650 l 1,7,-1
 400 0 l 1,8,-1
 200 0 l 1,9,-1
 200 1500 l 1,10,-1
 1500 1500 l 1,11,-1
 1500 1800 l 1,12,-1
 200 1800 l 1,13,-1
 200 2000 l 1,14,-1
 1500 2000 l 1,15,-1
 1500 2200 l 1,16,-1
 200 2200 l 1,17,-1
 200 2400 l 1,18,-1
 1600 2400 l 1,19,-1
 1600 1300 l 1,0,-1
EndSplineSet
EndChar

StartChar: u11A1A.11A04.11A04
Encoding: 1114761 -1 337
Width: 1800
GlyphClass: 2
Flags: W
LayerCount: 2
Fore
SplineSet
1400 650 m 1,0,-1
 400 650 l 1,1,-1
 400 200 l 1,2,-1
 1400 200 l 1,3,-1
 1400 650 l 1,0,-1
400 1300 m 1,4,-1
 400 850 l 1,5,-1
 1400 850 l 1,6,-1
 1400 1300 l 1,7,-1
 400 1300 l 1,4,-1
1600 0 m 1,8,-1
 200 0 l 1,9,-1
 200 1500 l 1,10,-1
 1500 1500 l 1,11,-1
 1500 1800 l 1,12,-1
 200 1800 l 1,13,-1
 200 2000 l 1,14,-1
 1500 2000 l 1,15,-1
 1500 2200 l 1,16,-1
 200 2200 l 1,17,-1
 200 2400 l 1,18,-1
 1600 2400 l 1,19,-1
 1600 0 l 1,8,-1
EndSplineSet
EndChar

StartChar: u11A1B.11A04.11A04
Encoding: 1114762 -1 338
Width: 1800
GlyphClass: 2
Flags: W
LayerCount: 2
Fore
SplineSet
1600 1300 m 1,0,-1
 400 1300 l 1,1,-1
 400 850 l 1,2,-1
 1600 850 l 1,3,-1
 1600 0 l 1,4,-1
 200 0 l 1,5,-1
 200 200 l 1,6,-1
 1400 200 l 1,7,-1
 1400 650 l 1,8,-1
 200 650 l 1,9,-1
 200 1500 l 1,10,-1
 1500 1500 l 1,11,-1
 1500 1800 l 1,12,-1
 200 1800 l 1,13,-1
 200 2000 l 1,14,-1
 1500 2000 l 1,15,-1
 1500 2200 l 1,16,-1
 200 2200 l 1,17,-1
 200 2400 l 1,18,-1
 1600 2400 l 1,19,-1
 1600 1300 l 1,0,-1
EndSplineSet
EndChar

StartChar: u11A1C.11A04.11A04
Encoding: 1114763 -1 339
Width: 1800
GlyphClass: 2
Flags: W
LayerCount: 2
Fore
SplineSet
1600 1300 m 1,0,-1
 400 1300 l 1,1,-1
 400 900 l 1,2,-1
 1600 900 l 1,3,-1
 1600 800 l 1,4,5
 1403 678 1403 678 1096 500 c 0,6,7
 812 334 812 334 1099 211 c 1,8,9
 1327 99 1327 99 1600 0 c 1,10,-1
 1400 0 l 1,11,12
 1009 71 1009 71 803 150 c 1,13,14
 518 334 518 334 824 528 c 0,15,16
 994 632 994 632 1150 700 c 1,17,-1
 400 700 l 1,18,-1
 400 0 l 1,19,-1
 200 0 l 1,20,-1
 200 1500 l 1,21,-1
 1500 1500 l 1,22,-1
 1500 1800 l 1,23,-1
 200 1800 l 1,24,-1
 200 2000 l 1,25,-1
 1500 2000 l 1,26,-1
 1500 2200 l 1,27,-1
 200 2200 l 1,28,-1
 200 2400 l 1,29,-1
 1600 2400 l 1,30,-1
 1600 1300 l 1,0,-1
EndSplineSet
EndChar

StartChar: u11A1D.11A04.11A04
Encoding: 1114764 -1 340
Width: 1800
GlyphClass: 2
Flags: W
LayerCount: 2
Fore
SplineSet
800 650 m 1,0,-1
 400 650 l 1,1,-1
 400 200 l 1,2,-1
 800 200 l 1,3,-1
 800 650 l 1,0,-1
1600 0 m 1,4,-1
 1400 0 l 1,5,-1
 1400 650 l 1,6,-1
 1000 650 l 1,7,-1
 1000 0 l 1,8,-1
 200 0 l 1,9,-1
 200 850 l 1,10,-1
 1400 850 l 1,11,-1
 1400 1300 l 1,12,-1
 200 1300 l 1,13,-1
 200 1500 l 1,14,-1
 1500 1500 l 1,15,-1
 1500 1800 l 1,16,-1
 200 1800 l 1,17,-1
 200 2000 l 1,18,-1
 1500 2000 l 1,19,-1
 1500 2200 l 1,20,-1
 200 2200 l 1,21,-1
 200 2400 l 1,22,-1
 1600 2400 l 1,23,-1
 1600 0 l 1,4,-1
EndSplineSet
EndChar

StartChar: u11A1E.11A04.11A04
Encoding: 1114765 -1 341
Width: 1800
GlyphClass: 2
Flags: W
LayerCount: 2
Fore
SplineSet
1600 0 m 1,0,-1
 200 0 l 1,1,-1
 200 1500 l 1,2,-1
 400 1500 l 1,3,-1
 400 200 l 1,4,-1
 1400 200 l 1,5,-1
 1400 1500 l 1,6,-1
 1500 1500 l 1,7,-1
 1500 1800 l 1,8,-1
 200 1800 l 1,9,-1
 200 2000 l 1,10,-1
 1500 2000 l 1,11,-1
 1500 2200 l 1,12,-1
 200 2200 l 1,13,-1
 200 2400 l 1,14,-1
 1600 2400 l 1,15,-1
 1600 0 l 1,0,-1
EndSplineSet
EndChar

StartChar: u11A1F.11A04.11A04
Encoding: 1114766 -1 342
Width: 1800
GlyphClass: 2
Flags: W
LayerCount: 2
Fore
SplineSet
1400 200 m 1,0,-1
 1400 1300 l 1,1,-1
 1000 1300 l 1,2,-1
 1000 200 l 1,3,-1
 1400 200 l 1,0,-1
1600 0 m 1,4,-1
 200 0 l 1,5,-1
 200 1500 l 1,6,-1
 400 1500 l 1,7,-1
 400 200 l 1,8,-1
 800 200 l 1,9,-1
 800 1500 l 1,10,-1
 1500 1500 l 1,11,-1
 1500 1800 l 1,12,-1
 200 1800 l 1,13,-1
 200 2000 l 1,14,-1
 1500 2000 l 1,15,-1
 1500 2200 l 1,16,-1
 200 2200 l 1,17,-1
 200 2400 l 1,18,-1
 1600 2400 l 1,19,-1
 1600 0 l 1,4,-1
EndSplineSet
EndChar

StartChar: u11A20.11A04.11A04
Encoding: 1114767 -1 343
Width: 1800
GlyphClass: 2
Flags: W
LayerCount: 2
Fore
SplineSet
1400 200 m 1,0,-1
 1400 1300 l 1,1,-1
 400 1300 l 1,2,-1
 400 200 l 1,3,-1
 1400 200 l 1,0,-1
1600 0 m 1,4,-1
 200 0 l 1,5,-1
 200 1500 l 1,6,-1
 1500 1500 l 1,7,-1
 1500 1800 l 1,8,-1
 200 1800 l 1,9,-1
 200 2000 l 1,10,-1
 1500 2000 l 1,11,-1
 1500 2200 l 1,12,-1
 200 2200 l 1,13,-1
 200 2400 l 1,14,-1
 1600 2400 l 1,15,-1
 1600 0 l 1,4,-1
EndSplineSet
EndChar

StartChar: u11A21.11A04.11A04
Encoding: 1114768 -1 344
Width: 1800
GlyphClass: 2
Flags: W
LayerCount: 2
Fore
SplineSet
1400 200 m 1,0,-1
 1400 1300 l 1,1,-1
 550 1300 l 1,2,3
 687 1148 687 1148 748 995 c 0,4,5
 828 796 828 796 778 596 c 0,6,7
 728 398 728 398 550 200 c 1,8,-1
 1400 200 l 1,0,-1
1600 0 m 1,9,-1
 200 0 l 1,10,11
 902 750 902 750 200 1500 c 1,12,-1
 1500 1500 l 1,13,-1
 1500 1800 l 1,14,-1
 200 1800 l 1,15,-1
 200 2000 l 1,16,-1
 1500 2000 l 1,17,-1
 1500 2200 l 1,18,-1
 200 2200 l 1,19,-1
 200 2400 l 1,20,-1
 1600 2400 l 1,21,-1
 1600 0 l 1,9,-1
EndSplineSet
EndChar

StartChar: u11A22.11A04.11A04
Encoding: 1114769 -1 345
Width: 1800
GlyphClass: 2
Flags: W
LayerCount: 2
Fore
SplineSet
400 200 m 1,0,-1
 800 200 l 1,1,-1
 800 1300 l 1,2,-1
 400 1300 l 1,3,-1
 400 200 l 1,0,-1
1600 0 m 1,4,-1
 200 0 l 1,5,-1
 200 1500 l 1,6,-1
 1000 1500 l 1,7,-1
 1000 200 l 1,8,-1
 1400 200 l 1,9,-1
 1400 1500 l 1,10,-1
 1500 1500 l 1,11,-1
 1500 1800 l 1,12,-1
 200 1800 l 1,13,-1
 200 2000 l 1,14,-1
 1500 2000 l 1,15,-1
 1500 2200 l 1,16,-1
 200 2200 l 1,17,-1
 200 2400 l 1,18,-1
 1600 2400 l 1,19,-1
 1600 0 l 1,4,-1
EndSplineSet
EndChar

StartChar: u11A23.11A04.11A04
Encoding: 1114770 -1 346
Width: 1800
GlyphClass: 2
Flags: W
LayerCount: 2
Fore
SplineSet
1000 200 m 1,0,-1
 1400 200 l 1,1,-1
 1400 1300 l 1,2,-1
 1000 1300 l 1,3,-1
 1000 200 l 1,0,-1
1500 1523 m 1,4,-1
 1631 1800 l 2,5,6
 1656 1853 1656 1853 1703 1825 c 1,7,8
 1842 1719 1842 1719 2003 1833 c 1,9,10
 2055 1849 2055 1849 2055 1790 c 0,11,12
 2055 1667 2055 1667 1978 1599 c 1,13,14
 1846 1519 1846 1519 1654 1613 c 1,15,-1
 1600 1500 l 1,16,-1
 1600 0 l 1,17,-1
 200 0 l 1,18,-1
 200 200 l 1,19,-1
 800 200 l 1,20,-1
 800 1300 l 1,21,-1
 200 1300 l 1,22,-1
 200 1500 l 1,23,-1
 1400 1500 l 1,24,-1
 1400 1800 l 1,25,-1
 200 1800 l 1,26,-1
 200 2000 l 1,27,-1
 1400 2000 l 1,28,-1
 1400 2200 l 1,29,-1
 200 2200 l 1,30,-1
 200 2400 l 1,31,-1
 1500 2400 l 1,32,-1
 1500 1523 l 1,4,-1
EndSplineSet
EndChar

StartChar: u11A24.11A04.11A04
Encoding: 1114771 -1 347
Width: 1800
GlyphClass: 2
Flags: W
LayerCount: 2
Fore
SplineSet
400 200 m 1,0,-1
 800 200 l 1,1,-1
 800 1300 l 1,2,-1
 400 1300 l 1,3,-1
 400 200 l 1,0,-1
1000 200 m 1,4,-1
 1400 200 l 1,5,-1
 1400 1300 l 1,6,-1
 1000 1300 l 1,7,-1
 1000 200 l 1,4,-1
1500 1523 m 1,8,-1
 1631 1800 l 2,9,10
 1656 1853 1656 1853 1703 1825 c 1,11,12
 1842 1719 1842 1719 2003 1833 c 1,13,14
 2055 1849 2055 1849 2055 1790 c 0,15,16
 2055 1667 2055 1667 1978 1599 c 1,17,18
 1846 1519 1846 1519 1654 1613 c 1,19,-1
 1600 1500 l 1,20,-1
 1600 0 l 1,21,-1
 200 0 l 1,22,-1
 200 1500 l 1,23,-1
 1400 1500 l 1,24,-1
 1400 1800 l 1,25,-1
 200 1800 l 1,26,-1
 200 2000 l 1,27,-1
 1400 2000 l 1,28,-1
 1400 2200 l 1,29,-1
 200 2200 l 1,30,-1
 200 2400 l 1,31,-1
 1500 2400 l 1,32,-1
 1500 1523 l 1,8,-1
EndSplineSet
EndChar

StartChar: u11A25.11A04.11A04
Encoding: 1114772 -1 348
Width: 1800
GlyphClass: 2
Flags: W
LayerCount: 2
Fore
SplineSet
1500 1523 m 1,0,-1
 1631 1800 l 2,1,2
 1656 1853 1656 1853 1703 1825 c 1,3,4
 1842 1719 1842 1719 2003 1833 c 1,5,6
 2055 1849 2055 1849 2055 1790 c 0,7,8
 2055 1667 2055 1667 1978 1599 c 1,9,10
 1846 1519 1846 1519 1654 1613 c 1,11,-1
 1504 1300 l 1,12,-1
 400 1300 l 1,13,-1
 400 850 l 1,14,-1
 1600 850 l 1,15,-1
 1600 650 l 1,16,-1
 400 650 l 1,17,-1
 400 200 l 1,18,-1
 1600 200 l 1,19,-1
 1600 0 l 1,20,-1
 200 0 l 1,21,-1
 200 1500 l 1,22,-1
 1400 1500 l 1,23,-1
 1400 1800 l 1,24,-1
 200 1800 l 1,25,-1
 200 2000 l 1,26,-1
 1400 2000 l 1,27,-1
 1400 2200 l 1,28,-1
 200 2200 l 1,29,-1
 200 2400 l 1,30,-1
 1500 2400 l 1,31,-1
 1500 1523 l 1,0,-1
EndSplineSet
EndChar

StartChar: u11A26.11A04.11A04
Encoding: 1114773 -1 349
Width: 1800
GlyphClass: 2
Flags: W
LayerCount: 2
Fore
SplineSet
1500 1523 m 1,0,-1
 1631 1800 l 2,1,2
 1656 1853 1656 1853 1703 1825 c 1,3,4
 1842 1719 1842 1719 2003 1833 c 1,5,6
 2055 1849 2055 1849 2055 1790 c 0,7,8
 2055 1667 2055 1667 1978 1599 c 1,9,10
 1846 1519 1846 1519 1654 1613 c 1,11,-1
 1504 1300 l 1,12,-1
 400 1300 l 1,13,-1
 400 850 l 1,14,-1
 949 850 l 1,15,16
 972 932 972 932 1038 998 c 0,17,18
 1140 1100 1140 1100 1285 1100 c 256,19,20
 1430 1100 1430 1100 1532 997 c 0,21,22
 1575 955 1575 955 1600 905 c 1,23,-1
 1450 809 l 1,24,25
 1437 845 1437 845 1409 874 c 0,26,27
 1357 925 1357 925 1285 925 c 256,28,29
 1213 925 1213 925 1161.5 873.5 c 128,-1,30
 1110 822 1110 822 1110 750 c 256,31,32
 1110 678 1110 678 1161.5 626.5 c 128,-1,33
 1213 575 1213 575 1285 575 c 256,34,35
 1357 575 1357 575 1409 626 c 0,36,37
 1437 654 1437 654 1449 688 c 1,38,-1
 1601 597 l 1,39,40
 1575 546 1575 546 1532 503 c 0,41,42
 1430 400 1430 400 1285 400 c 256,43,44
 1140 400 1140 400 1038 503 c 0,45,46
 972 568 972 568 949 650 c 1,47,-1
 400 650 l 1,48,-1
 400 200 l 1,49,-1
 1600 200 l 1,50,-1
 1600 0 l 1,51,-1
 200 0 l 1,52,-1
 200 1500 l 1,53,-1
 1400 1500 l 1,54,-1
 1400 1800 l 1,55,-1
 200 1800 l 1,56,-1
 200 2000 l 1,57,-1
 1400 2000 l 1,58,-1
 1400 2200 l 1,59,-1
 200 2200 l 1,60,-1
 200 2400 l 1,61,-1
 1500 2400 l 1,62,-1
 1500 1523 l 1,0,-1
EndSplineSet
EndChar

